SplineFontDB: 3.0
FontName: Dhyana-Bold
FullName: Dhyana Bold
FamilyName: Dhyana
Weight: Bold
Copyright: Copyright (c) 2010 by Vernon Adams. All rights reserved.
Version: 1.00, 2005
ItalicAngle: 0
UnderlinePosition: -188
UnderlineWidth: 48
Ascent: 1638
Descent: 410
sfntRevision: 0x00010000
LayerCount: 2
Layer: 0 0 "Back"  1
Layer: 1 0 "Fore"  0
NeedsXUIDChange: 1
XUID: [1021 332 469972825 9070266]
FSType: 0
OS2Version: 2
OS2_WeightWidthSlopeOnly: 0
OS2_UseTypoMetrics: 1
CreationTime: 1283209859
ModificationTime: 1332235651
PfmFamily: 17
TTFWeight: 700
TTFWidth: 5
LineGap: 52
VLineGap: 0
Panose: 2 0 8 3 5 0 0 2 0 4
OS2TypoAscent: -159
OS2TypoAOffset: 1
OS2TypoDescent: 0
OS2TypoDOffset: 1
OS2TypoLinegap: 103
OS2WinAscent: -114
OS2WinAOffset: 1
OS2WinDescent: 0
OS2WinDOffset: 1
HheadAscent: -114
HheadAOffset: 1
HheadDescent: 0
HheadDOffset: 1
OS2SubXSize: 1331
OS2SubYSize: 1433
OS2SubXOff: 0
OS2SubYOff: 286
OS2SupXSize: 1331
OS2SupYSize: 1433
OS2SupXOff: 0
OS2SupYOff: 983
OS2StrikeYSize: 102
OS2StrikeYPos: 512
OS2Vendor: 'PfEd'
OS2CodePages: 00000001.00000000
OS2UnicodeRanges: 8200006f.1000200a.00000000.00000000
Lookup: 1 0 0 "'liga' Standard Ligatures lookup 0"  {"'liga' Standard Ligatures lookup 0 subtable"  } ['liga' ('lao ' <'dflt' > 'latn' <'dflt' > ) ]
Lookup: 4 0 1 "'liga' Standard Ligatures lookup 1"  {"'liga' Standard Ligatures lookup 1 subtable"  } ['liga' ('lao ' <'dflt' > 'latn' <'dflt' > ) ]
Lookup: 258 0 0 "'kern' Horizontal Kerning in Latin lookup 0"  {"'kern' Horizontal Kerning in Latin lookup 0 subtable"  } ['kern' ('latn' <'dflt' > ) ]
MarkAttachClasses: 1
DEI: 91125
TtTable: prep
PUSHW_1
 511
SCANCTRL
PUSHB_1
 1
SCANTYPE
SVTCA[y-axis]
MPPEM
PUSHB_1
 8
LT
IF
PUSHB_2
 1
 1
INSTCTRL
EIF
PUSHB_2
 70
 6
CALL
IF
POP
PUSHB_1
 16
EIF
MPPEM
PUSHB_1
 20
GT
IF
POP
PUSHB_1
 128
EIF
SCVTCI
PUSHB_1
 6
CALL
NOT
IF
SVTCA[y-axis]
PUSHB_1
 6
DUP
RCVT
PUSHB_1
 3
CALL
WCVTP
PUSHB_1
 15
DUP
RCVT
PUSHW_3
 6
 273
 2
CALL
PUSHB_1
 3
CALL
WCVTP
PUSHB_1
 14
DUP
RCVT
PUSHB_3

StartChar: .notdef
Encoding: 65536 -1 0
Width: 761
Flags: HW
HStem: 0 69<138 554> 1320 70<138 554>
VStem: 69 69<69 1320> 554 69<69 1320>
LayerCount: 2
Fore
SplineSet
554 69 m 1
 554 1320 l 1
 138 1320 l 1
 138 69 l 1
 554 69 l 1
69 1390 m 1
 623 1390 l 1
 623 0 l 1
 69 0 l 1
 69 1390 l 1
EndSplineSet
EndChar

StartChar: exclam
Encoding: 33 33 6
Width: 768
GlyphClass: 2
Flags: HW
HStem: -7 320<277.786 520.803> 1587 20G<228 557>
VStem: 243 317<27.8171 262.468> 297 194<464 701.479>
LayerCount: 2
Fore
SplineSet
560 161 m 0
 560 54 517 -7 409 -7 c 0
 358 -7 314 4 276 26 c 1
 254 65 243 110 243 161 c 0
 243 267 302 313 409 313 c 0
 511 313 560 264 560 161 c 0
491 464 m 1
 297 464 l 1
 228 1607 l 1
 557 1607 l 1
 491 464 l 1
EndSplineSet
EndChar

StartChar: quotedbl
Encoding: 34 34 7
Width: 897
GlyphClass: 2
Flags: HW
HStem: 1587 20G<62 416 520 874>
VStem: 139 178<920 1016.35> 597 178<920 1016.09>
LayerCount: 2
Fore
SplineSet
874 1607 m 1
 846 1373 808 1149 775 920 c 1
 597 920 l 1
 531 1483 l 1
 520 1607 l 1
 874 1607 l 1
416 1607 m 1
 388 1373 350 1149 317 920 c 1
 139 920 l 1
 71 1498 l 1
 62 1607 l 1
 416 1607 l 1
EndSplineSet
EndChar

StartChar: numbersign
Encoding: 35 35 8
Width: 1278
GlyphClass: 2
Flags: HW
HStem: 490 143<174 340 553 736 948 1146> 874 145<185 384 599 778 996 1155>
VStem: 287 197<118 315> 452 194<1201 1395> 684 197<118 315> 845 198<1197 1395>
DStem2: 287 118 484 118 0.128144 0.991756<25.2443 375.725 544.84 762.197 933.553 1287.62> 684 118 881 118 0.125851 0.992049<24.7927 375.587 544.13 761.819 933.102 1287.11>
LayerCount: 2
Fore
SplineSet
749 633 m 1
 778 874 l 1
 584 874 l 1
 553 633 l 1
 749 633 l 1
537 490 m 1
 484 118 l 1
 287 118 l 1
 340 490 l 1
 174 490 l 1
 174 633 l 1
 354 633 l 1
 384 874 l 1
 185 874 l 1
 185 1019 l 1
 403 1019 l 1
 452 1395 l 1
 646 1395 l 1
 599 1019 l 1
 801 1019 l 1
 845 1395 l 1
 1043 1395 l 1
 996 1019 l 1
 1155 1019 l 1
 1155 874 l 1
 979 874 l 1
 948 633 l 1
 1146 633 l 1
 1146 490 l 1
 931 490 l 1
 881 118 l 1
 684 118 l 1
 736 490 l 1
 537 490 l 1
EndSplineSet
EndChar

StartChar: dollar
Encoding: 36 36 9
Width: 1306
GlyphClass: 2
Flags: HW
HStem: -30 230<369.746 604 713 819.694> 1256 228<422.098 604 713 941.219> 1594 20G<604 713>
VStem: 100 272<1008.07 1206.07> 604 109<-162 -30 209 609 921 1253 1484 1614> 908 275<280.721 523.904>
DStem2: 345 253 304 28 0.954248 -0.299017<-136.38 261.176> 604 921 342 751 0.936431 -0.350853<-254.622 0 211.537 408.055> 843.5 1464 822.5 1240.5 0.967856 -0.251505<-71.6927 270.598>
LayerCount: 2
Fore
SplineSet
713 209 m 1
 820 222 908 286 908 402 c 0
 908 535 810 570 713 609 c 1
 713 209 l 1
604 1256 m 1
 468 1254 372 1222 372 1096 c 0
 372 983 510 953 604 921 c 1
 604 1256 l 1
100 1093 m 0
 100 1391 315 1476 604 1484 c 1
 604 1614 l 1
 713 1614 l 1
 713 1479 l 1
 861 1470 1016 1440 1118 1384 c 1
 1050 1175 l 1
 1011 1189 971 1202 932 1214 c 1
 871 1231 786 1253 713 1253 c 1
 713 884 l 1
 932 803 1183 715 1183 436 c 0
 1183 133 995 -7 713 -28 c 1
 713 -162 l 1
 604 -162 l 1
 604 -30 l 1
 424 -30 280 31 147 86 c 1
 207 307 l 1
 317 258 453 200 604 200 c 1
 604 648 l 1
 378 731 100 797 100 1093 c 0
EndSplineSet
EndChar

StartChar: percent
Encoding: 37 37 10
Width: 1724
GlyphClass: 2
Flags: HW
HStem: -33 21G<566.805 618.51> 12 162<1272.96 1506.84> 625 163<270.583 503.468> 749 167<1277.8 1501.47> 1362 168<275.586 498.471>
VStem: 29 184<849.424 1294.47> 562 190<849.778 1294.47> 1032 184<235.471 680.647> 1565 189<236.778 681.899>
DStem2: 436 49 609 -33 0.428034 0.903763<0 1627.67>
LayerCount: 2
Fore
SplineSet
1216 457 m 0
 1216 303 1241 174 1390 174 c 256
 1539 174 1565 303 1565 457 c 0
 1565 620 1535 749 1390 749 c 0
 1244 749 1216 621 1216 457 c 0
1754 451 m 0
 1754 207 1639 12 1393 12 c 256
 1145 12 1032 205 1032 451 c 0
 1032 727 1136 916 1393 916 c 0
 1655 916 1754 731 1754 451 c 0
213 1070 m 0
 213 916 238 788 387 788 c 256
 536 788 562 917 562 1070 c 0
 562 1233 532 1362 387 1362 c 256
 242 1362 213 1233 213 1070 c 0
752 1064 m 0
 752 820 637 625 391 625 c 256
 143 625 29 818 29 1064 c 0
 29 1341 133 1530 391 1530 c 0
 651 1530 752 1342 752 1064 c 0
1136 1527 m 1
 1308 1437 l 1
 609 -33 l 1
 436 49 l 1
 1136 1527 l 1
EndSplineSet
EndChar

StartChar: ampersand
Encoding: 38 38 11
Width: 1740
GlyphClass: 2
Flags: HW
HStem: -40 220<543.576 1069.82> -36 21G<1572.21 1612.23> 1381 193<595.348 910.214>
VStem: 150 266<296.082 603.573> 295 251<1091.4 1331.25> 966 226<1095.84 1328.42> 1276 241<496.877 875>
DStem2: 873 823 675 728 0.765036 -0.643988<-447.402 -318.938 0 514.947 803.24 1102.76>
LayerCount: 2
Fore
SplineSet
675 728 m 1
 534 694 416 624 416 451 c 0
 416 251 560 180 780 180 c 0
 942 180 1128 204 1186 302 c 1
 675 728 l 1
1364 159 m 1
 1260 12 1049 -40 780 -40 c 0
 429 -40 150 79 150 427 c 0
 150 695 312 809 507 883 c 1
 410 943 295 1073 295 1229 c 0
 295 1467 507 1574 749 1574 c 0
 988 1574 1192 1467 1192 1233 c 0
 1192 1006 1057 886 873 823 c 1
 1270 495 l 1
 1275 573 1276 670 1276 753 c 0
 1276 794 1275 840 1275 875 c 1
 1518 875 l 1
 1518 714 1504 543 1480 400 c 1
 1467 332 l 1
 1721 118 l 1
 1596 -36 l 1
 1364 159 l 1
710 982 m 1
 822 1013 966 1069 966 1211 c 0
 966 1331 879 1381 755 1381 c 0
 616 1381 546 1325 546 1214 c 0
 546 1105 637 1022 710 982 c 1
EndSplineSet
EndChar

StartChar: quotesingle
Encoding: 39 39 12
Width: 625
GlyphClass: 2
Flags: HW
HStem: 1587 20G<136 489>
VStem: 212 179<920 1016.35>
LayerCount: 2
Fore
SplineSet
489 1607 m 1
 463 1372 423 1150 391 920 c 1
 212 920 l 1
 144 1498 l 1
 136 1607 l 1
 489 1607 l 1
EndSplineSet
EndChar

StartChar: parenleft
Encoding: 40 40 13
Width: 859
GlyphClass: 2
Flags: HW
HStem: 1655 20G<594 650.725>
VStem: 203 271<353.009 1041.32>
LayerCount: 2
Fore
SplineSet
641 -270 m 1
 384 -84 203 251 203 698 c 0
 203 1145 378 1486 634 1675 c 1
 777 1504 l 1
 596 1335 474 1049 474 698 c 256
 474 349 590 67 773 -97 c 1
 641 -270 l 1
EndSplineSet
EndChar

StartChar: parenright
Encoding: 41 41 14
Width: 857
GlyphClass: 2
Flags: HW
HStem: 1657 20G<215.74 254>
VStem: 398 272<367.17 1051.11>
LayerCount: 2
Fore
SplineSet
231 1677 m 1
 487 1488 670 1159 670 713 c 0
 670 258 493 -77 233 -270 c 1
 95 -98 l 1
 277 68 398 359 398 707 c 0
 398 1057 279 1336 99 1504 c 1
 231 1677 l 1
EndSplineSet
EndChar

StartChar: asterisk
Encoding: 42 42 15
Width: 998
GlyphClass: 2
Flags: HW
HStem: 1134 157<44 333 634 911>
DStem2: 333 1134 483 1033 0.496879 0.86782<-292.852 -13.1181 297.436 578.653> 481 1392 336 1291 0.495401 -0.868664<-279.953 0 312.841 592.752>
LayerCount: 2
Fore
SplineSet
617 1640 m 1
 778 1546 l 1
 631 1291 l 1
 911 1291 l 1
 911 1134 l 1
 634 1134 l 1
 785 883 l 1
 622 787 l 1
 483 1033 l 1
 344 788 l 1
 182 883 l 1
 333 1134 l 1
 44 1134 l 1
 44 1291 l 1
 336 1291 l 1
 188 1548 l 1
 349 1639 l 1
 481 1392 l 1
 617 1640 l 1
EndSplineSet
EndChar

StartChar: plus
Encoding: 43 43 16
Width: 1074
GlyphClass: 2
Flags: HW
HStem: 485 220<137 434 668 966>
VStem: 434 234<130 485 705 1059>
LayerCount: 2
Fore
SplineSet
668 485 m 1
 668 130 l 1
 434 130 l 1
 434 485 l 1
 137 485 l 1
 137 705 l 1
 434 705 l 1
 434 1059 l 1
 668 1059 l 1
 668 705 l 1
 966 705 l 1
 966 485 l 1
 668 485 l 1
EndSplineSet
EndChar

StartChar: comma
Encoding: 44 44 17
Width: 661
GlyphClass: 2
Flags: HW
HStem: -291 664
VStem: 154 362<1.57874 373> 316 200<-119.748 0>
LayerCount: 2
Fore
SplineSet
154 373 m 1
 516 373 l 1
 516 51 l 2
 516 -161 370 -243 206 -291 c 1
 155 -183 l 1
 244 -151 316 -117 316 0 c 1
 154 0 l 1
 154 373 l 1
EndSplineSet
EndChar

StartChar: hyphen
Encoding: 45 45 18
Width: 1078
GlyphClass: 2
Flags: HW
HStem: 558 225<159 920>
LayerCount: 2
Fore
SplineSet
159 558 m 1
 159 783 l 1
 920 783 l 1
 920 558 l 1
 159 558 l 1
EndSplineSet
EndChar

StartChar: period
Encoding: 46 46 19
Width: 714
GlyphClass: 2
Flags: HW
HStem: 0 373<176 539>
VStem: 176 363<0 373>
LayerCount: 2
Fore
SplineSet
176 373 m 1
 539 373 l 1
 539 0 l 1
 176 0 l 1
 176 373 l 1
EndSplineSet
EndChar

StartChar: slash
Encoding: 47 47 20
Width: 982
GlyphClass: 2
Flags: HW
DStem2: 130 -84 368 -162 0.316543 0.948578<1.34806 1904.96>
LayerCount: 2
Fore
SplineSet
733 1723 m 1
 974 1643 l 1
 368 -162 l 1
 130 -84 l 1
 733 1723 l 1
EndSplineSet
EndChar

StartChar: zero
Encoding: 48 48 21
Width: 1443
GlyphClass: 2
Flags: HW
HStem: -29 218<551.405 887.339> 1012 217<554.009 886.782>
VStem: 131 278<351.214 848.413> 1035 275<357.421 846.338>
LayerCount: 2
Fore
SplineSet
409 603 m 256
 409 369 484 189 719 189 c 0
 955 189 1035 372 1035 609 c 0
 1035 837 949 1012 719 1012 c 0
 489 1012 409 833 409 603 c 256
131 602 m 0
 131 986 332 1229 718 1229 c 0
 1104 1229 1310 984 1310 602 c 0
 1310 217 1104 -29 717 -29 c 0
 335 -29 131 219 131 602 c 0
EndSplineSet
EndChar

StartChar: one
Encoding: 49 49 22
Width: 861
GlyphClass: 2
Flags: HW
HStem: 0 21G<346 636> 1184 20G<321 636>
VStem: 346 290<0 974>
LayerCount: 2
Fore
SplineSet
346 974 m 1
 167 893 l 1
 87 1090 l 1
 165 1123 242 1156 321 1188 c 1
 424 1204 l 1
 636 1204 l 1
 636 0 l 1
 346 0 l 1
 346 974 l 1
EndSplineSet
EndChar

StartChar: two
Encoding: 50 50 23
Width: 1167
GlyphClass: 2
Flags: HW
HStem: 0 226<541 1009> 998 217<343.673 705.604>
VStem: 758 271<687.306 946.519>
DStem2: 220 1131.5 310 940.5 0.93271 0.360627<-63.9498 260.465> 578 548 541 226 0.767481 0.641072<-234.822 252.591>
LayerCount: 2
Fore
SplineSet
575 1215 m 0
 829 1215 1029 1104 1029 853 c 0
 1029 624 875 508 742 395 c 2
 541 226 l 1
 1009 226 l 1
 1009 0 l 1
 153 0 l 1
 153 193 l 1
 578 548 l 1
 666 620 758 694 758 824 c 0
 758 940 689 998 552 998 c 0
 431 998 321 950 237 907 c 1
 159 1101 l 1
 261 1160 413 1215 575 1215 c 0
EndSplineSet
EndChar

StartChar: three
Encoding: 51 51 24
Width: 1183
GlyphClass: 2
Flags: HW
HStem: -188 215<276.309 691.844> 451 209<438 630.555> 1006 219<295.39 675.238>
VStem: 733 257<736.616 959.567> 756 272<88.1663 345.893>
DStem2: 233 87.5 166.5 -123 0.940036 -0.341075<-32.1495 284.961>
LayerCount: 2
Fore
SplineSet
438 660 m 1
 587 660 733 702 733 850 c 0
 733 969 641 1006 515 1006 c 0
 401 1006 305 955 220 934 c 1
 132 1130 l 1
 227 1177 356 1225 502 1225 c 0
 777 1225 990 1128 990 852 c 0
 990 693 886 578 751 556 c 1
 901 519 1028 403 1028 214 c 0
 1028 -67 803 -188 521 -188 c 0
 369 -188 228 -157 128 -107 c 1
 201 101 l 1
 279 62 398 27 516 27 c 0
 666 27 756 77 756 221 c 0
 756 386 597 442 438 451 c 1
 438 660 l 1
EndSplineSet
EndChar

StartChar: four
Encoding: 52 52 25
Width: 1271
GlyphClass: 2
Flags: HW
HStem: 64 212<363 733 979 1164>
VStem: 733 246<-238 64 279 825>
DStem2: 83 243 363 276 0.562173 0.827019<184.7 846.738>
LayerCount: 2
Fore
SplineSet
733 276 m 1
 733 825 l 1
 363 276 l 1
 733 276 l 1
979 1179 m 1
 979 279 l 1
 1164 279 l 1
 1164 64 l 1
 979 64 l 1
 979 -238 l 1
 733 -238 l 1
 733 64 l 1
 120 64 l 1
 83 243 l 1
 758 1236 l 1
 979 1179 l 1
EndSplineSet
EndChar

StartChar: five
Encoding: 53 53 26
Width: 1168
GlyphClass: 2
Flags: HW
HStem: -196 227<273.768 714.394> 532 205<416.44 713.848> 978 212<401 966>
VStem: 169 232<681 978> 800 253<114.626 444.234>
LayerCount: 2
Fore
SplineSet
1053 269 m 0
 1053 -28 845 -196 547 -196 c 0
 387 -196 248 -154 136 -102 c 1
 182 112 l 1
 275 67 398 31 534 31 c 0
 704 31 800 103 800 270 c 0
 800 438 722 532 557 532 c 0
 454 532 370 491 295 446 c 1
 169 554 l 1
 169 1190 l 1
 966 1190 l 1
 966 978 l 1
 401 978 l 1
 401 681 l 1
 445 713 505 737 585 737 c 0
 878 737 1053 562 1053 269 c 0
EndSplineSet
EndChar

StartChar: six
Encoding: 54 54 27
Width: 1258
GlyphClass: 2
Flags: HW
HStem: -124 217<500.265 800.346> 647 210<486.649 820.889> 1146 221<791.916 881.346>
VStem: 113 273<221.521 566.014> 901 265<201.931 564.71>
LayerCount: 2
Fore
SplineSet
677 857 m 0
 968 857 1166 662 1166 373 c 0
 1166 65 966 -124 656 -124 c 0
 308 -124 113 105 113 452 c 0
 113 984 454 1259 877 1367 c 1
 944 1146 l 1
 722 1100 538 992 457 804 c 1
 520 833 588 857 677 857 c 0
901 402 m 0
 901 555 825 647 673 647 c 0
 551 647 450 596 388 534 c 1
 386 505 386 476 386 443 c 0
 389 244 452 93 655 93 c 0
 832 93 901 227 901 402 c 0
EndSplineSet
EndChar

StartChar: seven
Encoding: 55 55 28
Width: 1149
GlyphClass: 2
Flags: HW
HStem: 992 222<138 758>
DStem2: 246 -104 497 -216 0.422495 0.906365<4.53325 1209.69>
LayerCount: 2
Fore
SplineSet
1089 1054 m 1
 497 -216 l 1
 246 -104 l 1
 758 992 l 1
 138 992 l 1
 138 1214 l 1
 1015 1214 l 1
 1089 1054 l 1
EndSplineSet
EndChar

StartChar: eight
Encoding: 56 56 29
Width: 1312
GlyphClass: 2
Flags: HW
HStem: -138 219<480.419 832.859> 545 198<514.866 799.293> 1140 211<490.914 822.991>
VStem: 149 270<142.611 446.859> 166 264<287.779 462.033 818.465 1080.18> 882 264<286.779 462.476 816.688 1081.77> 892 271<139.258 449.175>
LayerCount: 2
Fore
SplineSet
659 743 m 0
 795 743 882 820 882 956 c 0
 882 1089 792 1140 659 1140 c 0
 525 1140 430 1090 430 956 c 256
 430 818 521 743 659 743 c 0
659 81 m 0
 812 81 892 133 892 285 c 0
 892 437 810 545 659 545 c 0
 506 545 419 439 419 286 c 0
 419 134 500 81 659 81 c 0
659 1351 m 0
 927 1351 1146 1230 1146 965 c 0
 1146 782 1028 667 879 632 c 1
 1045 596 1163 464 1163 262 c 0
 1163 -18 939 -138 659 -138 c 0
 377 -138 149 -18 149 264 c 0
 149 463 267 599 433 632 c 1
 285 668 166 782 166 966 c 0
 166 1232 391 1351 659 1351 c 0
EndSplineSet
EndChar

StartChar: nine
Encoding: 57 57 30
Width: 1285
GlyphClass: 2
Flags: HW
HStem: -231 222<401.803 489.779> 297 208<468.337 805.568> 1042 218<477.508 788.467>
VStem: 118 266<592.589 944.788> 902 270<562.829 916.278>
LayerCount: 2
Fore
SplineSet
829 355 m 1
 774 321 696 297 607 297 c 0
 309 297 118 468 118 765 c 0
 118 1065 317 1260 620 1260 c 0
 978 1260 1172 1043 1172 684 c 0
 1172 170 823 -137 406 -231 c 1
 341 -9 l 1
 565 37 756 158 829 355 c 1
634 1042 m 0
 454 1042 384 930 384 752 c 0
 384 607 461 505 605 505 c 0
 699 505 834 527 891 569 c 1
 895 612 900 656 902 703 c 1
 899 896 832 1042 634 1042 c 0
EndSplineSet
EndChar

StartChar: colon
Encoding: 58 58 31
Width: 701
GlyphClass: 2
Flags: HW
HStem: 0 379<190 556> 688 379<190 556>
VStem: 190 366<0 379 688 1067>
LayerCount: 2
Fore
SplineSet
190 379 m 1
 556 379 l 1
 556 0 l 1
 190 0 l 1
 190 379 l 1
190 1067 m 1
 556 1067 l 1
 556 688 l 1
 190 688 l 1
 190 1067 l 1
EndSplineSet
EndChar

StartChar: semicolon
Encoding: 59 59 32
Width: 692
GlyphClass: 2
Flags: HW
HStem: 688 379<186 549>
VStem: 186 363<1.57874 373 688 1067> 350 200<-119.748 0>
LayerCount: 2
Fore
SplineSet
186 1067 m 1
 549 1067 l 1
 549 688 l 1
 186 688 l 1
 186 1067 l 1
188 373 m 1
 550 373 l 1
 550 51 l 2
 550 -161 404 -243 240 -291 c 1
 189 -183 l 1
 278 -151 350 -117 350 0 c 1
 188 0 l 1
 188 373 l 1
EndSplineSet
EndChar

StartChar: less
Encoding: 60 60 33
Width: 1238
GlyphClass: 2
Flags: HW
HStem: 1 21G<932.007 963.293>
DStem2: 444 632 179 559 0.813663 -0.581337<0 675.281> 216 739 444 632 0.817059 0.576554<124.598 800.52>
LayerCount: 2
Fore
SplineSet
216 739 m 1
 960 1264 l 1
 1001 1015 l 1
 444 632 l 1
 1001 250 l 1
 960 1 l 1
 179 559 l 1
 216 739 l 1
EndSplineSet
EndChar

StartChar: equal
Encoding: 61 61 34
Width: 1112
GlyphClass: 2
Flags: HW
HStem: 278 197<162 951> 601 196<162 951>
LayerCount: 2
Fore
SplineSet
162 278 m 1
 162 475 l 1
 951 475 l 1
 951 278 l 1
 162 278 l 1
162 601 m 1
 162 797 l 1
 951 797 l 1
 951 601 l 1
 162 601 l 1
EndSplineSet
EndChar

StartChar: greater
Encoding: 62 62 35
Width: 1217
GlyphClass: 2
Flags: HW
HStem: 1 21G<285.784 316.993>
DStem2: 288 1264 247 1009 0.81798 -0.575246<113.151 782.362> 248 256 289 1 0.813663 0.581337<0 667.725>
LayerCount: 2
Fore
SplineSet
289 1 m 1
 248 256 l 1
 800 632 l 1
 247 1009 l 1
 288 1264 l 1
 1026 745 l 1
 1070 559 l 1
 289 1 l 1
EndSplineSet
EndChar

StartChar: question
Encoding: 63 63 36
Width: 1148
GlyphClass: 2
Flags: HW
HStem: -43 328<311.197 505.588> 1359 234<238.737 696.984>
VStem: 260 296<7.04272 235.046> 264 270<378 699.828> 758 285<1050.27 1300.15>
LayerCount: 2
Fore
SplineSet
369 -43 m 1
 299 -13 252 66 252 165 c 1
 280 234 353 285 449 285 c 1
 518 255 566 176 566 77 c 1
 539 8 465 -43 369 -43 c 1
264 823 m 1
 445 883 758 952 758 1178 c 0
 758 1330 638 1359 486 1359 c 0
 428 1359 140 1313 140 1280 c 1
 65 1495 l 1
 180 1553 330 1593 505 1593 c 0
 799 1593 1043 1492 1043 1199 c 0
 1043 899 779 760 534 686 c 1
 534 378 l 1
 264 378 l 1
 264 823 l 1
EndSplineSet
EndChar

StartChar: at
Encoding: 64 64 37
Width: 1982
GlyphClass: 2
Flags: HW
HStem: -144 196<721.894 1243.12> 239 173<790.146 1053.11 1390.18 1517.83> 1013 158<901.51 1253.51> 1325 204<778.834 1317.68>
VStem: 134 237<376.955 902.57> 519 214<471.006 833.33> 1254 186<771.894 995.154> 1254 134<415.094 545> 1643 230<545.924 1018.78>
DStem2: 1197.5 79.5 1252.5 -111 0.946186 0.323623<-177.057 190.415>
LayerCount: 2
Fore
SplineSet
1446 -19 m 1
 1341 -103 1177 -144 989 -144 c 0
 481 -144 134 126 134 628 c 0
 134 1170 503 1529 1049 1529 c 0
 1520 1529 1873 1268 1873 797 c 0
 1873 478 1723 247 1400 247 c 0
 1293 247 1254 314 1254 420 c 2
 1254 482 l 130
 1254 503 1255 524 1256 545 c 1
 1205 376 1114 239 895 239 c 0
 659 239 519 405 519 643 c 0
 519 950 758 1171 1065 1171 c 0
 1243 1171 1417 1140 1440 987 c 1
 1440 957 1439 931 1438 903 c 1
 1388 415 l 1
 1574 435 1643 557 1643 772 c 0
 1643 1147 1408 1325 1036 1325 c 0
 621 1325 371 1045 371 628 c 0
 371 235 623 52 1018 52 c 0
 1168 52 1269 100 1376 146 c 1
 1446 -19 l 1
1254 993 m 1
 1201 1002 1139 1013 1075 1013 c 0
 850 1013 733 851 733 622 c 0
 733 503 788 412 906 412 c 0
 1178 412 1236 733 1254 993 c 1
EndSplineSet
EndChar

StartChar: A
Encoding: 65 65 38
Width: 1513
GlyphClass: 2
Flags: HW
HStem: 0 21G<43 357.341 1155.6 1469> 369 147<509 1004> 1587 20G<564.429 943.621>
VStem: 43 308<0 308> 1162 307<0 307>
DStem2: 43 0 351 0 0.312146 0.950034<96.1409 483.225 635.678 1444.6> 937 1607 760 1285 0.314278 -0.949331<250.057 1056.78>
LayerCount: 2
Fore
SplineSet
937 1607 m 1
 1469 0 l 1
 1162 0 l 1
 1044 369 l 1
 468 369 l 1
 351 0 l 1
 43 0 l 1
 571 1607 l 1
 937 1607 l 1
509 516 m 1
 1004 516 l 1
 760 1285 l 1
 509 516 l 1
EndSplineSet
EndChar

StartChar: B
Encoding: 66 66 39
Width: 1441
GlyphClass: 2
Flags: HW
HStem: 0 202<462 949.393> 749 191<462 912.041> 1405 202<462 918.917>
VStem: 156 306<202 749 940 1405> 1023 268<1036.27 1318.16> 1060 298<299.163 641.752>
LayerCount: 2
Fore
SplineSet
1358 453 m 0
 1358 68 1044 0 656 0 c 2
 156 0 l 1
 156 1607 l 1
 558 1607 l 2
 917 1607 1291 1557 1291 1205 c 0
 1291 981 1149 883 949 859 c 1
 1192 827 1358 729 1358 453 c 0
1060 470 m 0
 1060 710 894 749 651 749 c 2
 462 749 l 1
 462 202 l 1
 625 202 l 2
 878 202 1060 220 1060 470 c 0
1023 1186 m 0
 1023 1387 826 1405 617 1405 c 2
 462 1405 l 1
 462 940 l 1
 651 940 l 2
 862 940 1023 980 1023 1186 c 0
EndSplineSet
EndChar

StartChar: C
Encoding: 67 67 40
Width: 1319
GlyphClass: 2
Flags: HW
HStem: -34 225<632.444 1056.96> 1411 225<632.853 1070.24>
VStem: 105 307<465.741 1133.85>
LayerCount: 2
Fore
SplineSet
823 1411 m 0
 494 1411 412 1126 412 790 c 0
 412 451 509 191 823 191 c 0
 970 191 1099 241 1186 302 c 1
 1270 86 l 1
 1174 7 978 -34 801 -34 c 0
 315 -34 105 305 105 796 c 0
 105 1279 321 1636 804 1636 c 0
 978 1636 1155 1603 1259 1531 c 1
 1179 1312 l 1
 1090 1370 970 1411 823 1411 c 0
EndSplineSet
EndChar

StartChar: D
Encoding: 68 68 41
Width: 1557
GlyphClass: 2
Flags: HW
HStem: 0 202<462 892.902> 1405 202<462 909.243>
VStem: 157 305<202 1405> 1142 310<485.149 1140.35>
LayerCount: 2
Fore
SplineSet
661 202 m 2
 1021 202 1142 439 1142 801 c 0
 1142 1173 1042 1405 671 1405 c 2
 462 1405 l 1
 462 202 l 1
 661 202 l 2
676 1607 m 2
 1204 1607 1452 1337 1452 801 c 0
 1452 281 1207 0 683 0 c 2
 157 0 l 1
 157 1607 l 1
 676 1607 l 2
EndSplineSet
EndChar

StartChar: E
Encoding: 69 69 42
Width: 1281
GlyphClass: 2
Flags: HW
HStem: 0 199<461 1216> 745 186<461 1110> 1405 202<461 1205>
VStem: 156 305<199 745 931 1405>
LayerCount: 2
Fore
SplineSet
156 0 m 1
 156 1607 l 1
 1205 1607 l 1
 1205 1405 l 1
 461 1405 l 1
 461 931 l 1
 1110 931 l 1
 1110 745 l 1
 461 745 l 1
 461 199 l 1
 1216 199 l 1
 1216 0 l 1
 156 0 l 1
EndSplineSet
EndChar

StartChar: F
Encoding: 70 70 43
Width: 1219
GlyphClass: 2
Flags: HW
HStem: 0 21G<156 461> 739 186<461 1114> 1405 202<461 1192>
VStem: 156 305<0 739 925 1405>
LayerCount: 2
Fore
SplineSet
461 0 m 1
 156 0 l 1
 156 1607 l 1
 1192 1607 l 1
 1192 1405 l 1
 461 1405 l 1
 461 925 l 1
 1114 925 l 1
 1114 739 l 1
 461 739 l 1
 461 0 l 1
EndSplineSet
EndChar

StartChar: G
Encoding: 71 71 44
Width: 1561
GlyphClass: 2
Flags: HW
HStem: -34 225<625.75 1026.27> 0 21G<1231.74 1420> 679 188<764 1150> 1411 225<654.11 1088.37>
VStem: 105 308<458.525 1117.22> 1150 270<281.141 679>
LayerCount: 2
Fore
SplineSet
804 191 m 0
 967 191 1101 233 1150 347 c 1
 1150 679 l 1
 764 679 l 1
 764 867 l 1
 1420 867 l 1
 1420 0 l 1
 1238 0 l 1
 1187 163 l 1
 1134 25 970 -34 777 -34 c 0
 307 -34 105 314 105 790 c 0
 105 1302 342 1636 850 1636 c 0
 1051 1636 1209 1587 1325 1504 c 1
 1233 1298 l 1
 1131 1357 1008 1411 850 1411 c 0
 527 1411 413 1145 413 791 c 0
 413 475 493 191 804 191 c 0
EndSplineSet
EndChar

StartChar: H
Encoding: 72 72 45
Width: 1601
GlyphClass: 2
Flags: HW
HStem: 0 21G<156 462 1139 1444> 741 185<462 1139> 1587 20G<156 462 1139 1444>
VStem: 156 306<0 741 926 1607> 1139 305<0 741 926 1607>
LayerCount: 2
Fore
SplineSet
1139 741 m 1
 462 741 l 1
 462 0 l 1
 156 0 l 1
 156 1607 l 1
 462 1607 l 1
 462 926 l 1
 1139 926 l 1
 1139 1607 l 1
 1444 1607 l 1
 1444 0 l 1
 1139 0 l 1
 1139 741 l 1
EndSplineSet
EndChar

StartChar: I
Encoding: 73 73 46
Width: 846
GlyphClass: 2
Flags: HW
HStem: 0 150<87 273 574 763> 1454 153<87 273 574 763>
VStem: 273 301<150 1454>
LayerCount: 2
Fore
SplineSet
273 150 m 1
 273 1454 l 1
 87 1454 l 1
 87 1607 l 1
 763 1607 l 1
 763 1454 l 1
 574 1454 l 1
 574 150 l 1
 763 150 l 1
 763 0 l 1
 87 0 l 1
 87 150 l 1
 273 150 l 1
EndSplineSet
EndChar

StartChar: J
Encoding: 74 74 47
Width: 826
GlyphClass: 2
Flags: HW
HStem: -89 198<111.352 205.724> 1587 20G<365 670>
VStem: 365 305<250.385 1607>
LayerCount: 2
Fore
SplineSet
39 109 m 1
 278 147 365 228 365 504 c 2
 365 1607 l 1
 670 1607 l 1
 670 519 l 2
 670 113 506 -69 117 -89 c 1
 39 109 l 1
EndSplineSet
EndChar

StartChar: K
Encoding: 75 75 48
Width: 1469
GlyphClass: 2
Flags: HW
HStem: 0 21G<156 462 1092.58 1450> 713 182<462 593> 1587 20G<156 462 1053.91 1389>
VStem: 156 306<0 713 895 1607> 1067 322<1285 1607> 1107 343<0 343>
DStem2: 843 809 593 713 0.600158 -0.799881<0 805.546>
LayerCount: 2
Fore
SplineSet
462 0 m 1
 156 0 l 1
 156 1607 l 1
 462 1607 l 1
 462 895 l 1
 601 895 l 1
 1067 1607 l 1
 1389 1607 l 1
 843 809 l 1
 1450 0 l 1
 1107 0 l 1
 593 713 l 1
 462 713 l 1
 462 0 l 1
EndSplineSet
EndChar

StartChar: L
Encoding: 76 76 49
Width: 1216
GlyphClass: 2
Flags: HW
HStem: 0 202<461 1181> 1587 20G<156 461>
VStem: 156 305<202 1607>
LayerCount: 2
Fore
SplineSet
156 0 m 1
 156 1607 l 1
 461 1607 l 1
 461 202 l 1
 1181 202 l 1
 1181 0 l 1
 156 0 l 1
EndSplineSet
EndChar

StartChar: M
Encoding: 77 77 50
Width: 1987
GlyphClass: 2
Flags: HW
HStem: 0 21G<156 423 842.206 1146.76 1564 1831> 1587 20G<156 563.792 1423.07 1831>
VStem: 156 267<0 1254> 1564 267<0 1254>
DStem2: 557 1607 423 1254 0.321582 -0.946882<291.157 1343.36> 989 335 1140 0 0.32757 0.944827<0 1056.65>
LayerCount: 2
Fore
SplineSet
423 1254 m 1
 423 0 l 1
 156 0 l 1
 156 1607 l 1
 557 1607 l 1
 989 335 l 1
 1430 1607 l 1
 1831 1607 l 1
 1831 0 l 1
 1564 0 l 1
 1564 1254 l 1
 1140 0 l 1
 849 0 l 1
 423 1254 l 1
EndSplineSet
EndChar

StartChar: N
Encoding: 78 78 51
Width: 1651
GlyphClass: 2
Flags: HW
HStem: 0 21G<156 436 1148.18 1495> 1587 20G<156 515.733 1215 1495>
VStem: 156 280<0 1225> 1215 280<395 1607>
DStem2: 504 1607 436 1225 0.5088 -0.860885<294.259 1405.15>
LayerCount: 2
Fore
SplineSet
1160 0 m 1
 436 1225 l 1
 436 0 l 1
 156 0 l 1
 156 1607 l 1
 504 1607 l 1
 1215 395 l 1
 1215 1607 l 1
 1495 1607 l 1
 1495 0 l 1
 1160 0 l 1
EndSplineSet
EndChar

StartChar: O
Encoding: 79 79 52
Width: 1611
GlyphClass: 2
Flags: HW
HStem: -35 227<620.29 989.003> 1411 224<622.018 989.934>
VStem: 104 309<455.373 1146.58> 1199 308<458.447 1143.76>
LayerCount: 2
Fore
SplineSet
805 1635 m 0
 1297 1635 1507 1305 1507 810 c 0
 1507 307 1310 -35 805 -35 c 0
 298 -35 104 312 104 819 c 0
 104 1309 318 1635 805 1635 c 0
808 1411 m 0
 486 1411 413 1126 413 798 c 0
 413 476 488 192 805 192 c 0
 1123 192 1199 474 1199 798 c 0
 1199 1123 1126 1411 808 1411 c 0
EndSplineSet
EndChar

StartChar: P
Encoding: 80 80 53
Width: 1391
GlyphClass: 2
Flags: HW
HStem: 0 21G<156 462> 597 194<462 867.974> 1405 202<462 885.657>
VStem: 156 306<0 597 791 1405> 1030 307<923.464 1272.27>
LayerCount: 2
Fore
SplineSet
598 1607 m 2
 1013 1607 1333 1506 1337 1095 c 1
 1337 677 993 597 568 597 c 2
 462 597 l 1
 462 0 l 1
 156 0 l 1
 156 1607 l 1
 598 1607 l 2
1030 1083 m 0
 1030 1349 861 1405 596 1405 c 2
 462 1405 l 1
 462 791 l 1
 559 791 l 2
 812 791 1030 834 1030 1083 c 0
EndSplineSet
EndChar

StartChar: Q
Encoding: 81 81 54
Width: 1618
GlyphClass: 2
Flags: HW
HStem: 1411 225<622.631 993.244>
VStem: 105 308<455.635 1143.92> 1205 308<459.269 1140.76>
LayerCount: 2
Fore
SplineSet
803 1636 m 0
 1305 1636 1513 1303 1513 797 c 0
 1513 358 1350 49 979 -18 c 1
 1309 -262 l 1
 1154 -429 l 1
 675 -24 l 1
 274 29 105 354 105 805 c 0
 105 1294 315 1636 803 1636 c 0
1205 801 m 256
 1205 1122 1129 1411 809 1411 c 0
 488 1411 413 1125 413 801 c 0
 413 476 487 191 809 191 c 0
 1130 191 1205 480 1205 801 c 256
EndSplineSet
EndChar

StartChar: R
Encoding: 82 82 55
Width: 1463
GlyphClass: 2
Flags: HW
HStem: 0 21G<156 462 1046 1349> 711 189<462 888.026> 1405 202<462 927.798>
VStem: 156 306<0 711 900 1405> 1046 303<0 593.844 1033.66 1297.42>
LayerCount: 2
Fore
SplineSet
1034 1168 m 0
 1034 1395 827 1405 598 1405 c 2
 462 1405 l 1
 462 900 l 1
 608 900 l 2
 839 900 1034 943 1034 1168 c 0
1343 1201 m 0
 1343 924 1158 813 889 805 c 1
 1151 776 1349 683 1349 395 c 2
 1349 0 l 1
 1046 0 l 1
 1046 416 l 2
 1046 675 865 711 606 711 c 2
 462 711 l 1
 462 0 l 1
 156 0 l 1
 156 1607 l 1
 601 1607 l 2
 980 1607 1343 1564 1343 1201 c 0
EndSplineSet
EndChar

StartChar: S
Encoding: 83 83 56
Width: 1325
GlyphClass: 2
Flags: HW
HStem: -34 230<395.318 876.45> 1411 225<452.387 940.818>
VStem: 85 287<1108.89 1337.38> 955 291<268.193 541.429>
DStem2: 301 273 284 35 0.945433 -0.325815<-106.916 367.316> 524 1047 413 778 0.929019 -0.370033<-164.834 561.11>
LayerCount: 2
Fore
SplineSet
686 1411 m 0
 522 1411 372 1381 372 1218 c 0
 372 1117 445 1075 524 1047 c 1
 869 915 l 2
 1067 839 1246 714 1246 443 c 0
 1246 106 1003 -34 658 -34 c 0
 443 -34 268 28 127 104 c 1
 182 323 l 1
 273.593040742 279.763533563 511.151421772 191.216318477 698.951600521 191.216318477 c 0
 841.26196875 191.216318477 955 242.062224317 955 402 c 0
 955 535 875 597 767 637 c 1
 413 778 l 1
 242 845 85 962 85 1196 c 0
 85 1504 342 1636 650 1636 c 0
 861 1636 1045 1580 1175 1503 c 1
 1111 1295 l 1
 1009 1356 848 1411 686 1411 c 0
EndSplineSet
EndChar

StartChar: T
Encoding: 84 84 57
Width: 1214
GlyphClass: 2
Flags: HW
HStem: 0 21G<455 761> 1405 202<19 455 761 1191>
VStem: 455 306<0 1405>
LayerCount: 2
Fore
SplineSet
761 1405 m 1
 761 0 l 1
 455 0 l 1
 455 1405 l 1
 19 1405 l 1
 19 1607 l 1
 1191 1607 l 1
 1191 1405 l 1
 761 1405 l 1
EndSplineSet
EndChar

StartChar: U
Encoding: 85 85 58
Width: 1589
GlyphClass: 2
Flags: HW
HStem: -34 225<598.186 991.717> 1587 20G<140 446 1140 1446>
VStem: 140 306<368.113 1607> 1140 306<371.666 1607>
LayerCount: 2
Fore
SplineSet
446 729 m 2
 446 417 483 191 793 191 c 0
 1109 191 1140 412 1140 729 c 2
 1140 1607 l 1
 1446 1607 l 1
 1446 733 l 2
 1446 253 1275 -34 797 -34 c 0
 312 -34 140 248 140 733 c 2
 140 1607 l 1
 446 1607 l 1
 446 729 l 2
EndSplineSet
EndChar

StartChar: V
Encoding: 86 86 59
Width: 1413
GlyphClass: 2
Flags: HW
HStem: 0 21G<538.752 874.248> 1587 20G<43 335.209 1075.91 1370>
VStem: 43 286<1321 1607> 1082 288<1319 1607>
DStem2: 329 1607 43 1607 0.298174 -0.954512<0 1281.63> 709 383 868 0 0.298174 0.954512<0 1279.54>
LayerCount: 2
Fore
SplineSet
709 383 m 1
 1082 1607 l 1
 1370 1607 l 1
 868 0 l 1
 545 0 l 1
 43 1607 l 1
 329 1607 l 1
 709 383 l 1
EndSplineSet
EndChar

StartChar: W
Encoding: 87 87 60
Width: 2028
GlyphClass: 2
Flags: HW
HStem: -2 21G<383.681 754.931 1257.31 1642.33> 1587 20G<41 339.997 833.144 1192.86 1686.99 1986>
VStem: 41 295<1312 1607> 1691 295<1312 1607>
DStem2: 336 1607 41 1607 0.211066 -0.977472<0 1301.08> 591 331 751 0 0.192871 0.981224<0 1069.68> 1189 1607 1014 1338 0.181275 -0.983433<232.82 1299.45> 1435 331 1638 -2 0.211396 0.977401<0 1301.28>
LayerCount: 2
Fore
SplineSet
1189 1607 m 1
 1435 331 l 1
 1691 1607 l 1
 1986 1607 l 1
 1638 -2 l 1
 1261 -2 l 1
 1014 1338 l 1
 751 0 l 1
 388 0 l 1
 41 1607 l 1
 336 1607 l 1
 591 331 l 1
 837 1607 l 1
 1189 1607 l 1
EndSplineSet
EndChar

StartChar: X
Encoding: 88 88 61
Width: 1374
GlyphClass: 2
Flags: HW
HStem: 0 21G<19 360.194 1013.81 1355> 1587 20G<20 347.18 1027.79 1354>
VStem: 19 329<0 329 1278 1607> 1026 329<0 329 1278 1607>
DStem2: 19 0 348 0 0.530615 0.847613<174.572 825.724 1226.64 1903.87> 335 1607 20 1607 0.535889 -0.844288<0 676.632 1075.98 1727.07>
LayerCount: 2
Fore
SplineSet
1040 1607 m 1
 1354 1607 l 1
 858 805 l 1
 1355 0 l 1
 1026 0 l 1
 687 556 l 1
 348 0 l 1
 19 0 l 1
 516 805 l 1
 20 1607 l 1
 335 1607 l 1
 687 1029 l 1
 1040 1607 l 1
EndSplineSet
EndChar

StartChar: Y
Encoding: 89 89 62
Width: 1291
GlyphClass: 2
Flags: HW
HStem: 0 21G<498 789> 1587 20G<-19 296.215 992.811 1310>
VStem: 498 291<0 514>
DStem2: 287 1607 -19 1607 0.427589 -0.903973<0 855.464> 645 830 789 514 0.430286 0.902693<0 855.004>
LayerCount: 2
Fore
SplineSet
1002 1607 m 1
 1310 1607 l 1
 789 514 l 1
 789 0 l 1
 498 0 l 1
 498 514 l 1
 -19 1607 l 1
 287 1607 l 1
 645 830 l 1
 1002 1607 l 1
EndSplineSet
EndChar

StartChar: Z
Encoding: 90 90 63
Width: 1250
GlyphClass: 2
Flags: HW
HStem: 0 202<412 1176> 1405 202<78 843>
DStem2: 78 214 412 202 0.535102 0.844787<168.587 1415.49>
LayerCount: 2
Fore
SplineSet
1174 1405 m 1
 412 202 l 1
 1176 202 l 1
 1176 0 l 1
 78 0 l 1
 78 214 l 1
 843 1405 l 1
 78 1405 l 1
 78 1607 l 1
 1174 1607 l 1
 1174 1405 l 1
EndSplineSet
EndChar

StartChar: bracketleft
Encoding: 91 91 64
Width: 1137
GlyphClass: 2
Flags: HW
HStem: 0 202<532 978> 1405 202<532 978>
VStem: 249 283<202 1405>
LayerCount: 2
Fore
SplineSet
978 1607 m 1
 978 1405 l 1
 532 1405 l 1
 532 202 l 1
 978 202 l 1
 978 0 l 1
 249 0 l 1
 249 1607 l 1
 978 1607 l 1
EndSplineSet
EndChar

StartChar: backslash
Encoding: 92 92 65
Width: 1142
GlyphClass: 2
Flags: HW
DStem2: 411 1733 149 1647 0.316228 -0.948683<0 1900.85>
LayerCount: 2
Fore
SplineSet
1013 -70 m 1
 751 -159 l 1
 149 1647 l 1
 411 1733 l 1
 1013 -70 l 1
EndSplineSet
EndChar

StartChar: bracketright
Encoding: 93 93 66
Width: 1161
GlyphClass: 2
Flags: HW
HStem: 0 202<206 651> 1405 202<206 651>
VStem: 651 284<202 1405>
LayerCount: 2
Fore
SplineSet
935 1607 m 1
 935 0 l 1
 206 0 l 1
 206 202 l 1
 651 202 l 1
 651 1405 l 1
 206 1405 l 1
 206 1607 l 1
 935 1607 l 1
EndSplineSet
EndChar

StartChar: asciicircum
Encoding: 94 94 67
Width: 1331
GlyphClass: 2
Flags: HW
HStem: 521 614
LayerCount: 2
Fore
SplineSet
763 1135 m 1
 1039 552 l 1
 819 521 l 1
 664 909 l 1
 510 521 l 1
 291 552 l 1
 568 1135 l 1
 763 1135 l 1
EndSplineSet
EndChar

StartChar: underscore
Encoding: 95 95 68
Width: 1204
GlyphClass: 2
Flags: HW
HStem: -105 220<92 1084>
LayerCount: 2
Fore
SplineSet
92 -105 m 1
 92 115 l 1
 1084 115 l 1
 1084 -105 l 1
 92 -105 l 1
EndSplineSet
EndChar

StartChar: grave
Encoding: 96 96 69
Width: 844
GlyphClass: 2
Flags: HW
VStem: 181 476
LayerCount: 2
Fore
SplineSet
181 776 m 1
 470 901 l 1
 657 275 l 1
 533 218 l 1
 181 776 l 1
EndSplineSet
EndChar

StartChar: a
Encoding: 97 97 70
Width: 1244
GlyphClass: 2
Flags: HW
HStem: -24 201<433.81 696.315> 0 21G<881.122 1110> 561 148<427.592 664.754 667.502 819> 574 161<444.629 750.5> 1016 199<365.443 762.544>
VStem: 85 293<232.469 511.833> 819 291<258.469 561 709 960.249>
LayerCount: 2
Fore
SplineSet
819 709 m 1
 819 897 806 1016 617 1016 c 0
 466 1016 340 971 239 912 c 1
 160 1094 l 1
 285 1168 425 1215 624 1215 c 0
 993 1215 1110 1035 1110 666 c 2
 1110 0 l 1
 886 0 l 1
 846 164 l 1
 769 47 672 -24 494 -24 c 0
 239 -24 85 106 85 360 c 0
 85 615 280 725 528 735 c 1
 634 735 741 724 819 709 c 1
378 382 m 0
 378 248 441 177 569 177 c 0
 683 177 757 233 819 300 c 1
 819 561 l 1
 799 561 772 566 750 568 c 130
 706 572 l 130
 691 573 678 574 667 574 c 0
 502 574 378 545 378 382 c 0
EndSplineSet
EndChar

StartChar: b
Encoding: 98 98 71
Width: 1325
GlyphClass: 2
Flags: HW
HStem: -24 201<565.381 842.169> 0 21G<154 367.667> 1016 199<583.108 861.319> 1692 20G<313.273 446>
VStem: 154 292<252.022 926.015 1067 1668> 953 283<314.125 903.297>
LayerCount: 2
Fore
SplineSet
446 292 m 1
 515 223 591 177 713 177 c 0
 910 177 953 376 953 608 c 0
 953 815 929 1016 732 1016 c 0
 607 1016 524 960 446 890 c 1
 446 292 l 1
1247.91558863 616.138874812 m 0
 1247.91558863 269.695868141 1113.34500759 -24 759 -24 c 0
 589 -24 479 56 419 174 c 1
 361 0 l 1
 154 0 l 1
 154 1668 l 1
 446 1712 l 1
 446 1067 l 1
 521 1149 633 1215 773 1215 c 0
 1091.67424946 1215 1247.91558863 933.375705011 1247.91558863 616.138874812 c 0
EndSplineSet
EndChar

StartChar: c
Encoding: 99 99 72
Width: 1104
GlyphClass: 2
Flags: HW
HStem: -24 201<523.848 885.85> 1016 199<523.726 883.025>
VStem: 85 294<342.081 849.154>
LayerCount: 2
Fore
SplineSet
1041 91 m 1
 945 22 821 -24 653 -24 c 0
 281 -24 85 217 85 585 c 0
 85 949 291 1215 656 1215 c 0
 822 1215 946 1174 1041 1105 c 1
 978 912 l 1
 909 969 810 1016 686 1016 c 1
 450 1005 379 840 379 591 c 0
 379 348 465 177 691 177 c 0
 822 177 905 225 978 283 c 1
 1041 91 l 1
EndSplineSet
EndChar

StartChar: d
Encoding: 100 100 73
Width: 1323
GlyphClass: 2
Flags: HW
HStem: -24 201<485.041 746.786> 0 21G<960.333 1176> 1016 199<470.735 747.075> 1692 20G<1043.27 1176>
VStem: 85 290<314.015 894.552> 884 292<248.647 923.906 1057 1668>
LayerCount: 2
Fore
SplineSet
597 1016 m 0
 398 1016 375 801 375 596 c 0
 375 383 415 177 619 177 c 0
 737 177 827 224 884 293 c 1
 884 890 l 1
 806 953 720 1016 597 1016 c 0
85 629 m 0
 85 937 237 1215 541 1215 c 0
 702 1215 808 1153 884 1057 c 1
 884 1668 l 1
 1176 1712 l 1
 1176 0 l 1
 967 0 l 1
 909 174 l 1
 853 65 726 -24 565 -24 c 0
 208 -24 85 271 85 629 c 0
EndSplineSet
EndChar

StartChar: e
Encoding: 101 101 74
Width: 1203
GlyphClass: 2
Flags: HW
HStem: -24 201<521.18 901.777> 537 153<384 877> 1016 199<506.777 780.365>
VStem: 85 299<322.756 537 690 855.63> 877 243<690 911.579>
LayerCount: 2
Fore
SplineSet
693 177 m 0
 829 177 914 218 997 281 c 1
 1063 84 l 1
 961 23 826 -24 670 -24 c 0
 299 -24 85 198 85 568 c 0
 85 944 264 1215 638 1215 c 0
 957 1215 1120 1005 1120 685 c 0
 1120 634 1119 585 1117 537 c 1
 384 537 l 1
 386 316 482 177 693 177 c 0
877 704 m 2
 877 887 812 1013 645 1016 c 1
 466 1010 391 867 383 690 c 1
 877 690 l 1
 877 704 l 2
EndSplineSet
EndChar

StartChar: f
Encoding: 102 102 75
Width: 854
GlyphClass: 2
Flags: HW
HStem: 0 21G<219 512> 1053 132<24 219 512 824> 1494 217<558.643 824.247>
VStem: 219 293<0 1053 1185 1448.42>
LayerCount: 2
Fore
SplineSet
820 1453 m 1
 774 1470 716 1494 656 1494 c 0
 512.972789116 1494 511.999814892 1338.32412421 511.999814892 1191.08731056 c 2
 512 1185 l 1
 824 1185 l 1
 824 1053 l 1
 512 1053 l 1
 512 0 l 1
 219 0 l 1
 219 1053 l 1
 24 1053 l 1
 24 1185 l 1
 219 1185 l 1
 219 1501 304 1711 597 1711 c 0
 697 1711 777 1691 845 1661 c 1
 820 1453 l 1
EndSplineSet
EndChar

StartChar: g
Encoding: 103 103 76
Width: 1280
GlyphClass: 2
Flags: HW
HStem: -516 217<379.108 894.361> 1018 197<462.007 796.864 1018.55 1266>
VStem: 98 236<-252.994 -23.5132> 133 234<304.893 407.879> 152 257<679.744 964.775> 845 245<694.39 969.692> 967 254<-234.039 -8.96826>
LayerCount: 2
Fore
SplineSet
478 69 m 1
 406.270255403 29.5486404716 331.829210397 -52.2593202302 331.829210397 -159.099312146 c 0
 331.829210397 -266.23926974 451.454483489 -299 582 -299 c 0
 779 -299 967 -298 967 -110 c 0
 967 89 675 57 478 69 c 1
631 1018 m 0
 489 1018 409 971 409 828 c 0
 409 717 467 640 541 602 c 1
 663 615 l 1
 773 633 845 712 845 841 c 0
 845 975 769 1018 631 1018 c 0
910 1148 m 1
 999 1190 1089 1207 1222 1207 c 2
 1266 1207 l 1
 1266 1008 l 1
 1018 1008 l 1
 1054 962 1090 916 1090 849 c 0
 1090 595 928 478 695 449 c 1
 367 406 l 1
 386 272 l 1
 667 260 l 1
 965 245 1221 188 1221 -117 c 0
 1221 -448 920 -516 582 -516 c 0
 299 -516 98 -443 98 -164 c 0
 98 -21 204 59 303 106 c 1
 175 124 140 214 133 356 c 1
 133 502 255 528 374 556 c 1
 240 573 152 678 152 831 c 0
 152 1093 348 1215 613 1215 c 0
 737 1215 838 1197 910 1148 c 1
EndSplineSet
EndChar

StartChar: h
Encoding: 104 104 77
Width: 1350
GlyphClass: 2
Flags: HW
HStem: 0 21G<154 446 922 1214> 1016 199<593.125 849.995> 1694 20G<333.692 446>
VStem: 154 292<0 941.624 1049 1662> 922 292<0 934.645>
LayerCount: 2
Fore
SplineSet
729 1016 m 0
 596 1016 511 967 446 902 c 1
 446 0 l 1
 154 0 l 1
 154 1662 l 1
 446 1714 l 1
 446 1049 l 1
 532 1150 628 1215 796 1215 c 0
 1108 1215 1214 1008 1214 696 c 2
 1214 0 l 1
 922 0 l 1
 922 711 l 2
 922 882 883 1016 729 1016 c 0
EndSplineSet
EndChar

StartChar: i
Encoding: 105 105 78
Width: 649
GlyphClass: 2
Flags: HW
HStem: 0 21G<179 468> 1165 20G<179 468> 1412 332<212.625 437.658>
VStem: 161 329<1464.78 1691.94> 179 289<0 1185 1445.81 1708.63>
LayerCount: 2
Fore
SplineSet
179 0 m 1
 179 1185 l 1
 468 1185 l 1
 468 0 l 1
 179 0 l 1
325 1412 m 0
 228 1412 161 1481 161 1578 c 0
 161 1672 230 1744 325 1744 c 256
 420 1744 490 1673 490 1578 c 0
 490 1483 419 1412 325 1412 c 0
EndSplineSet
EndChar

StartChar: j
Encoding: 106 106 79
Width: 656
GlyphClass: 2
Flags: HW
HStem: 1165 20G<206 500> 1410 332<240.391 462.781>
VStem: 191 322<1460.21 1691.37> 206 294<-6.23535 1185>
LayerCount: 2
Fore
SplineSet
352 1410 m 0
 256 1410 191 1480 191 1576 c 0
 191 1672 257 1742 352 1742 c 256
 446 1742 513 1670 513 1576 c 0
 513 1481 447 1410 352 1410 c 0
2 -173 m 1
 149 -83 206 36 206 274 c 2
 206 1185 l 1
 500 1185 l 1
 500 187 l 2
 500 -107 328 -310 89 -364 c 1
 2 -173 l 1
EndSplineSet
EndChar

StartChar: k
Encoding: 107 107 80
Width: 1322
GlyphClass: 2
Flags: HW
HStem: 0 21G<154 446 938.726 1287> 1165 20G<921.29 1267> 1693 20G<316.222 446>
VStem: 154 292<0 436 706 1668> 942 325<860 1185> 954 333<0 333>
DStem2: 446 706 729 660 0.715701 0.698407<170.417 689.525>
LayerCount: 2
Fore
SplineSet
446 0 m 1
 154 0 l 1
 154 1668 l 1
 446 1713 l 1
 446 706 l 1
 942 1185 l 1
 1267 1185 l 1
 729 660 l 1
 1287 0 l 1
 954 0 l 1
 550 529 l 1
 446 436 l 1
 446 0 l 1
EndSplineSet
EndChar

StartChar: l
Encoding: 108 108 81
Width: 621
GlyphClass: 2
Flags: HW
HStem: 0 21G<163 457> 1692 20G<323.364 457>
VStem: 163 294<0 1668>
LayerCount: 2
Fore
SplineSet
457 0 m 1
 163 0 l 1
 163 1668 l 1
 457 1712 l 1
 457 0 l 1
EndSplineSet
EndChar

StartChar: m
Encoding: 109 109 82
Width: 1985
GlyphClass: 2
Flags: HW
HStem: 0 21G<154 446 853 1145 1556 1849> 1009 206<583.864 811.799> 1165 20G<154 369.114>
VStem: 154 292<0 905.642> 853 292<0 917.536> 1556 293<0 944.878>
LayerCount: 2
Fore
SplineSet
697.666666667 1011 m 0
 582.081851732 1011 505.419900074 928.886898334 446 858 c 1
 446 0 l 1
 154 0 l 1
 154 1185 l 1
 363 1185 l 1
 422 992 l 1
 485 1126 592 1215 775 1215 c 0
 945 1215 1044 1142 1096 1019 c 1
 1177 1136 1295 1215 1484 1215 c 0
 1740 1215 1849 1031 1849 773 c 2
 1849 0 l 1
 1556 0 l 1
 1556 790 l 2
 1556 917.771960737 1522.20118224 1014.28001504 1408.77729999 1014.28001504 c 0
 1284.9591274 1014.28001504 1216.17337043 948.268345363 1145 876 c 1
 1145 0 l 1
 853 0 l 1
 853 797 l 2
 853 928.675222406 822.679285356 1011 697.666666667 1011 c 0
EndSplineSet
EndChar

StartChar: n
Encoding: 110 110 83
Width: 1332
GlyphClass: 2
Flags: HW
HStem: 0 21G<154 446 903 1196> 1016 199<596.306 843.553> 1165 20G<154 380.071>
VStem: 154 292<0 926.495> 903 293<0 951.827>
LayerCount: 2
Fore
SplineSet
715 1016 m 0
 601 1016 495 948 446 881 c 1
 446 0 l 1
 154 0 l 1
 154 1185 l 1
 374 1185 l 1
 425 1017 l 1
 491 1126 617 1215 788 1215 c 0
 1087 1215 1196 1037 1196 737 c 2
 1196 0 l 1
 903 0 l 1
 903 752 l 2
 903 914 865 1016 715 1016 c 0
EndSplineSet
EndChar

StartChar: o
Encoding: 111 111 84
Width: 1299
GlyphClass: 2
Flags: HW
HStem: -31 199<499.505 796.04> 1010 200<500.151 795.568>
VStem: 82 290<318.639 857.805> 922 287<318.436 857.94>
LayerCount: 2
Fore
SplineSet
372 588 m 0
 372 368 426 168 647 168 c 0
 868 168 922 365 922 588 c 0
 922 811 868 1010 647 1010 c 256
 427 1010 372 810 372 588 c 0
646 1210 m 256
 1026 1210 1209 965 1209 587 c 0
 1209 210 1025 -31 646 -31 c 256
 267 -31 82 211 82 587 c 0
 82 965 266 1210 646 1210 c 256
EndSplineSet
EndChar

StartChar: p
Encoding: 112 112 85
Width: 1332
GlyphClass: 2
Flags: HW
HStem: -446 21G<154 446> -24 201<582.228 851.293> 1016 199<579.415 854.964> 1165 20G<154 381.243>
VStem: 154 292<-437 140 275.456 925.896> 956 291<309.577 884.647>
LayerCount: 2
Fore
SplineSet
956 577 m 0
 956 782 933 1016 736 1016 c 0
 615 1016 511 953 446 886 c 1
 446 314 l 1
 514 250 616 177 730 177 c 0
 917 177 956 389 956 577 c 0
1247 586 m 0
 1247 246 1093 -24 756 -24 c 0
 615 -24 511 53 446 140 c 1
 446 -437 l 1
 154 -446 l 1
 154 1185 l 1
 375 1185 l 1
 429 1012 l 1
 487 1128 599 1215 768 1215 c 0
 1116 1215 1247 955 1247 586 c 0
EndSplineSet
EndChar

StartChar: q
Encoding: 113 113 86
Width: 1323
GlyphClass: 2
Flags: HW
HStem: -452 21G<884 1176> -24 201<476.567 741.521> 1016 199<483.091 742.228> 1165 20G<930.114 1176>
VStem: 85 289<302.011 881.42> 884 292<-442 141 270.125 918.805>
LayerCount: 2
Fore
SplineSet
374 588 m 0
 374 386 405 177 605 177 c 0
 724 177 821 247 884 308 c 1
 884 870 l 1
 822 949 737 1016 614 1016 c 0
 406 1016 374 798 374 588 c 0
85 586 m 0
 85 950 210 1215 572 1215 c 0
 729 1215 831 1124 892 1009 c 1
 935 1185 l 1
 1176 1185 l 1
 1176 -442 l 1
 884 -452 l 1
 884 141 l 1
 812 55 712 -24 566 -24 c 0
 227 -24 85 247 85 586 c 0
EndSplineSet
EndChar

StartChar: r
Encoding: 114 114 87
Width: 852
GlyphClass: 2
Flags: HW
HStem: 0 21G<154 446> 956 234<572.286 819>
VStem: 154 292<0 874.267>
LayerCount: 2
Fore
SplineSet
708 956 m 0
 598 956 512 896 446 840 c 1
 446 0 l 1
 154 0 l 1
 154 1185 l 1
 397 1185 l 1
 433 994 l 1
 498 1101 584 1190 748 1190 c 128
 771 1190 795 1189 819 1188 c 1
 819 944 l 1
 793 955 747 956 708 956 c 0
EndSplineSet
EndChar

StartChar: s
Encoding: 115 115 88
Width: 1070
GlyphClass: 2
Flags: HW
HStem: -24 201<300.005 677.632> 1016 199<396.421 776.073>
VStem: 91 259<805.406 978.76> 721 271<220.781 417.166>
DStem2: 471 769 345 560 0.932829 -0.36032<-143.314 369.68>
LayerCount: 2
Fore
SplineSet
522 177 m 0
 638 177 721 216 721 332 c 0
 721 411 645 445 578 470 c 2
 345 560 l 1
 204 611 91 693 91 886 c 0
 91 1118 298 1215 534 1215 c 0
 686 1215 868 1176 957 1109 c 1
 891 921 l 1
 819 975 666 1016 545 1016 c 0
 433 1016 350 982 350 886 c 0
 350 811 415 791 471 769 c 1
 663 698 l 2
 823 638 992 558 992 345 c 0
 992 90 793 -24 536 -24 c 0
 369 -24 192 19 97 90 c 1
 163 281 l 1
 235 225 400 177 522 177 c 0
EndSplineSet
EndChar

StartChar: t
Encoding: 116 116 89
Width: 919
GlyphClass: 2
Flags: HW
HStem: -24 201<539.049 759.746> 1054 131<16 219 510 845> 1647 20G<431.714 510>
VStem: 219 291<228.575 1054 1185 1532.44> 236 274<1185 1597>
LayerCount: 2
Fore
SplineSet
889 72 m 1
 805 19 692 -24 553 -24 c 0
 281 -24 219 178 219 455 c 2
 219 1054 l 1
 16 1054 l 1
 16 1185 l 1
 226 1185 l 1
 236 1597 l 1
 510 1667 l 1
 510 1185 l 1
 845 1185 l 1
 845 1054 l 1
 510 1054 l 1
 510 377 l 2
 510 264 526 177 628 177 c 0
 697 177 758 219 812 251 c 1
 889 72 l 1
EndSplineSet
EndChar

StartChar: u
Encoding: 117 117 90
Width: 1311
GlyphClass: 2
Flags: HW
HStem: 0 21G<459.5 596 942.556 1159> 1165 20G<134 424 866 1159>
VStem: 134 290<270.526 1185> 866 293<257.727 1185>
LayerCount: 2
Fore
SplineSet
609.077831042 183.830653421 m 0
 726.768313391 183.830653421 800.230172171 232.3840288 866 297 c 1
 866 1185 l 1
 1159 1185 l 1
 1159 0 l 1
 949 0 l 1
 891 180 l 1
 840 64 733 -24 567 -24 c 0
 266 -24 134 143 134 454 c 2
 134 1185 l 1
 424 1185 l 1
 424 438 l 2
 424 288.301884813 463.577851005 183.830653421 609.077831042 183.830653421 c 0
EndSplineSet
EndChar

StartChar: v
Encoding: 118 118 91
Width: 1178
GlyphClass: 2
Flags: HW
HStem: 0 21G<414.232 763.802> 1165 20G<20 328.832 848.276 1160>
VStem: 20 303<882 1185> 854 306<879 1185>
LayerCount: 2
Fore
SplineSet
421 0 m 1
 20 1185 l 1
 323 1185 l 1
 591 266 l 1
 854 1185 l 1
 1160 1185 l 1
 757 0 l 1
 421 0 l 1
EndSplineSet
EndChar

StartChar: w
Encoding: 119 119 92
Width: 1634
GlyphClass: 2
Flags: HW
HStem: 0 21G<327.717 623.702 1010.25 1308.28> 1165 20G<20 299.105 678.587 958.325 1340.74 1616>
VStem: 1345 271<914 1185>
DStem2: 482 274 619 0 0.215455 0.976514<0 622.716> 954 1185 816 838 0.21136 -0.977408<309.993 932.057>
LayerCount: 2
Fore
SplineSet
816 838 m 1
 619 0 l 1
 333 0 l 1
 20 1185 l 1
 295 1185 l 1
 482 274 l 1
 683 1185 l 1
 954 1185 l 1
 1151 274 l 1
 1345 1185 l 1
 1616 1185 l 1
 1303 0 l 1
 1015 0 l 1
 816 838 l 1
EndSplineSet
EndChar

StartChar: x
Encoding: 120 120 93
Width: 1179
GlyphClass: 2
Flags: HW
HStem: 0 21G<39 373.436 811.614 1141> 1165 20G<32 373.877 812.123 1148>
LayerCount: 2
Fore
SplineSet
362 0 m 1
 39 0 l 1
 446 595 l 1
 32 1185 l 1
 362 1185 l 1
 593 796 l 1
 824 1185 l 1
 1148 1185 l 1
 741 595 l 1
 1141 0 l 1
 823 0 l 1
 593 404 l 1
 362 0 l 1
EndSplineSet
EndChar

StartChar: y
Encoding: 121 121 94
Width: 1181
GlyphClass: 2
Flags: HW
HStem: -473 197<226 318.07> 1165 20G<20 322.307 860.403 1163>
LayerCount: 2
Fore
SplineSet
20 1185 m 1
 315 1185 l 1
 627 331 l 1
 866 1185 l 1
 1163 1185 l 1
 744 -35 l 2
 664 -267 522 -473 226 -473 c 1
 145 -276 l 1
 364 -249 445 -157 499 36 c 1
 20 1185 l 1
EndSplineSet
EndChar

StartChar: z
Encoding: 122 122 95
Width: 1061
GlyphClass: 2
Flags: HW
HStem: 0 199<407 962> 986 199<120 664>
DStem2: 101 210 407 199 0.587241 0.809412<170.792 958.721>
LayerCount: 2
Fore
SplineSet
120 986 m 1
 120 1185 l 1
 955 1185 l 1
 955 977 l 1
 407 199 l 1
 962 199 l 1
 962 0 l 1
 101 0 l 1
 101 210 l 1
 664 986 l 1
 120 986 l 1
EndSplineSet
EndChar

StartChar: braceleft
Encoding: 123 123 96
Width: 856
GlyphClass: 2
Flags: HW
HStem: -213 184<610.191 725> 568 192<127 228.223> 1357 185<610.191 725>
VStem: 127 598
DStem2: 549.5 428 283 324 0.10537 -0.994433<-143.497 447.867>
LayerCount: 2
Fore
SplineSet
725 1357 m 1
 566 1357 562 1215 562 1045 c 1
 560 841 507 709 353 664 c 1
 506 614 561 485 563 283 c 1
 563 114 566 -29 725 -29 c 1
 725 -213 l 1
 376 -213 317 0 283 324 c 1
 274 449 255 568 127 568 c 1
 127 760 l 1
 341 760 271 1187 347 1338 c 128
 413 1471 531 1542 725 1542 c 1
 725 1357 l 1
EndSplineSet
EndChar

StartChar: bar
Encoding: 124 124 97
Width: 752
GlyphClass: 2
Flags: HW
HStem: 1689 20G<246 507>
VStem: 246 261<-135 1709>
LayerCount: 2
Fore
SplineSet
246 1709 m 1
 507 1709 l 1
 507 -135 l 1
 246 -135 l 1
 246 1709 l 1
EndSplineSet
EndChar

StartChar: braceright
Encoding: 125 125 98
Width: 858
GlyphClass: 2
Flags: HW
HStem: -213 184<149 264.067> 569 192<645.41 746> 1358 185<149 263.809>
VStem: 149 597
LayerCount: 2
Fore
SplineSet
521 665 m 1
 365 711 313 841 311 1046 c 1
 311 1208 309 1358 149 1358 c 1
 149 1543 l 1
 497 1543 557 1329 591 1006 c 1
 600 882 618 761 746 761 c 1
 746 569 l 1
 532 569 601 143 526 -8 c 128
 460 -141 343 -213 149 -213 c 1
 149 -29 l 1
 385 -29 280 387 362 538 c 128
 395 599 448 642 521 665 c 1
EndSplineSet
EndChar

StartChar: asciitilde
Encoding: 126 126 99
Width: 1106
GlyphClass: 2
Flags: HW
HStem: 286 193<611.181 790.123> 427 190<350.563 510.121>
VStem: 146 192<304 399.146> 798 199<508.396 587>
DStem2: 568.5 548 484 396.5 0.880349 -0.474326<-89.6228 182.523>
LayerCount: 2
Fore
SplineSet
997 587 m 1
 997 426 933 286 775 286 c 0
 629 286 543 375 438 418 c 128
 424 424 412 427 401 427 c 0
 343 427 338 374 338 304 c 1
 146 304 l 1
 146 489 204 617 371 617 c 0
 530 617 594 479 740 479 c 0
 795 479 798 528 798 587 c 1
 997 587 l 1
EndSplineSet
EndChar

StartChar: exclamdown
Encoding: 161 161 101
Width: 806
GlyphClass: 2
Flags: HW
HStem: -1 21G<249 578> 1264 320<302.292 538.288>
VStem: 260 318<1301.65 1544.28> 318 194<895.014 1130>
LayerCount: 2
Fore
SplineSet
578 -1 m 1
 249 -1 l 1
 318 1130 l 1
 512 1130 l 1
 578 -1 l 1
427 1264 m 0
 317 1264 260 1304 260 1415 c 0
 260 1535 310 1584 427 1584 c 0
 535 1584 578 1522 578 1415 c 0
 578 1313 528 1264 427 1264 c 0
EndSplineSet
EndChar

StartChar: cent
Encoding: 162 162 102
Width: 1133
GlyphClass: 2
Flags: HW
HStem: -17 215<527.375 630 771 938.713> 997 211<523.625 630 771 926.491>
VStem: 105 294<345.402 852.759> 630 141<-154 -13.4316 198 996 1204.02 1382>
LayerCount: 2
Fore
SplineSet
630 997 m 1
 452 966 399 802 399 594 c 0
 399 383 461 232 630 198 c 1
 630 997 l 1
1056 81 m 1
 984 42 881 -11 771 -11 c 1
 771 -154 l 1
 630 -154 l 1
 630 -17 l 1
 293 0 105 237 105 594 c 256
 105 945 301 1190 630 1208 c 1
 630 1382 l 1
 771 1382 l 1
 771 1202 l 1
 884 1189 979 1150 1061 1102 c 1
 998 910 l 1
 947 951 856 986 771 996 c 1
 771 192 l 1
 860 195 937 241 997 273 c 1
 1056 81 l 1
EndSplineSet
EndChar

StartChar: sterling
Encoding: 163 163 103
Width: 1195
GlyphClass: 2
Flags: HW
HStem: 0 199<447 1058> 595 133<188 320 584 994> 1128 218<531.499 899.75>
VStem: 205 272<817.097 1076.11> 345 239<375.288 595>
LayerCount: 2
Fore
SplineSet
584 595 m 1
 584 422 514 299 447 199 c 1
 1058 199 l 1
 1058 0 l 1
 201 0 l 1
 201 193 l 1
 276 280 345 436 345 595 c 1
 188 595 l 1
 188 724 l 1
 320 724 l 1
 260 779 205 872 205 988 c 0
 205 1246 415 1346 678 1346 c 0
 853 1346 984 1294 1088 1227 c 1
 991 1035 l 1
 914 1082 821 1128 697 1128 c 0
 563 1128 477 1082 477 953 c 0
 477 848 524 789 573 728 c 1
 994 728 l 1
 994 595 l 1
 584 595 l 1
EndSplineSet
EndChar

StartChar: currency
Encoding: 164 164 104
Width: 1409
GlyphClass: 2
Flags: HW
HStem: 557 165<556.868 847.595> 1278 167<571.786 863.382>
VStem: 266 166<847.446 1138.6> 988 166<862.241 1153.64>
DStem2: 271 1567 142 1438 0.707107 -0.707107<0 295.912 1125.34 1433.31> 142 554 271 424 0.707107 0.707107<0 286.888 1149.25 1433.31>
LayerCount: 2
Fore
SplineSet
696 557 m 0
 602 557 530 582 469 621 c 1
 271 424 l 1
 142 554 l 1
 337 749 l 1
 290 822 266 901 266 986 c 0
 266 1075 292 1158 344 1236 c 1
 142 1438 l 1
 271 1567 l 1
 474 1365 l 1
 551 1418 635 1445 726 1445 c 0
 811 1445 890 1422 962 1375 c 1
 1156 1567 l 1
 1285 1438 l 1
 1090 1243 l 1
 1133 1176 1154 1100 1154 1016 c 0
 1154 926 1127 842 1074 765 c 1
 1285 554 l 1
 1156 424 l 1
 944 636 l 1
 866 583 783 557 696 557 c 0
988 1008 m 0
 988 1159 870 1278 719 1278 c 0
 561 1278 432 1150 432 992 c 256
 432 838 552 722 706 722 c 0
 860 722 988 853 988 1008 c 0
EndSplineSet
EndChar

StartChar: yen
Encoding: 165 165 105
Width: 1300
GlyphClass: 2
Flags: HW
HStem: 0 816<104 1210> 404 114<190 510 804 1121> 636 116<190 421 891 1121> 1586 20G<-9 310.937 999.063 1324>
VStem: 512 290<0 404>
LayerCount: 2
Fore
SplineSet
1008 1606 m 1
 1324 1606 l 1
 891 752 l 1
 1121 752 l 1
 1121 636 l 1
 842 636 l 1
 804 518 l 1
 1121 518 l 1
 1121 404 l 1
 802 404 l 1
 802 0 l 1
 512 0 l 1
 512 404 l 1
 190 404 l 1
 190 518 l 1
 510 518 l 1
 473 636 l 1
 190 636 l 1
 190 752 l 1
 421 752 l 1
 -9 1606 l 1
 302 1606 l 1
 655 816 l 1
 1008 1606 l 1
EndSplineSet
EndChar

StartChar: brokenbar
Encoding: 166 166 106
Width: 722
GlyphClass: 2
Flags: HW
VStem: 239 266<-91 646 925 1662>
LayerCount: 2
Fore
SplineSet
239 1662 m 1
 505 1662 l 1
 505 925 l 1
 239 925 l 1
 239 1662 l 1
239 646 m 1
 505 646 l 1
 505 -91 l 1
 239 -91 l 1
 239 646 l 1
EndSplineSet
EndChar

StartChar: section
Encoding: 167 167 107
Width: 1171
GlyphClass: 2
Flags: HW
HStem: -107 206<379.792 736.319> 1397 206<401.897 769.465>
VStem: 157 219<673.848 855.115 1213.72 1367.2> 789 234<143.696 344.158 670.93 858.403>
LayerCount: 2
Fore
SplineSet
376 764 m 0
 376 662 467 640 584 640 c 0
 690 640 796 658 796 762 c 0
 796 868 704 889 584 889 c 0
 473 889 376 870 376 764 c 0
157 1306 m 0
 157 1514 359 1603 574 1603 c 0
 725 1603 899 1539 978 1460 c 1
 898 1281 l 1
 827 1336 706 1397 582 1397 c 0
 473 1397 378 1384 378 1282 c 0
 378 1223 439 1199 486 1181 c 1
 546 1156 608 1136 674 1112 c 0
 849 1050 1021 986 1021 761 c 0
 1021 619 924 547 808 521 c 1
 935 472 1023 387 1023 216 c 0
 1023 -21 815 -107 578 -107 c 0
 417 -107 248 -40 159 34 c 1
 243 223 l 1
 301 165 442 99 554 99 c 0
 684 99 789 126 789 243 c 0
 789 349 706 370 625 398 c 2
 463 454 l 1
 300 509 157 564 157 775 c 0
 157 917 252 995 376 1019 c 1
 247 1064 157 1135 157 1306 c 0
EndSplineSet
EndChar

StartChar: dieresis
Encoding: 168 168 108
Width: 1151
GlyphClass: 2
Flags: HW
HStem: 261 306<147.733 400.228 757.454 1009.25>
VStem: 109 330<299.344 528.656> 719 330<300.064 527.936>
LayerCount: 2
Fore
SplineSet
273 248 m 0
 176 248 109 317 109 414 c 256
 109 510 177 580 273 580 c 256
 369 580 439 510 439 414 c 0
 439 318 369 248 273 248 c 0
883 248 m 0
 785 248 719 317 719 414 c 256
 719 510 787 580 883 580 c 256
 978 580 1049 509 1049 414 c 0
 1049 319 978 248 883 248 c 0
EndSplineSet
EndChar

StartChar: copyright
Encoding: 169 169 109
Width: 2126
GlyphClass: 2
Flags: HW
HStem: -91 194<796.929 1319.02> 301 180<913.229 1295.73> 1152 181<917.343 1307.2> 1532 195<828.207 1307.48>
VStem: 149 218<545.328 1070.95> 597 211<592.913 1036.05> 1769 217<555.97 1070.71>
LayerCount: 2
Fore
SplineSet
367 815 m 0
 367 394 633 103 1056 103 c 256
 1480 103 1769 394 1769 815 c 0
 1769 1229 1475 1532 1068 1532 c 0
 657 1532 367 1224 367 815 c 0
1087 1152 m 0
 880 1152 808 1024 808 817 c 0
 808 600 879 481 1092 481 c 0
 1216 481 1304 525 1393 570 c 1
 1393 385 l 1
 1301 339 1219 301 1105 301 c 0
 769 301 597 491 597 823 c 0
 597 1143 772 1333 1095 1333 c 0
 1210 1333 1310 1293 1388 1252 c 1
 1388 1071 l 1
 1298 1117 1205 1152 1087 1152 c 0
1061 -91 m 0
 522 -91 149 284 149 818 c 256
 149 1356 538 1727 1068 1727 c 0
 1599 1727 1986 1345 1986 818 c 0
 1986 276 1596 -91 1061 -91 c 0
EndSplineSet
EndChar

StartChar: ordfeminine
Encoding: 170 170 110
Width: 1246
GlyphClass: 2
Flags: HW
HStem: 446 129<270 954> 668 113<407.339 701.412> 1158 100<435.062 797.408> 1513 125<375.453 752.234>
VStem: 206 161<821.783 1093.22> 799 161<855.555 1147.53 1218 1465.58> 844 116<686 761.397>
LayerCount: 2
Fore
SplineSet
263 1552 m 1
 349.929796087 1552 467.619251179 1638 599 1638 c 0
 874 1638 960 1511 960 1235 c 2
 960 686 l 1
 844 686 l 1
 817 828 l 1
 813 828 767 762 752 748 c 128
 701 703 625 668 523 668 c 0
 329 668 206 767 206 960 c 0
 206 1164 359 1258 565 1258 c 0
 625 1258 776 1253 799 1218 c 1
 799 1276 l 2
 799 1434 766 1513 607 1513 c 0
 505 1513 408 1486 340 1454 c 128
 324 1447 317 1443 316 1443 c 2
 263 1552 l 1
367 971 m 0
 367 831 421 781 561 781 c 256
 658 781 738 831 782 882 c 128
 793 895 799 902 799 903 c 2
 799 1141 l 1
 741 1150 684 1158 623 1158 c 0
 452 1158 367 1096 367 971 c 0
270 575 m 1
 954 575 l 1
 954 446 l 1
 270 446 l 1
 270 575 l 1
EndSplineSet
EndChar

StartChar: guillemotleft
Encoding: 171 171 111
Width: 1754
GlyphClass: 2
Flags: HW
HStem: 8 291<571 862 1311 1602> 870 291<571 862 1311 1602>
DStem2: 121 697 396 588 0.847548 0.530718<175.227 719.848> 396 588 121 473 0.847034 -0.531539<0 548.333> 861 697 1135 588 0.847548 0.530718<174.38 719.848> 1135 588 861 473 0.847034 -0.531539<0 549.18>
LayerCount: 2
Fore
SplineSet
1135 588 m 1
 1602 299 l 1
 1602 8 l 1
 861 473 l 1
 861 697 l 1
 1602 1161 l 1
 1602 870 l 1
 1135 588 l 1
396 588 m 1
 862 299 l 1
 862 8 l 1
 121 473 l 1
 121 697 l 1
 862 1161 l 1
 862 870 l 1
 396 588 l 1
EndSplineSet
EndChar

StartChar: logicalnot
Encoding: 172 172 112
Width: 1388
GlyphClass: 2
Flags: HW
HStem: 768 222<77 1045>
VStem: 1045 189<277 768>
LayerCount: 2
Fore
SplineSet
77 768 m 1
 77 990 l 1
 1234 990 l 1
 1234 277 l 1
 1045 277 l 1
 1045 768 l 1
 77 768 l 1
EndSplineSet
EndChar

StartChar: uni00AD
Encoding: 173 173 113
Width: 1038
GlyphClass: 2
Flags: HW
HStem: 558 214<158 836>
VStem: 158 678<558 772>
LayerCount: 2
Fore
SplineSet
158 558 m 1
 158 772 l 1
 836 772 l 1
 836 558 l 1
 158 558 l 1
EndSplineSet
EndChar

StartChar: registered
Encoding: 174 174 114
Width: 1378
GlyphClass: 2
Flags: HW
HStem: 573 123<480.644 918.671> 1145 102<627 662> 1426 101<627 813.911> 1696 126<482.435 918.899>
VStem: 50 145<980.087 1408.48> 500 124<873 1145 1247 1426> 1209 146<983.623 1407.57>
LayerCount: 2
Fore
SplineSet
702 573 m 0
 329 573 50 825 50 1197 c 0
 50 1564 331 1822 702 1822 c 0
 1071 1822 1355 1565 1355 1197 c 0
 1355 829 1072 573 702 573 c 0
195 1194 m 256
 195 896 402 696 701 696 c 256
 998 696 1209 900 1209 1195 c 0
 1209 1492 999 1696 701 1696 c 256
 402 1696 195 1491 195 1194 c 256
821.183649868 1354.44259747 m 0
 821.183649868 1424.27979666 724.692221515 1426.01972243 647.673365842 1426.01972243 c 0
 640.720233747 1426.01972243 633.810810811 1426 627 1426 c 1
 627 1247 l 1
 691 1247 l 2
 722 1247 737 1254 737 1285 c 1
 787.829734591 1290.75430958 821.183649868 1304.78663883 821.183649868 1354.44259747 c 0
949 1347 m 0
 949 1227 884 1187 780 1168 c 1
 958 912 l 1
 841 853 l 1
 662 1145 l 1
 624 1145 l 1
 624 873 l 1
 500 873 l 1
 500 1527 l 1
 639 1527 l 2
 795 1527 949 1501 949 1347 c 0
EndSplineSet
EndChar

StartChar: macron
Encoding: 175 175 115
Width: 1003
GlyphClass: 2
Flags: HW
HStem: 98 117<98 780>
LayerCount: 2
Fore
SplineSet
98 215 m 1
 780 215 l 1
 780 98 l 1
 98 98 l 1
 98 215 l 1
EndSplineSet
EndChar

StartChar: degree
Encoding: 176 176 116
Width: 819
GlyphClass: 2
Flags: HW
HStem: 720 65<293.063 520.883> 1195 64<293.388 518.835>
VStem: 123 76<870.78 1109.62> 613 76<868.915 1110.15>
LayerCount: 2
Fore
SplineSet
407 1195 m 0
 287 1195 199 1110 199 990 c 0
 199 870 286 785 407 785 c 256
 528 785 613 869 613 990 c 256
 613 1110 527 1195 407 1195 c 0
123 993 m 256
 123 1150 250 1259 407 1259 c 0
 567 1259 689 1148 689 987 c 256
 689 826 561 720 401 720 c 256
 244 720 123 836 123 993 c 256
EndSplineSet
EndChar

StartChar: plusminus
Encoding: 177 177 117
Width: 1158
GlyphClass: 2
Flags: HW
HStem: -22 197<222 993> 707 219<193 490 724 1022>
VStem: 490 234<351 707 926 1280>
LayerCount: 2
Fore
SplineSet
222 -22 m 1
 222 175 l 1
 993 175 l 1
 993 -22 l 1
 222 -22 l 1
724 707 m 1
 724 351 l 1
 490 351 l 1
 490 707 l 1
 193 707 l 1
 193 926 l 1
 490 926 l 1
 490 1280 l 1
 724 1280 l 1
 724 926 l 1
 1022 926 l 1
 1022 707 l 1
 724 707 l 1
EndSplineSet
EndChar

StartChar: uni00B2
Encoding: 178 178 118
Width: 1126
GlyphClass: 2
Flags: HW
HStem: 668 152<485 891> 1500 138<295.062 697.491>
VStem: 747 172<1222.41 1459.24>
DStem2: 354 1612 371 1474 0.978716 0.205218<-86.3479 183.034> 524 1045 485 820 0.744987 0.667079<-179.147 329.923>
LayerCount: 2
Fore
SplineSet
576 1638 m 0
 771 1638 919 1543 919 1357 c 0
 919 1169 786 1075 676 982 c 2
 485 820 l 1
 891 820 l 1
 891 668 l 1
 253 668 l 1
 253 805 l 1
 524 1045 l 2
 618 1128 747 1199 747 1354 c 0
 747 1454 670 1500 566 1500 c 0
 456 1500 357 1474 270 1448 c 1
 270 1586 l 1
 351 1620 458 1638 576 1638 c 0
EndSplineSet
EndChar

StartChar: uni00B3
Encoding: 179 179 119
Width: 1208
GlyphClass: 2
Flags: HW
HStem: 540 132<414.711 782.79> 1142 65<679 811> 1541 136<402.424 775.782>
VStem: 832 154<1274.25 1491.54> 851 166<737.132 983.917>
DStem2: 352.5 1622.5 426.5 1505.5 0.945934 0.324359<-23.7642 214.393>
LayerCount: 2
Fore
SplineSet
1017 835 m 0
 1017 632 830 540 628 540 c 0
 495 540 391 569 300 618 c 1
 351 745 l 1
 428 708 517 672 631 672 c 0
 753 672 851 733 851 853 c 0
 851 1002 740 1055 589 1072 c 1
 589 1207 l 1
 715 1207 832 1258 832 1383 c 0
 832 1500 738 1541 608 1541 c 0
 517 1541 438 1513 374 1484 c 1
 327 1611 l 1
 398 1647 503 1677 613 1677 c 0
 812 1677 986 1595 986 1394 c 0
 986 1250 878 1142 741 1142 c 1
 895 1111 1017 1021 1017 835 c 0
EndSplineSet
EndChar

StartChar: acute
Encoding: 180 180 120
Width: 1117
GlyphClass: 2
Flags: HW
HStem: 213 679
VStem: 449 475
LayerCount: 2
Fore
SplineSet
449 269 m 1
 638 892 l 1
 924 766 l 1
 569 213 l 1
 449 269 l 1
EndSplineSet
EndChar

StartChar: uni00B5
Encoding: 181 181 121
Width: 1320
GlyphClass: 2
Flags: HW
HStem: -20 143<457.493 805.168>
VStem: 185 174<-291 113 229.619 1169> 958 208<232.308 1169> 1020 146<16 107.989>
LayerCount: 2
Fore
SplineSet
599 -20 m 0
 483 -20 408 47 359 113 c 1
 359 -291 l 1
 185 -291 l 1
 185 1169 l 1
 359 1169 l 1
 359 442 l 2
 359 229 443 123 611 123 c 0
 760 123 892 194 958 274 c 1
 958 1169 l 1
 1166 1169 l 1
 1166 16 l 1
 1020 16 l 1
 996 170 l 1
 882 43 750 -20 599 -20 c 0
EndSplineSet
EndChar

StartChar: paragraph
Encoding: 182 182 122
Width: 1417
GlyphClass: 2
Flags: HW
HStem: 0 21G<641 877 1015 1247> 1457 149<877 1015>
VStem: 100 777<1013.88 1405.7> 641 236<0 801> 1015 232<0 1457>
LayerCount: 2
Fore
SplineSet
100 1214 m 0
 100 1535 366 1606 686 1606 c 2
 1247 1606 l 1
 1247 0 l 1
 1015 0 l 1
 1015 1457 l 1
 877 1457 l 1
 877 0 l 1
 641 0 l 1
 641 801 l 1
 332 801 100 905 100 1214 c 0
EndSplineSet
EndChar

StartChar: periodcentered
Encoding: 183 183 123
Width: 591
GlyphClass: 2
Flags: HW
HStem: 519 353<173.172 406.499>
VStem: 115 351<578.539 813.092>
LayerCount: 2
Fore
SplineSet
289 519 m 256
 188 519 115 595 115 696 c 256
 115 796 189 872 289 872 c 256
 390 872 466 797 466 696 c 256
 466 595 391 519 289 519 c 256
EndSplineSet
EndChar

StartChar: cedilla
Encoding: 184 184 124
Width: 637
GlyphClass: 2
Flags: HW
HStem: -642 137<112.096 398.42> -482 20G<102 121.5> -241 105<281 369.554>
VStem: 154 127<-136 45> 416 172<-487.52 -287.034>
LayerCount: 2
Fore
SplineSet
309 -642 m 0
 223 -642 160 -615 102 -593 c 1
 102 -462 l 1
 122 -468 l 1
 166 -483 226 -505 283 -505 c 0
 372 -505 416 -476 416 -386 c 0
 416 -261 297 -241 154 -241 c 1
 166 45 l 1
 288 45 l 1
 281 -136 l 1
 448 -136 588 -215 588 -385 c 0
 588 -553 482 -642 309 -642 c 0
EndSplineSet
EndChar

StartChar: uni00B9
Encoding: 185 185 125
Width: 740
GlyphClass: 2
Flags: HW
VStem: 327 169<478 1304>
DStem2: 119 1345 156 1232 0.928206 0.372066<0 177.812>
LayerCount: 2
Fore
SplineSet
327 1304 m 1
 156 1232 l 1
 119 1345 l 1
 356 1440 l 1
 496 1414 l 1
 496 478 l 1
 327 478 l 1
 327 1304 l 1
EndSplineSet
EndChar

StartChar: ordmasculine
Encoding: 186 186 126
Width: 1265
GlyphClass: 2
Flags: HW
HStem: 446 129<300 984> 670 127<488.239 788.38> 1512 126<487.766 787.675>
VStem: 214 157<928.244 1379.51> 905 158<927.281 1379.01>
LayerCount: 2
Fore
SplineSet
1063 1152 m 0
 1063 869 922 670 638 670 c 0
 354 670 214 869 214 1152 c 0
 214 1434 355 1638 638 1638 c 256
 921 1638 1063 1434 1063 1152 c 0
371 1154 m 256
 371 955 440 797 638 797 c 256
 837 797 905 954 905 1154 c 0
 905 1352 836 1512 638 1512 c 256
 439 1512 371 1353 371 1154 c 256
300 575 m 1
 984 575 l 1
 984 446 l 1
 300 446 l 1
 300 575 l 1
EndSplineSet
EndChar

StartChar: guillemotright
Encoding: 187 187 127
Width: 1780
GlyphClass: 2
Flags: HW
HStem: 8 291<172 463 911 1202> 870 291<172 463 911 1202>
DStem2: 172 299 172 8 0.847034 0.531539<0 556.803> 911 299 911 8 0.847356 0.531025<0 557.655>
LayerCount: 2
Fore
SplineSet
172 1161 m 1
 913 697 l 1
 913 473 l 1
 172 8 l 1
 172 299 l 1
 648 588 l 1
 172 870 l 1
 172 1161 l 1
911 1161 m 1
 1653 697 l 1
 1653 473 l 1
 911 8 l 1
 911 299 l 1
 1388 588 l 1
 911 870 l 1
 911 1161 l 1
EndSplineSet
EndChar

StartChar: onequarter
Encoding: 188 188 128
Width: 1947
GlyphClass: 2
Flags: HW
HStem: 73 171<1210 1474 1683 1829> 1198 21G<144.129 198.349>
VStem: 298 227<481 1261> 1478 205<-168 73 245 648>
DStem2: 369 -30 553 -115 0.487437 0.873158<15.47 1749.97> 957 217 1210 244 0.567321 0.823497<165.767 650.501>
LayerCount: 2
Fore
SplineSet
1478 244 m 1
 1478 648 l 1
 1210 244 l 1
 1478 244 l 1
1683 965 m 1
 1683 245 l 1
 1829 245 l 1
 1829 73 l 1
 1683 73 l 1
 1683 -168 l 1
 1474 -177 l 1
 1474 73 l 1
 987 73 l 1
 957 217 l 1
 1504 1011 l 1
 1683 965 l 1
1222 1498 m 1
 1410 1410 l 1
 553 -115 l 1
 369 -30 l 1
 1222 1498 l 1
298 1261 m 1
 152 1198 l 1
 91 1353 l 1
 362 1460 l 1
 525 1425 l 1
 525 481 l 1
 298 481 l 1
 298 1261 l 1
EndSplineSet
EndChar

StartChar: onehalf
Encoding: 189 189 129
Width: 2119
GlyphClass: 2
Flags: HW
HStem: -9 192<1607 1954> 781 186<1384.28 1706.77> 1198 21G<167 221.032>
VStem: 320 227<481 1261> 1747 233<538.622 750.801>
DStem2: 381 -30 565 -115 0.487437 0.873158<15.47 1749.97> 1267 884 1312 709 0.932235 0.361854<0 266.722> 1412 272.5 1607 183 0.754767 0.655993<88.4683 476.658>
LayerCount: 2
Fore
SplineSet
1613 967 m 0
 1814 967 1980 875 1980 678 c 0
 1980 495 1861 403 1755 312 c 1
 1607 183 l 1
 1954 183 l 1
 1954 -9 l 1
 1274 -9 l 1
 1274 153 l 1
 1411 272 1570 385 1688 521 c 128
 1718 556 1747 596 1747 654 c 0
 1747 744 1687 781 1594 781 c 0
 1493 781 1387 742 1312 709 c 1
 1267 884 l 1
 1368 925 1473 967 1613 967 c 0
320 1261 m 1
 175 1198 l 1
 113 1353 l 1
 385 1460 l 1
 547 1425 l 1
 547 481 l 1
 320 481 l 1
 320 1261 l 1
1234 1498 m 1
 1422 1410 l 1
 565 -115 l 1
 381 -30 l 1
 1234 1498 l 1
EndSplineSet
EndChar

StartChar: threequarters
Encoding: 190 190 130
Width: 2178
GlyphClass: 2
Flags: HW
HStem: 73 171<1428 1710 1907 2053> 469 180<231.981 586.428> 978 176<386 556.257> 1363 21G<203.909 227> 1421 183<246.268 573.615>
VStem: 619 215<1207.68 1389.87> 638 226<690.169 904.585> 1714 193<-168 73 244 654>
DStem2: 593 -30 777 -115 0.489474 0.872018<15.9416 1747.52> 1181 217 1428 244 0.567321 0.823497<162.363 662.25>
LayerCount: 2
Fore
SplineSet
1714 244 m 1
 1714 654 l 1
 1428 244 l 1
 1714 244 l 1
1907 965 m 1
 1907 244 l 1
 2053 244 l 1
 2053 73 l 1
 1907 73 l 1
 1907 -168 l 1
 1710 -177 l 1
 1710 73 l 1
 1210 73 l 1
 1181 217 l 1
 1728 1011 l 1
 1907 965 l 1
1441 1498 m 1
 1633 1410 l 1
 777 -115 l 1
 593 -30 l 1
 1441 1498 l 1
386 1154 m 1
 503 1154 616 1190 619 1303 c 1
 619 1391 543 1421 447 1421 c 0
 358 1421 278 1391 213 1363 c 1
 138 1528 l 1
 209 1572 321 1604 437 1604 c 0
 659 1604 834 1527 834 1304 c 0
 834 1175 744 1086 636 1067 c 1
 758 1040 864 942 864 792 c 0
 864 558 671 469 437 469 c 0
 323 469 216 496 136 533 c 1
 198 709 l 1
 260 675 354 649 449 649 c 0
 559 649 638 691 638 797 c 0
 638 926 512 971 386 978 c 1
 386 1154 l 1
EndSplineSet
EndChar

StartChar: questiondown
Encoding: 191 191 131
Width: 1209
GlyphClass: 2
Flags: HW
HStem: -65 233<468.498 933.255> 1243 328<658.043 853.534>
VStem: 122 285<225.958 475.847> 599 314<1303.04 1508.85> 631 270<827.172 1150>
LayerCount: 2
Fore
SplineSet
796 1571 m 1
 865 1541 913 1462 913 1363 c 1
 885 1294 813 1243 716 1243 c 1
 648 1274 599 1352 599 1451 c 1
 627 1520 700 1571 796 1571 c 1
901 705 m 1
 724 644 407 575 407 350 c 0
 407 197 526 168 679 168 c 256
 742 168 1026 211 1026 247 c 1
 1100 33 l 1
 985 -25 835 -65 660 -65 c 0
 367 -65 122 37 122 329 c 0
 122 627 386 767 631 841 c 1
 631 1150 l 1
 901 1150 l 1
 901 705 l 1
EndSplineSet
EndChar

StartChar: AE
Encoding: 198 198 138
Width: 1989
GlyphClass: 2
Flags: HW
HStem: 0 199<1221 1911> 364 155<554 932> 764 173<1221 1821> 1408 199<1220 1893>
VStem: 932 289<199 364 519 764 937 1408>
DStem2: 43 0 349 0 0.405558 0.914069<124.101 518.467 681.642 1115.25>
LayerCount: 2
Fore
SplineSet
932 1413 m 1
 554 519 l 1
 932 519 l 1
 932 1413 l 1
1893 1408 m 1
 1220 1408 l 1
 1220 937 l 1
 1821 937 l 1
 1821 764 l 1
 1221 764 l 1
 1221 199 l 1
 1911 199 l 1
 1911 0 l 1
 933 0 l 1
 933 364 l 1
 501 364 l 1
 349 0 l 1
 43 0 l 1
 756 1607 l 1
 1893 1607 l 1
 1893 1408 l 1
EndSplineSet
EndChar

StartChar: Eth
Encoding: 208 208 148
Width: 1559
GlyphClass: 2
Flags: HW
HStem: 0 199<466 912.344> 729 195<-2 161 466 723> 1414 193<466 905.242>
VStem: 161 305<199 729 924 1414> 1145 309<469.203 1139.45>
LayerCount: 2
Fore
SplineSet
619 199 m 2
 1032 199 1145 392 1145 800 c 0
 1145 1211 1034 1414 619 1414 c 2
 466 1414 l 1
 466 924 l 1
 723 924 l 1
 723 729 l 1
 466 729 l 1
 466 199 l 1
 619 199 l 2
691 1607 m 2
 1212 1607 1454 1319 1454 798 c 0
 1454 289 1203 0 691 0 c 2
 161 0 l 1
 161 729 l 1
 -2 729 l 1
 -2 924 l 1
 161 924 l 1
 161 1607 l 1
 691 1607 l 2
EndSplineSet
EndChar

StartChar: multiply
Encoding: 215 215 155
Width: 1361
GlyphClass: 2
Flags: HW
HStem: 404 311<543.5 854.5>
DStem2: 393 1011 240 847 0.719677 -0.694309<3.75622 416.767 649.942 1064.37> 240 272 393 108 0.719677 0.694309<0 413.705 646.88 1060.61>
LayerCount: 2
Fore
SplineSet
393 1011 m 1
 699 715 l 1
 1005 1011 l 1
 1159 847 l 1
 861 560 l 1
 1159 272 l 1
 1005 108 l 1
 699 404 l 1
 393 108 l 1
 240 272 l 1
 537 560 l 1
 240 847 l 1
 393 1011 l 1
EndSplineSet
EndChar

StartChar: Oslash
Encoding: 216 216 156
Width: 1612
GlyphClass: 2
Flags: HW
HStem: -34 225<667.181 992.587> 1411 225<620.464 993.316>
VStem: 105 308<556.53 1152.59> 1199 308<454.661 1149.63>
DStem2: 382 -121 506 -167 0.389304 0.921109<5.90274 184.315 442.773 1547.32 1847.31 2041.96>
LayerCount: 2
Fore
SplineSet
805 -34 m 0
 719 -34 642 -25 575 -4 c 1
 506 -167 l 1
 382 -121 l 1
 452 44 l 1
 212 168 105 433 105 801 c 0
 105 1301 314 1636 800 1636 c 0
 913 1636 1014 1618 1104 1582 c 1
 1179 1759 l 1
 1301 1714 l 1
 1219 1521 l 1
 1415 1386 1507 1132 1507 801 c 0
 1507 302 1304 -34 805 -34 c 0
806 191 m 0
 1129 191 1199 477 1199 801 c 0
 1199 991 1177 1135 1108 1252 c 1
 666 215 l 1
 702 205 752 191 806 191 c 0
809 1411 m 0
 483 1411 413 1129 413 801 c 0
 413 689 428 589 477 526 c 1
 481 426 499 338 554 287 c 1
 1010 1356 l 1
 956 1391 893 1411 809 1411 c 0
EndSplineSet
EndChar

StartChar: Thorn
Encoding: 222 222 162
Width: 1410
GlyphClass: 2
Flags: HW
HStem: 1210 202<536.376 882.869> 1587 20G<156 439>
VStem: 156 294<-136 382 554.555 1166 1320 1607> 987 285<614.739 1097.48>
LayerCount: 2
Fore
SplineSet
719.384533363 519.885425035 m 0
 904.519432575 519.885425035 987 626.007866824 987 859 c 0
 987 1112.78523923 877.527308163 1204.67424406 696.164753 1204.67424406 c 0
 624.548274705 1204.67424406 541.721984429 1190.34595883 450 1166 c 1
 450 566 l 1
 539.534532586 540.746670296 634.632372134 519.885425035 719.384533363 519.885425035 c 0
1274.60349726 872.785269587 m 0
 1274.60349726 490.440498511 1067.6496882 304 684 304 c 0
 587 304 509 330 450 382 c 1
 450 -136 l 1
 156 -136 l 1
 156 1607 l 1
 439 1607 l 1
 439 1320 l 1
 524.180702424 1372.4188938 641.780536163 1412.57108926 777.036590972 1412.57108926 c 0
 1110.47805699 1412.57108926 1274.60349726 1201.30020187 1274.60349726 872.785269587 c 0
EndSplineSet
EndChar

StartChar: germandbls
Encoding: 223 223 163
Width: 1535
GlyphClass: 2
Flags: HW
HStem: -173 236<607 909.544> 0 21G<156 463> 736 186<613 919.648> 1401 206<562.616 937.983>
VStem: 156 307<0 1292.33> 1017 268<1010.63 1326.82> 1158 299<235.11 567.126>
LayerCount: 2
Fore
SplineSet
1158 398 m 0
 1158 676 902 736 613 736 c 1
 613 755 612 766 612 789 c 130
 612 922 l 1
 854 922 1017 941 1017 1181 c 0
 1017 1353 905 1401 729 1401 c 256
 494 1401 463 1237 463 999 c 2
 463 0 l 1
 156 0 l 1
 156 1002 l 2
 156 1400 329 1607 729 1607 c 0
 1044 1607 1285 1494 1285 1186 c 0
 1285 981 1165 864 977 843 c 1
 1257 813 1457 686 1457 379 c 0
 1457 -48 1031 -173 607 -173 c 1
 607 63 l 1
 873 80 1158 116 1158 398 c 0
EndSplineSet
EndChar

StartChar: ae
Encoding: 230 230 170
Width: 1899
GlyphClass: 2
Flags: HW
HStem: -19 207<419.625 726.054 1215.48 1600.18> 537 153<1092 1573> 561 148<420.16 573.001 575 814> 574 162<436.578 812.935> 997 212<352.003 762.604 1189.67 1494.9>
VStem: 91 279<237.956 510.938> 814 278<322.76 537 709 883.322> 1573 243<690 907.717>
LayerCount: 2
Fore
SplineSet
1573 690 m 1
 1573 869 1519 1010 1346 1010 c 0
 1171 1010 1096 866 1092 690 c 1
 1573 690 l 1
1384 188 m 0
 1504 188 1628 228 1693 284 c 1
 1758 89 l 1
 1674 28 1511 -19 1369 -19 c 0
 1149 -19 1025 60 942 199 c 1
 857 67 706 -21 494 -21 c 0
 235 -21 91 108 91 366 c 0
 91 639 300 736 574 736 c 128
 662 736 746 727 814 709 c 1
 814 891 797 997 614 997 c 0
 482 997 299 961 221 902 c 1
 165 1091 l 1
 252 1167 463 1209 618 1209 c 0
 806 1209 924 1158 982 1029 c 1
 1046 1142 1174 1209 1349 1209 c 0
 1658 1209 1816 992 1816 682 c 0
 1816 635 1815 587 1813 537 c 1
 1092 537 l 1
 1095 329 1174 188 1384 188 c 0
661.735859831 574.096923752 m 0
 496.551689476 574.096923752 370 544.610913778 370 381 c 0
 370 248 435 182 566 182 c 0
 674 182 748 240 814 300 c 1
 814 561 l 1
 765.250339368 567.548461876 713.853619912 574.096923752 661.735859831 574.096923752 c 0
EndSplineSet
EndChar

StartChar: igrave
Encoding: 236 236 176
Width: 667
GlyphClass: 2
Flags: HW
HStem: 0 21G<203 493> 1165 20G<203 493> 1355 21G<300.325 357.286>
VStem: 203 290<0 1185>
LayerCount: 2
Fore
SplineSet
-40 1912 m 1
 250 2038 l 1
 437 1411 l 1
 313 1355 l 1
 -40 1912 l 1
203 0 m 1
 203 1185 l 1
 493 1185 l 1
 493 0 l 1
 203 0 l 1
EndSplineSet
EndChar

StartChar: iacute
Encoding: 237 237 177
Width: 667
GlyphClass: 2
Flags: HW
HStem: 0 21G<203 493> 1165 20G<203 493>
VStem: 203 290<0 1185>
LayerCount: 2
Fore
SplineSet
155 1387 m 1
 344 2010 l 1
 630 1885 l 1
 275 1331 l 1
 155 1387 l 1
203 0 m 1
 203 1185 l 1
 493 1185 l 1
 493 0 l 1
 203 0 l 1
EndSplineSet
EndChar

StartChar: icircumflex
Encoding: 238 238 178
Width: 667
GlyphClass: 2
Flags: HW
HStem: 0 21G<203 493> 1165 20G<203 493> 1728 226<124 546>
VStem: 203 290<0 1185>
LayerCount: 2
Fore
SplineSet
433 1954 m 1
 708 1372 l 1
 488 1341 l 1
 334 1728 l 1
 180 1341 l 1
 -39 1372 l 1
 237 1954 l 1
 433 1954 l 1
203 0 m 1
 203 1185 l 1
 493 1185 l 1
 493 0 l 1
 203 0 l 1
EndSplineSet
EndChar

StartChar: idieresis
Encoding: 239 239 179
Width: 667
GlyphClass: 2
Flags: HW
HStem: 0 21G<203 493> 1165 20G<203 493> 1338 306<-111.267 141.228 498.733 750.249>
VStem: -150 330<1376.34 1605.66> 203 290<0 1185> 460 330<1377.06 1604.94>
LayerCount: 2
Fore
SplineSet
14 1325 m 0
 -83 1325 -150 1394 -150 1491 c 256
 -150 1587 -82 1657 14 1657 c 256
 110 1657 180 1587 180 1491 c 0
 180 1395 110 1325 14 1325 c 0
624 1325 m 0
 527 1325 460 1394 460 1491 c 256
 460 1587 528 1657 624 1657 c 256
 719 1657 790 1586 790 1491 c 0
 790 1396 719 1325 624 1325 c 0
203 0 m 1
 203 1185 l 1
 493 1185 l 1
 493 0 l 1
 203 0 l 1
EndSplineSet
EndChar

StartChar: eth
Encoding: 240 240 180
Width: 1272
GlyphClass: 2
Flags: HW
HStem: -18 203<489.611 757.204> 1007 202<480.005 749.133>
VStem: 85 290<322.643 876.218> 886 290<342.282 895.854>
DStem2: 410 1433 453 1305 0.954359 0.298661<2.80878 184.394 491.145 736.62> 1022.5 1294 815.5 1211 0.580587 -0.814198<-187.92 110.464>
LayerCount: 2
Fore
SplineSet
919 1451 m 1
 1071 1250 1176 1009 1176 654 c 0
 1176 240 1020 -18 611 -18 c 0
 252 -18 85 246 85 603 c 0
 85 928 227 1209 547 1209 c 0
 698 1209 818 1143 884 1057 c 1
 853 1174 770 1290 692 1379 c 1
 453 1305 l 1
 410 1433 l 1
 586 1488 l 1
 527 1543 470 1588 402 1630 c 1
 528 1780 l 1
 638 1715 727 1648 817 1560 c 1
 1113 1653 l 1
 1156 1525 l 1
 919 1451 l 1
610 1007 m 0
 419 1007 375 814 375 597 c 0
 375 392 419 185 619 185 c 0
 810 185 871 356 882 537 c 1
 885 622 886 708 886 796 c 1
 855 921 761 1007 610 1007 c 0
EndSplineSet
EndChar

StartChar: divide
Encoding: 247 247 187
Width: 1163
GlyphClass: 2
Flags: HW
HStem: 143 332<483.017 707.667> 570 214<148 1041> 875 332<482.017 706.667>
VStem: 434 322<191.505 425.795 924.914 1157.09>
LayerCount: 2
Fore
SplineSet
595 875 m 0
 498 875 433 945 433 1041 c 256
 433 1137 499 1207 595 1207 c 256
 691 1207 755 1136 755 1041 c 256
 755 946 691 875 595 875 c 0
596 143 m 0
 499 143 434 213 434 309 c 256
 434 405 500 475 596 475 c 256
 692 475 756 404 756 309 c 0
 756 214 692 143 596 143 c 0
148 570 m 1
 148 784 l 1
 1041 784 l 1
 1041 570 l 1
 148 570 l 1
EndSplineSet
EndChar

StartChar: oslash
Encoding: 248 248 188
Width: 1299
GlyphClass: 2
Flags: HW
HStem: -18 181<563.433 807.627> 1024 182<650.187 736> 1026 183<488.223 735.407>
VStem: 85 259<344.592 858.175> 960 253<341.569 844.034>
DStem2: 340 -154 440 -188 0.319358 0.947634<0 196.054 403.822 1210.87 1419.59 1627.02>
LayerCount: 2
Fore
SplineSet
649 1026 m 0
 423 1026 344 841 344 607 c 0
 344 450 376 290 468 229 c 1
 736 1015 l 1
 712 1024 683 1026 649 1026 c 0
1213 592 m 0
 1213 221 1020 -18 649 -18 c 0
 596 -18 548 -13 503 -3 c 1
 440 -188 l 1
 340 -154 l 1
 402 27 l 1
 197 113 85 306 85 592 c 0
 85 963 277 1209 649 1209 c 0
 702 1209 749 1203 794 1194 c 1
 860 1389 l 1
 957 1355 l 1
 892 1164 l 1
 1097 1078 1213 882 1213 592 c 0
649 163 m 0
 879 163 960 360 960 594 c 0
 960 763 920 891 826 960 c 1
 562 173 l 1
 582 166 611 163 649 163 c 0
EndSplineSet
EndChar

StartChar: thorn
Encoding: 254 254 194
Width: 1331
GlyphClass: 2
Flags: HW
HStem: -446 21G<154 445> -18 202<550.165 857.67> 1001 203<571.642 844.093>
VStem: 154 292<-437 115 255.984 891 1045 1601> 954 292<303.248 862.724>
LayerCount: 2
Fore
SplineSet
737 184 m 0
 924 184 954 393 954 581 c 0
 954 785 915 1001 715 1001 c 0
 588 1001 514 946 446 891 c 1
 446 291 l 1
 513 230 616 184 737 184 c 0
1246 583 m 0
 1246 246 1091 -18 757 -18 c 0
 616 -18 512 26 445 115 c 1
 445 -437 l 1
 154 -446 l 1
 154 1601 l 1
 441 1601 l 1
 441 1045 l 1
 502 1136 619 1204 765 1204 c 0
 1108 1204 1246 927 1246 583 c 0
EndSplineSet
EndChar

StartChar: OE
Encoding: 338 338 196
Width: 2325
GlyphClass: 2
Flags: HW
HStem: -35 227<620.29 989.003> 0 199<1505 2260> 745 186<1505 2154> 1405 202<1505 2249> 1411 224<622.018 989.934>
VStem: 104 309<455.373 1146.58> 1200 305<473.5 931>
LayerCount: 2
Fore
SplineSet
1200 0 m 1
 1200 1607 l 1
 2249 1607 l 1
 2249 1405 l 1
 1505 1405 l 1
 1505 931 l 1
 2154 931 l 1
 2154 745 l 1
 1505 745 l 1
 1505 199 l 1
 2260 199 l 1
 2260 0 l 1
 1200 0 l 1
805 1635 m 0
 1297 1635 1507 1305 1507 810 c 0
 1507 307 1310 -35 805 -35 c 0
 298 -35 104 312 104 819 c 0
 104 1309 318 1635 805 1635 c 0
808 1411 m 0
 486 1411 413 1126 413 798 c 0
 413 476 488 192 805 192 c 0
 1123 192 1199 474 1199 798 c 0
 1199 1123 1126 1411 808 1411 c 0
EndSplineSet
EndChar

StartChar: oe
Encoding: 339 339 197
Width: 2045
GlyphClass: 2
Flags: HW
HStem: -32 201<501.268 799.93 1377.5 1726.05> 537 153<1226 1719> 1016 199<510.568 790.365 1347.33 1623.96>
VStem: 86 290<320.235 858.111> 926 300<326.197 537 690 857.77> 1719 243<690 910.097>
LayerCount: 2
Fore
SplineSet
1719 690 m 1
 1719 905 1642 1014 1487 1016 c 1
 1308 1013 1232 866 1225 690 c 1
 1719 690 l 1
376 588 m 0
 376 368 430 169 650 169 c 0
 871 169 926 364 926 588 c 256
 926 812 871 1010 650 1010 c 256
 430 1010 376 811 376 588 c 0
1535 177 m 0
 1672 177 1756 217 1839 281 c 1
 1905 84 l 1
 1801 24 1670 -24 1512 -24 c 0
 1292 -24 1158 51 1076 194 c 1
 1014 50 853 -32 650 -32 c 0
 274 -32 86 210 86 587 c 0
 86 963 271 1210 650 1210 c 0
 868 1210 1004 1124 1072 970 c 1
 1152 1113 1260 1215 1480 1215 c 0
 1800 1215 1962 1006 1962 685 c 0
 1962 634 1961 585 1959 537 c 1
 1226 537 l 1
 1228 321 1320 177 1535 177 c 0
EndSplineSet
EndChar

StartChar: Scaron
Encoding: 352 352 198
Width: 1325
GlyphClass: 2
Flags: HW
HStem: -34 230<395.318 876.45> 1411 225<452.387 940.818>
VStem: 85 287<1108.89 1337.38> 955 291<268.193 541.429>
DStem2: 301 273 284 35 0.945433 -0.325815<-106.916 367.316> 524 1047 413 778 0.929019 -0.370033<-164.834 561.11>
LayerCount: 2
Fore
SplineSet
578 1821 m 1
 302 2404 l 1
 522 2435 l 1
 677 2047 l 1
 830 2435 l 1
 1050 2404 l 1
 773 1821 l 1
 578 1821 l 1
686 1411 m 0
 522 1411 372 1381 372 1218 c 0
 372 1117 445 1075 524 1047 c 1
 869 915 l 2
 1067 839 1246 714 1246 443 c 0
 1246 106 1003 -34 658 -34 c 0
 443 -34 268 28 127 104 c 1
 182 323 l 1
 273.593040742 279.763533563 511.151421772 191.216318477 698.951600521 191.216318477 c 0
 841.26196875 191.216318477 955 242.062224317 955 402 c 0
 955 535 875 597 767 637 c 1
 413 778 l 1
 242 845 85 962 85 1196 c 0
 85 1504 342 1636 650 1636 c 0
 861 1636 1045 1580 1175 1503 c 1
 1111 1295 l 1
 1009 1356 848 1411 686 1411 c 0
EndSplineSet
EndChar

StartChar: scaron
Encoding: 353 353 199
Width: 1092
GlyphClass: 2
Flags: HW
HStem: -24 201<312.005 689.632> 1016 199<408.421 788.073>
VStem: 103 259<805.406 978.76> 733 271<220.781 417.166>
DStem2: 483 769 357 560 0.932829 -0.36032<-143.314 369.68>
LayerCount: 2
Fore
SplineSet
450 1393 m 1
 174 1976 l 1
 394 2007 l 1
 549 1619 l 1
 702 2007 l 1
 922 1976 l 1
 645 1393 l 1
 450 1393 l 1
534 177 m 0
 650 177 733 216 733 332 c 0
 733 411 657 445 590 470 c 2
 357 560 l 1
 216 611 103 693 103 886 c 0
 103 1118 310 1215 546 1215 c 0
 698 1215 880 1176 969 1109 c 1
 903 921 l 1
 831 975 678 1016 557 1016 c 0
 445 1016 362 982 362 886 c 0
 362 811 427 791 483 769 c 1
 675 698 l 2
 835 638 1004 558 1004 345 c 0
 1004 90 805 -24 548 -24 c 0
 381 -24 204 19 109 90 c 1
 175 281 l 1
 247 225 412 177 534 177 c 0
EndSplineSet
EndChar

StartChar: florin
Encoding: 402 402 201
Width: 835
GlyphClass: 2
Flags: HW
HStem: 1010 132<50 256 554 845> 1494 217<610.812 877.57>
VStem: 226 297<131.468 648.684> 256 293<778.395 1010 1142 1419.54>
LayerCount: 2
Fore
SplineSet
878 1455 m 1
 833 1473 776 1494 713 1494 c 0
 555 1494 560 1302 554 1142 c 1
 849 1142 l 1
 845 1010 l 1
 549 1010 l 1
 523 365 l 1
 512 161 476 9 381 -98 c 1
 264 -98 169 -66 61 -66 c 1
 91 54 l 1
 91 78 145 87 160 99 c 1
 203 153 221 220 226 318 c 2
 256 1010 l 1
 46 1010 l 1
 50 1142 l 1
 260 1142 l 1
 273 1457 340 1711 660 1711 c 0
 758 1711 828 1678 904 1661 c 1
 878 1455 l 1
EndSplineSet
EndChar

StartChar: circumflex
Encoding: 710 710 202
Width: 1331
GlyphClass: 2
Flags: HW
HStem: 611 226<479 900>
LayerCount: 2
Fore
SplineSet
787 837 m 1
 1064 254 l 1
 843 223 l 1
 689 611 l 1
 535 223 l 1
 316 254 l 1
 592 837 l 1
 787 837 l 1
EndSplineSet
EndChar

StartChar: ring
Encoding: 730 730 203
Width: 1256
GlyphClass: 2
Flags: HW
HStem: 213 138<511.905 744.068> 688 137<512.608 742.749>
VStem: 306 153<404.414 634.194> 797 154<403.898 632.765>
LayerCount: 2
Fore
SplineSet
628 688 m 0
 530 688 459 617 459 519 c 0
 459 421 530 351 628 351 c 0
 726 351 797 421 797 519 c 256
 797 616 725 688 628 688 c 0
306 522 m 0
 306 701 450 825 629 825 c 0
 812 825 951 699 951 516 c 256
 951 334 804 213 622 213 c 0
 443 213 306 343 306 522 c 0
EndSplineSet
EndChar

StartChar: tilde
Encoding: 732 732 204
Width: 1438
GlyphClass: 2
Flags: HW
HStem: 228 198<789.901 948.815> 364 195<510.816 674.507>
VStem: 305 191<246 338.724> 957 198<447.666 529>
DStem2: 743 494 630 342 0.890685 -0.454621<-104.863 181.912>
LayerCount: 2
Fore
SplineSet
1155 529 m 1
 1155 362 1096 228 942 228 c 0
 818 228 716 298 630 342 c 128
 601 357 577 364 558 364 c 0
 506 364 496 313 496 246 c 1
 305 246 l 1
 305 455 379 559 528 559 c 0
 619 559 680 527 743 494 c 1
 791 470 l 130
 826 452 867 426 913 426 c 0
 955 426 957 472 957 529 c 1
 1155 529 l 1
EndSplineSet
EndChar

StartChar: uni0306
Encoding: 774 774 205
Width: 1103
GlyphClass: 2
Flags: HW
HStem: 1367 138<442.017 655.671> 1648 20G<233 410 687 863>
VStem: 233 177<1545.23 1668> 687 176<1545.23 1668>
LayerCount: 2
Fore
SplineSet
549 1505 m 256
 652 1505 687 1561 687 1668 c 1
 863 1668 l 1
 863 1463 758 1367 549 1367 c 256
 341 1367 233 1465 233 1668 c 1
 410 1668 l 1
 410 1561 446 1505 549 1505 c 256
EndSplineSet
EndChar

StartChar: uni0E81
Encoding: 3713 3713 206
Width: 1429
GlyphClass: 2
Flags: HW
HStem: 0 139<241.628 353.522> 284 124<255.566 358.172> 698 128<243.654 359> 936 168<742.844 1025.7> 968 136<245.806 347.998>
VStem: 70 167<140.679 273.381 831.48 957.689> 359 267<142.564 284 385 702> 1077 268<0 883.504>
LayerCount: 2
Fore
SplineSet
1077 705 m 2
 1077 864 1036 936 880 936 c 1
 822 935 737 897 624 822 c 1
 625 805 626 794 626 782 c 2
 626 333 l 2
 626 134 529 0 332 0 c 0
 157 0 70 71 70 213 c 0
 70 320 151 408 258 408 c 1
 275 406 292 407 306 402 c 2
 359 385 l 1
 359 702 l 1
 342 700 326 698 308 698 c 0
 172 698 66 767 66 902 c 0
 66 1046 174 1104 331 1104 c 0
 444 1104 527 1059 581 970 c 1
 687 1040 784 1104 923 1104 c 0
 1204 1104 1345 955 1345 658 c 2
 1345 0 l 1
 1077 0 l 1
 1077 705 l 2
235 903 m 1
 241 855 265 829 306 826 c 1
 325 826 343 829 359 835 c 1
 359 878 l 1
 354 933 334 963 298 968 c 1
 257 968 235 945 235 903 c 1
306 284 m 2
 262 284 237 260 237 215 c 0
 237 165 257 140 297 139 c 1
 338 140 359 170 359 227 c 2
 359 284 l 1
 306 284 l 2
EndSplineSet
EndChar

StartChar: uni0E82
Encoding: 3714 3714 207
Width: 1244
GlyphClass: 2
Flags: HW
HStem: 0 211<271 611.644> 120 211<697.008 1009.96> 550 136<320.504 413.012> 950 154<403.261 866.186>
VStem: 127 176<702.986 832.91> 430 167<698.437 830> 916 264<682.636 900.333>
DStem2: 513 534 506 323 0.951252 0.308414<-192.763 407.029> 573 242 535 18.5 0.947477 0.319824<-121.151 263.197>
LayerCount: 2
Fore
SplineSet
642 1104 m 0
 939 1104 1180 1046 1180 782 c 0
 1180 538 948 464 762 406 c 2
 632 365 l 2
 561 343 402 324 402 251 c 0
 402 218 421 211 455 211 c 0
 613 211 733 331 911 331 c 0
 1084 331 1177 210 1260 83 c 1
 1107 -52 l 1
 1053 28 1014 120 894 120 c 0
 703 120 601 0 408 0 c 0
 225 0 134 76 134 227 c 0
 134 427 352 480 513 534 c 2
 606 565 l 1
 744 609 916 630 916 811 c 0
 916 927 782 950 649 950 c 0
 553 950 465 950 402 926 c 1
 412 928 422 929 433 929 c 0
 525 929 597 845 597 752 c 0
 597 626 499 550 372 550 c 0
 209 550 127 629 127 788 c 0
 127 1034 387 1104 642 1104 c 0
371.638027148 680.264504596 m 0
 404.633733241 680.264504596 428.300560171 723.514004287 430 766 c 1
 430 811 405 834 355 834 c 2
 306 834 l 1
 304 825 303 815 303 805 c 0
 303.748291901 751.871274999 332.49362229 680.264504596 371.638027148 680.264504596 c 0
EndSplineSet
EndChar

StartChar: uni0E84
Encoding: 3716 3716 208
Width: 1268
GlyphClass: 2
Flags: HW
HStem: 0 139<384.311 484.928> 284 122<373.344 476.918> 521 157<410.133 662> 935 169<437.473 837.228>
VStem: 106 267<163.241 284 386 482.701 709.576 895.485> 496 167<149.784 271.501> 916 267<0 857.483>
LayerCount: 2
Fore
SplineSet
642 1104 m 0
 982 1104 1183 995 1183 658 c 2
 1183 0 l 1
 916 0 l 1
 916 654 l 2
 916 861 848 935 642 935 c 0
 503 935 373 923 373 813 c 0
 373 724 424 678 514 678 c 2
 662 678 l 1
 662 521 l 1
 514 521 l 2
 418 521 373 484 373 391 c 2
 373 386 l 1
 395 392 l 2
 425 400 440 406 469 406 c 0
 583 406 663 330 663 216 c 0
 663 61 564 0 399 0 c 0
 207 0 106 140 106 333 c 0
 106 491 216 584 359 602 c 1
 221 602 106 677 106 813 c 0
 106 1058 397 1104 642 1104 c 0
434 139 m 0
 477 139 496 170 496 216 c 0
 496 257 467 284 424 284 c 2
 373 284 l 1
 373 238 l 2
 373 181 383 139 434 139 c 0
EndSplineSet
EndChar

StartChar: uni0E87
Encoding: 3719 3719 209
Width: 991
GlyphClass: 2
Flags: HW
HStem: -491 149<302.663 604.988> 697 124<230.523 332.19> 964 139<233.885 343 467 583.816>
VStem: 56 167<830.827 946.618> 76 180<-299.982 -179> 343 142<843.691 963.442> 669 268<-261.528 837.983>
LayerCount: 2
Fore
SplineSet
937 20 m 2
 937 -319 806 -491 470 -491 c 0
 230 -491 77 -404 76 -179 c 1
 256 -179 l 1
 256 -305 330 -342 460 -342 c 0
 650 -342 669 -211 669 -17 c 2
 669 584 l 2
 669 777 647 958 467 965 c 1
 479 932 485 905 485 884 c 0
 485 754 401 697 266 697 c 0
 139 697 56 769 56 896 c 0
 56 1052 240 1103 402 1103 c 0
 759 1103 937 932 937 590 c 2
 937 20 l 2
277 821 m 0
 325 821 343 854 343 902 c 2
 343 964 l 1
 263 957 223 930 223 884 c 0
 223 846 239 821 277 821 c 0
EndSplineSet
EndChar

StartChar: uni0E88
Encoding: 3720 3720 210
Width: 1340
GlyphClass: 2
Flags: HW
HStem: 382 125<542.692 643.719> 656 136<532.015 630.043> 935 169<409.047 879.952>
VStem: 35 238<678 818.736> 353 167<519.974 643.724> 1007 248<132 816.992>
LayerCount: 2
Fore
SplineSet
605 792 m 0
 995 792 816 323 1007 132 c 1
 1007 638 l 2
 1007 859 881 935 654 935 c 0
 452 935 273 876 273 678 c 1
 35 678 l 1
 38 1002 325 1104 659 1104 c 0
 1034 1104 1255 961 1255 590 c 2
 1255 17 l 1
 994 -77 l 1
 952 -53 l 2
 789 39 694 195 654 407 c 1
 607 392 l 2
 587 386 564 382 541 382 c 0
 428 382 353 465 353 578 c 0
 353 721 459 792 605 792 c 0
643 541 m 2
 643 606 634 656 582 656 c 0
 542 656 520 621 520 578 c 0
 520 529 555 507 606 507 c 2
 644 507 l 1
 643 510 643 514 643 520 c 130
 643 541 l 2
EndSplineSet
EndChar

StartChar: uni0E8A
Encoding: 3722 3722 211
Width: 1232
GlyphClass: 2
Flags: HW
HStem: 0 210<336 607.582> 137 205<748.856 1080> 547 139<314.87 425.299> 950 154<400.744 856.598>
VStem: 127 176<689.692 833.414> 430 167<688.991 821.98> 919 263<680.948 893.521> 961 235<-190 123.071>
DStem2: 591 562 507.5 319.5 0.940718 0.339189<-286.637 351.542> 616 258 539 19.5 0.949665 0.313269<-178.175 225.157>
LayerCount: 2
Fore
SplineSet
307 834 m 1
 305 821 303 811 303 801 c 0
 305 725 325 687 363 686 c 1
 408 686 430 713 430 766 c 1
 427 810 399 834 350 834 c 2
 307 834 l 1
597 753 m 0
 597 629 499 547 373 547 c 0
 212 547 127 627 127 788 c 0
 127 1033 388 1104 642 1104 c 0
 1002 1104 1182 993 1182 771 c 0
 1182 561 1018 491 855 437 c 2
 638 365 l 2
 563 340 406 322 399 249 c 1
 400 224 416 210 443 210 c 0
 586 210 787 342 964 342 c 0
 1119 342 1196 257 1196 86 c 2
 1196 -190 l 1
 961 -190 l 1
 961 68 l 2
 961 121 943 137 894 137 c 0
 756 137 576 0 403 0 c 0
 238 0 134 70 134 227 c 0
 134 572 738 506 893 700 c 128
 910 722 919 751 919 786 c 0
 919 925 795 950 637 950 c 0
 526 950 447 942 399 926 c 1
 402 927 407 928 410 928 c 0
 519 928 597 862 597 753 c 0
EndSplineSet
EndChar

StartChar: uni0E8D
Encoding: 3725 3725 212
Width: 1258
GlyphClass: 2
Flags: HW
HStem: 0 168<435.924 850.107> 425 157<420.133 672> 697 123<383.344 487.433> 965 139<394.574 494.928>
VStem: 116 267<207.953 393.35 621.407 718 820 940.243> 506 167<830.991 953.754> 926 267<246.017 1104>
LayerCount: 2
Fore
SplineSet
652 168 m 0
 859 168 926 243 926 450 c 2
 926 1104 l 1
 1193 1104 l 1
 1193 446 l 2
 1193 96 982 0 627 0 c 0
 363 0 116 60 116 290 c 0
 116 429 231 498 369 501 c 1
 227 518 116 614 116 771 c 0
 116 963 219 1104 409 1104 c 0
 574 1104 673 1042 673 887 c 0
 673 778 594 697 485 697 c 0
 452 697 438 700 405 711 c 2
 383 718 l 1
 383 712 l 2
 383 620 428 582 524 582 c 2
 672 582 l 1
 672 425 l 1
 524 425 l 2
 434 425 383 379 383 290 c 0
 383 180 513 168 652 168 c 0
434 820 m 2
 480 820 506 843 506 888 c 0
 506 934 487 965 444 965 c 0
 395 965 383 922 383 866 c 2
 383 820 l 1
 434 820 l 2
EndSplineSet
EndChar

StartChar: uni0E94
Encoding: 3732 3732 213
Width: 1283
GlyphClass: 2
Flags: HW
HStem: 0 139<392.805 495.082> 283 123<382.578 485.402> 935 169<458.084 853.99>
VStem: 116 266<160.662 283 385 859.483> 505 166<149.891 270.663> 929 269<0 857.618>
LayerCount: 2
Fore
SplineSet
929 654 m 2
 929 862 862 935 655 935 c 0
 454 935 382 865 382 664 c 2
 382 385 l 1
 419 397 l 2
 437 403 460 406 482 406 c 0
 597 406 671 323 671 207 c 0
 671 52 567 0 399 0 c 0
 213 0 116 147 116 335 c 2
 116 658 l 2
 116 994 316 1104 655 1104 c 0
 994 1104 1198 993 1198 658 c 2
 1198 0 l 1
 929 0 l 1
 929 654 l 2
447 139 m 0
 487 139 505 169 505 212 c 0
 505 256 477 283 432 283 c 2
 382 283 l 1
 382 227 l 2
 382 173 397 139 447 139 c 0
EndSplineSet
EndChar

StartChar: uni0E95
Encoding: 3733 3733 214
Width: 1566
GlyphClass: 2
Flags: HW
HStem: 0 139<394.107 494.721> 282 127<383.594 502.62> 935 169<417.475 628.109 972.851 1166.87>
VStem: 116 267<160.146 282 387 903.95> 506 167<149.606 277.906> 668 268<526 897.003> 1214 268<0 891.305>
LayerCount: 2
Fore
SplineSet
802 938 m 1
 842 1042 948 1104 1093 1104 c 0
 1352 1104 1482 954 1482 654 c 2
 1482 0 l 1
 1214 0 l 1
 1214 673 l 2
 1214 814 1203 935 1061 935 c 0
 949 935 936 818 936 706 c 2
 936 526 l 1
 668 526 l 1
 668 669 l 2
 668 796 664 935 537 935 c 0
 397 935 383 849 383 706 c 2
 383 387 l 1
 421 399 l 2
 443 406 456 409 485 409 c 0
 597 409 673 320 673 207 c 0
 673 57 569 0 408 0 c 0
 222 0 116 131 116 318 c 2
 116 658 l 2
 116 951 231 1104 513 1104 c 0
 659 1104 764 1046 802 938 c 1
448 139 m 0
 487 139 506 170 506 212 c 0
 505 259 481 282 432 282 c 2
 383 282 l 1
 383 222 l 2
 383 172 402 139 448 139 c 0
EndSplineSet
EndChar

StartChar: uni0E96
Encoding: 3734 3734 215
Width: 1352
GlyphClass: 2
Flags: HW
HStem: 0 139<556.343 653.722> 283 122<545.547 659.688> 718 145<163.487 275.937> 935 169<608.265 945.672> 981 123<171.153 267.338>
VStem: -5 167<863.616 972.063> 277 268<144.861 283 386 724 864.772 881.194> 667 166<149.247 276.647> 1031 268<-311 846.432>
LayerCount: 2
Fore
SplineSet
801 1104 m 0
 1098 1104 1299 957 1299 662 c 2
 1299 -311 l 1
 1031 -311 l 1
 1031 661 l 2
 1031 844 959 935 779 935 c 0
 680 935 619 902 545 856 c 1
 545 386 l 1
 580 398 l 2
 597 404 618 405 640 405 c 0
 754 405 833 321 833 207 c 0
 833 69 742 0 559 0 c 0
 370 0 277 148 277 339 c 2
 277 724 l 1
 256 720 230 718 201 718 c 256
 82 718 -5 791 -5 910 c 0
 -5 1048 89 1104 235 1104 c 0
 333 1104 415 1072 480 1009 c 1
 585 1072 692 1104 801 1104 c 0
606 139 m 1
 644 139 667 167 667 208 c 1
 663 256 638 281 591 283 c 1
 545 283 l 1
 545 226 l 1
 552 173 573 144 606 139 c 1
217 981 m 0
 180 981 163 958 162 923 c 1
 163 883 179 863 212 863 c 0
 231 863 253 868 277 878 c 1
 274 947 254 981 217 981 c 0
EndSplineSet
EndChar

StartChar: uni0E97
Encoding: 3735 3735 216
Width: 1455
GlyphClass: 2
Flags: HW
HStem: 0 167<436.392 609.761> 697 124<186.799 265.376> 935 169<939.07 1075.87> 965 139<194.203 307.528>
VStem: 15 167<827.038 953.695> 162 252<185.463 484.656> 318 234<822.75 953.716> 652 267<206.375 918.635> 1112 268<0 920.681>
DStem2: 181 398 419 346 0.263422 0.964681<-103.673 318.548 438.617 520.873>
LayerCount: 2
Fore
SplineSet
919 463 m 2
 919 171 807 0 528 0 c 0
 308 0 162 85 162 295 c 0
 162 333 172 363 181 398 c 2
 266 705 l 1
 243 698 227 697 201 697 c 0
 88 697 15 787 15 901 c 0
 15 1045 127 1104 284 1104 c 0
 421 1104 552 1037 552 902 c 0
 552 879 549 858 543 839 c 1
 419 346 l 1
 417 331 414 315 414 299 c 2
 414 288 l 1
 419 207 456 167 525 167 c 0
 644 167 652 310 652 457 c 2
 652 737 l 2
 652 991 776 1104 1029 1104 c 0
 1289 1104 1380 952 1380 683 c 2
 1380 0 l 1
 1112 0 l 1
 1112 685 l 2
 1112 701.627118644 1112.20942258 718.998850905 1112.20942258 736.501127184 c 0
 1112.20942258 833.735995404 1105.74576271 935 1021 935 c 0
 928 935 919 856 919 760 c 2
 919 463 l 2
248 965 m 0
 204 965 182 938 182 892 c 0
 183 845 212 821 268 821 c 2
 297 821 l 1
 314 879 l 1
 317 884 318 891 318 901 c 0
 318 941 290 965 248 965 c 0
EndSplineSet
EndChar

StartChar: uni0E99
Encoding: 3737 3737 217
Width: 1420
GlyphClass: 2
Flags: HW
HStem: 0 167<124 261.5 694.82 1020.73> 698 123<254.145 353.039> 965 139<237.198 348.237>
VStem: 66 167<833.333 963.512> 355 267<263.832 719 821 960.343> 1088 267<233.678 1104>
LayerCount: 2
Fore
SplineSet
66 899 m 0
 66 1047 174 1104 336 1104 c 0
 522 1104 622 965 622 777 c 2
 622 467 l 2
 622 273 666 167 857 167 c 0
 1039 167 1088 253 1088 436 c 2
 1088 1104 l 1
 1355 1104 l 1
 1355 470 l 2
 1355 153 1184 0 864 0 c 0
 663 0 520 76 480 235 c 1
 444 79 321 0 124 0 c 1
 124 170 l 1
 278 171 355 269 355 465 c 2
 355 719 l 1
 313 705 282 698 261 698 c 0
 142 698 66 779 66 899 c 0
233 892 m 0
 233 845 264 821 312 821 c 2
 355 821 l 1
 355 877 l 2
 355 933 334 962 291 965 c 1
 252 965 233 941 233 892 c 0
EndSplineSet
EndChar

StartChar: uni0E9A
Encoding: 3738 3738 218
Width: 1344
GlyphClass: 2
Flags: HW
HStem: 0 167<496.956 913.201> 697 122<185.966 265.062> 965 139<186.661 305.632>
VStem: 15 167<826.063 963.206> 176 251<230.441 541.938> 316 226<820.422 894 897 945.919> 1001 268<251.397 1104>
DStem2: 194 445 446 448 0.267527 0.96355<-51.7801 270.749 388.619 503.049>
LayerCount: 2
Fore
SplineSet
15 896 m 0
 15 1041 117 1104 274 1104 c 0
 422 1104 542 1018 542 871 c 0
 542 796 516 727 493 634 c 2
 446 448 l 2
 433 399 427 358 427 325 c 0
 427 207 563 167 687 167 c 0
 897 167 1001 220 1001 428 c 2
 1001 1104 l 1
 1269 1104 l 1
 1269 478 l 2
 1269 125 1058 0 691 0 c 0
 426 0 176 83 176 340 c 0
 176 377 185 412 194 445 c 2
 266 706 l 1
 246 700 225 697 204 697 c 0
 93 697 15 785 15 896 c 0
317 897 m 1
 317 941 289 965 243 965 c 0
 202 965 182 940 182 889 c 0
 182 843 212 820 272 819 c 1
 278 819 l 1
 279 820 282 820 288 820 c 2
 296 820 l 1
 305 847 l 2
 308 856 316 882 316 894 c 1
 317 897 l 1
EndSplineSet
EndChar

StartChar: uni0E9B
Encoding: 3739 3739 219
Width: 1353
GlyphClass: 2
Flags: HW
HStem: 0 167<496.439 910.881> 697 122<185.466 266.469> 965 139<186.833 307.594>
VStem: 15 167<824.465 960.73> 176 251<228.775 539.695> 317 225<819.489 954.885> 1009 268<263.164 1427>
DStem2: 204 481 446 448 0.263569 0.964641<-89.2595 232.684 350.56 435.736>
LayerCount: 2
Fore
SplineSet
15 896 m 0
 15 1039 135 1104 281 1104 c 0
 428 1104 542 1016 542 870 c 0
 542 821 530 781 516 725 c 2
 446 448 l 2
 433 399 427 359 427 326 c 0
 427 202 560 167 706 167 c 0
 914 167 1009 244 1009 451 c 2
 1009 1427 l 1
 1277 1427 l 1
 1277 483 l 2
 1277 124 1056 0 694 0 c 0
 430 0 176 82 176 339 c 0
 176 390 192 435 204 481 c 2
 267 705 l 1
 247 700 226 697 203 697 c 0
 93 697 15 785 15 896 c 0
317 902 m 1
 317 942 294 965 253 965 c 0
 206 964 182 938 182 889 c 0
 182 842 210 819 266 819 c 2
 297 819 l 1
 308 857 l 2
 313 874 314 887 317 902 c 1
EndSplineSet
EndChar

StartChar: uni0E9C
Encoding: 3740 3740 220
Width: 1577
GlyphClass: 2
Flags: HW
HStem: 0 167<436.696 608.098 960.085 1130.14> 698 123<405.407 505.339 1051.81 1169.75> 965 139<410.858 518.073 1058.09 1158.58>
VStem: 137 267<201.126 717 821 961.262> 527 167<835.316 954.028> 652 268<228.374 555> 881 166<827.179 953.188> 1170 267<226.312 705> 1398 165<977.132 1231>
LayerCount: 2
Fore
SplineSet
1170 877 m 2
 1170 929 1153 963 1107 965 c 1
 1070 965 1047 934 1047 894 c 0
 1047 845 1075 821 1132 821 c 2
 1152 821 l 130
 1158 821 1165 821 1170 822 c 1
 1170 877 l 2
527 896 m 0
 527 937 509 965 468 965 c 1
 425 962 404 933 404 877 c 2
 404 821 l 1
 446 821 l 1
 495 824 527 846 527 896 c 0
1170 705 m 1
 1143 699 1112 698 1078 698 c 0
 958 698 881 779 881 900 c 0
 881 1049 989 1104 1149 1104 c 0
 1266 1104 1341 1054 1385 976 c 1
 1394 1000 1398 1034 1398 1077 c 2
 1398 1231 l 1
 1563 1231 l 1
 1563 1077 l 2
 1563 956 1505 878 1432 817 c 1
 1434 788 1437 762 1437 734 c 2
 1437 482 l 2
 1437 161 1319 0 1083 0 c 0
 911 0 810 72 783 215 c 1
 757 72 658 0 485 0 c 0
 222 0 137 201 137 482 c 2
 137 764 l 2
 137 961 227 1104 422 1104 c 0
 587 1104 694 1051 694 899 c 0
 694 782 616 698 498 698 c 0
 465 698 434 704 404 717 c 1
 404 405 l 2
 404 287 411 167 523 167 c 0
 628 167 652 281 652 405 c 2
 652 555 l 1
 920 555 l 1
 920 407 l 2
 920 281 940 167 1048 167 c 256
 1155 167 1170 277 1170 403 c 2
 1170 705 l 1
EndSplineSet
EndChar

StartChar: uni0E9D
Encoding: 3741 3741 221
Width: 1555
GlyphClass: 2
Flags: HW
HStem: 0 167<438.732 644.508 995.667 1190.08> 698 123<405.146 517.257> 965 139<409.378 513.633>
VStem: 136 267<206.375 718 821 961.875> 526 166<831.396 952.541> 686 268<224.252 555> 1232 268<209.885 1427>
LayerCount: 2
Fore
SplineSet
403 405 m 2
 403 273 415 167 543 167 c 0
 666 167 686 267 686 405 c 2
 686 555 l 1
 954 555 l 1
 954 405 l 2
 954 272 976 167 1089 167 c 0
 1211 167 1232 268 1232 405 c 2
 1232 1427 l 1
 1500 1427 l 1
 1500 482 l 2
 1500 189 1402 0 1128 0 c 0
 940 0 854 73 818 215 c 1
 793 77 698 0 538 0 c 0
 240 0 136 182 136 482 c 2
 136 774 l 2
 136 958 234 1104 416 1104 c 0
 600 1104 692 1037 692 902 c 0
 692 781 619 698 498 698 c 0
 481 698 449 705 403 718 c 1
 403 405 l 2
526 899 m 1
 526 935 505 965 468 965 c 0
 425 965 403 936 403 877 c 2
 403 821 l 1
 444 821 l 1
 496 828 523 854 526 899 c 1
EndSplineSet
EndChar

StartChar: uni0E9E
Encoding: 3742 3742 222
Width: 1516
GlyphClass: 2
Flags: HW
HStem: 0 167<448.272 631.238 968.964 1151.63> 697 123<202.631 264.5> 965 139<187.513 305.173>
VStem: 15 167<831.801 960.517> 175 252<184.112 537.578> 316 226<821.031 955.826> 663 268<231.776 1103> 1184 267<220.124 1104>
DStem2: 193 443 441 431 0.263675 0.964612<-67.917 271.713 390.817 473.982>
LayerCount: 2
Fore
SplineSet
269 1104 m 0
 415 1104 542 1025 542 881 c 0
 542 863 538 833 530 790 c 1
 441 431 l 1
 434 387 427 350 427 308 c 0
 427 215 461 168 530 167 c 1
 650 167 663 262 663 384 c 2
 663 1103 l 1
 931 1103 l 1
 931 384 l 2
 931 258 954 167 1062 167 c 0
 1170 167 1184 260 1184 383 c 2
 1184 1104 l 1
 1451 1104 l 1
 1451 483 l 2
 1451 195 1363 0 1097 0 c 0
 929 0 829 77 796 231 c 1
 772 83 671 0 496 0 c 0
 294 0 175 109 175 311 c 0
 175 360 181 402 193 443 c 2
 265 705 l 1
 245 700 227 697 203 697 c 0
 91 697 15 783 15 896 c 0
 15 1041 114 1104 269 1104 c 0
316 901 m 0
 316 946 291 965 247 965 c 1
 207 961 185 937 182 894 c 1
 182 839 210 820 267 820 c 2
 296 820 l 1
 308 863 l 2
 310 872 316 890 316 901 c 0
EndSplineSet
EndChar

StartChar: uni0E9F
Encoding: 3743 3743 223
Width: 1512
GlyphClass: 2
Flags: HW
HStem: 0 167<437.582 612.913 952.538 1137.91> 978 126<175.273 304.928>
VStem: 15 153<841.971 970.863> 161 251<188.836 536.016> 307 229<853 974.918> 649 267<232.368 1103> 1169 267<208.011 1428>
DStem2: 182 452 433 451 0.2617 0.965149<-62.076 293.288 382.274 483.437>
LayerCount: 2
Fore
SplineSet
178 722 m 0
 72 722 15 798 15 908 c 0
 15 1049 125 1104 280 1104 c 0
 410 1104 536 1043 536 916 c 256
 536 889 529 846 515 787 c 2
 433 451 l 2
 421 402 412 367 412 325 c 0
 412 220 448 167 519 167 c 0
 636 167 649 265 649 384 c 2
 649 1103 l 1
 916 1103 l 1
 916 383 l 2
 916 257 938 167 1048 167 c 0
 1160 167 1169 269 1169 384 c 2
 1169 1428 l 1
 1436 1428 l 1
 1436 483 l 2
 1436 161 1318 0 1083 0 c 0
 915 0 811 77 780 231 c 1
 751 82 654 5 491 0 c 1
 481 0 l 1
 268 1 161 103 161 317 c 0
 161 364 169 406 182 452 c 2
 259 735 l 1
 239 726 212 722 178 722 c 0
238 978 m 1
 194 971 171 947 168 908 c 1
 168 837 209 830 286 830 c 1
 293 853 l 1
 307 913 l 1
 307 919 l 1
 306 957 283 977 238 978 c 1
EndSplineSet
EndChar

StartChar: uni0EA1
Encoding: 3745 3745 224
Width: 1664
GlyphClass: 2
Flags: HW
HStem: 0 167<923.8 1230.56> 0 140<233.43 321.826> 283 124<211.862 309.483>
VStem: 35 168<156.903 272.222> 323 141<166.599 263.918> 571 268<260.117 1104> 1311 267<248.902 1104>
LayerCount: 2
Fore
SplineSet
839 477 m 2
 839 285 893 167 1069 167 c 0
 1248 167 1311 257 1311 438 c 2
 1311 1104 l 1
 1578 1104 l 1
 1578 478 l 2
 1578 159 1414 0 1087 0 c 0
 890 0 742 79 703 236 c 1
 666 83 506 0 315 0 c 0
 158 0 35 61 35 215 c 0
 35 333 122 407 241 407 c 0
 374 407 464 352 464 225 c 0
 464 198 461 179 454 166 c 1
 532 215 571 316 571 470 c 2
 571 1104 l 1
 839 1104 l 1
 839 477 l 2
261 283 m 0
 223 283 203 255 203 218 c 0
 203 154 255 144 323 140 c 1
 323 212 l 1
 318 252 303 283 261 283 c 0
EndSplineSet
EndChar

StartChar: uni0EA2
Encoding: 3746 3746 225
Width: 1277
GlyphClass: 2
Flags: HW
HStem: 0 168<429.813 864.922> 425 157<431.133 683> 696 124<395.152 496.372> 965 139<401.311 511.422>
VStem: 127 267<208.245 394.373 619.668 718 820 961.972> 517 167<831.537 961.933> 937 267<240.867 1431.45>
LayerCount: 2
Fore
SplineSet
394 293 m 0
 394 174 537 168 663 168 c 0
 858 168 937 228 937 423 c 2
 937 1073 l 2
 937 1244 958 1383 1001 1489 c 1
 1253 1489 l 1
 1221 1358 1204 1218 1204 1050 c 2
 1204 446 l 2
 1204 109 1002 0 663 0 c 0
 386 0 127 51 127 290 c 0
 127 429 239 501 380 501 c 1
 236 516 127 612 127 771 c 0
 127 964 229 1104 420 1104 c 0
 596 1104 684 1032 684 887 c 0
 684 773 600 696 486 696 c 0
 450 696 432 706 394 718 c 1
 394 712 l 2
 394 620 442 582 535 582 c 2
 683 582 l 1
 683 425 l 1
 535 425 l 2
 445 425 394 382 394 293 c 0
445 820 m 2
 487 820 517 845 517 888 c 0
 517 939 496 965 455 965 c 0
 414 964 394 931 394 866 c 2
 394 820 l 1
 445 820 l 2
EndSplineSet
EndChar

StartChar: uni0EA3
Encoding: 3747 3747 226
Width: 1271
GlyphClass: 2
Flags: HW
HStem: 0 164<356.379 860.967> 429 137<271.939 378.074> 935 169<378.62 884.537>
VStem: 86 175<283.735 424.39> 389 166<295.681 417.225> 929 242<764 890.295> 957 248<244.247 444.848>
DStem2: 513.5 784.5 380 602.5 0.97556 -0.219733<-140.897 477.6>
LayerCount: 2
Fore
SplineSet
86 328 m 0
 86 484 168 566 326 566 c 0
 454 566 555 491 555 364 c 0
 555 268 482 190 386 190 c 1
 354 195 l 1
 401 174 495 164 635 164 c 0
 784 164 957 203 957 345 c 0
 957 579 395 571 236 654 c 128
 157 695 100 757 100 873 c 0
 100 1075 365 1104 613 1104 c 0
 910 1104 1171 1072 1171 785 c 2
 1171 764 l 1
 929 764 l 1
 929 789 l 2
 929 934.026845638 775.213143552 935.000180172 624.163382205 935.000180172 c 2
 618 935 l 2
 600.967741935 935 581.163371488 935.337148803 560.298009466 935.337148803 c 0
 473.359001041 935.337148803 368 929.483870968 368 869 c 1
 372 780 573 772 669 754 c 0
 931 707 1205 658 1205 361 c 0
 1205 89 924 0 644 0 c 0
 382 0 86 76 86 328 c 0
389 352 m 0
 389 398 369 428 327 429 c 1
 284 428 262 391 261 316 c 0
 261 305 264 294 266 282 c 1
 302 282 l 1
 352 284 389 302 389 352 c 0
EndSplineSet
EndChar

StartChar: uni0EA5
Encoding: 3749 3749 227
Width: 1295
GlyphClass: 2
Flags: HW
HStem: 0 208<881.173 963.463> 0 139<311.172 413.331> 283 123<319.186 421.699> 470 165<338.359 543.589> 935 169<457.662 880.725>
VStem: 96 207<142.054 283> 145 216<736 844.835> 425 156<151.745 279.009> 973 268<283.663 845.743>
DStem2: 776 440.5 608.5 336 0.520727 -0.853723<-174.752 274.855>
LayerCount: 2
Fore
SplineSet
359 139 m 0
 404 139 424 171 425 216 c 0
 425 257 403 279 360 283 c 1
 303 283 l 1
 303 278 l 2
 303 272.184615385 302.97443787 266.258461538 302.97443787 260.291539372 c 0
 302.97443787 201.616804734 305.446153846 139 359 139 c 0
973 623 m 2
 973 859 900 925 673 935 c 1
 494 935 380 884 361 736 c 1
 145 736 l 1
 145 1015 392 1104 678 1104 c 0
 1031 1104 1241 985 1241 636 c 2
 1241 373 l 2
 1241 149 1179 0 959 0 c 0
 720 0 672 308 540 429 c 1
 507 456 474 470 441 470 c 0
 378 470 340 441 318 390 c 1
 343 401 366 406 387 406 c 2
 408 406 l 1
 510 395 581 319 581 206 c 0
 581 71 486 0 344 0 c 0
 173 0 96 110 96 290 c 0
 96 494 238 635 441 635 c 256
 688 635 780 454 865 283 c 0
 882 250 896 208 923 208 c 0
 967.52173913 208 974.296786389 250.102079395 974.296786389 299.294813841 c 0
 974.296786389 320.816635161 973 343.695652174 973 365 c 2
 973 623 l 2
EndSplineSet
EndChar

StartChar: uni0EA7
Encoding: 3751 3751 228
Width: 1236
GlyphClass: 2
Flags: HW
HStem: 0 152<343.804 806.384> 417 137<280.818 383.737> 935 169<420.645 837.74>
VStem: 86 181<270.935 399.962> 120 217<738 854.605> 395 167<283.39 404.537> 923 268<268.645 849.258>
LayerCount: 2
Fore
SplineSet
326 554 m 0
 458 554 562 483 562 352 c 0
 562 252 492 178 393 178 c 1
 341 187 l 1
 401 164 489 152 606 152 c 0
 824 152 923 243 923 456 c 2
 923 623 l 2
 923 853 859 935 627 935 c 0
 454 935 360 886 337 738 c 1
 120 738 l 1
 120 1010 353 1104 632 1104 c 0
 988 1104 1191 989 1191 636 c 2
 1191 450 l 2
 1191 135 964 0 632 0 c 0
 380 0 86 69 86 311 c 0
 86 468 169 554 326 554 c 0
395 339 m 0
 395 384 375 417 331 417 c 1
 281 415 267 364 267 304 c 0
 267 286 268 275 271 270 c 1
 299 270 l 2
 354 270 395 289 395 339 c 0
EndSplineSet
EndChar

StartChar: uni0EAA
Encoding: 3754 3754 229
Width: 1343
GlyphClass: 2
Flags: HW
HStem: 0 204<874.542 1005.5> 0 139<310.951 413.018> 283 123<328.587 420.48> 445 131<334.347 560.485> 601 172<400.958 953.75> 935 169<410.074 937.197>
VStem: 106 197<140.164 283> 425 166<151.19 275.823> 973 268<227.724 660> 1139 193<960.186 1172>
DStem2: 760.5 416 728 141 0.602658 -0.798<-191.774 271.624>
LayerCount: 2
Fore
SplineSet
663 601 m 0
 399 601 118 633 118 844 c 0
 118 1017 300 1104 663 1104 c 0
 904 1104 1056 1055 1118 958 c 1
 1132 1005 1139 1050 1139 1093 c 2
 1139 1172 l 1
 1332 1172 l 1
 1332 1101 l 2
 1332 970 1300 864 1234 804 c 1
 1239 794 1241 773 1241 741 c 2
 1241 401 l 2
 1241 191 1177 0 973 0 c 0
 700 0 701 284 550 410 c 128
 523 433 495 445 451 445 c 0
 396 445 348 424 327 391 c 1
 361 401 385 406 400 406 c 0
 514 406 591 321 591 206 c 0
 591 68 481 0 341 0 c 0
 188 0 106 126 106 281 c 0
 106 470 245 576 434 576 c 0
 668 576 759 434 851 285 c 0
 875 246 894 204 931 204 c 0
 966 204 973 252 973 296 c 2
 973 660 l 1
 956 609 739 601 663 601 c 0
359 139 m 0
 404 139 424 170 425 215 c 1
 423 259 394 282 339 283 c 1
 303 283 l 1
 303 276 l 2
 303 271.935483871 302.991675338 267.825182102 302.991675338 263.691920379 c 0
 302.991675338 203.75962539 304.741935484 139 359 139 c 0
663 773 m 0
 797 773 901 784 988 828 c 1
 982 923 802 935 663 935 c 0
 540 935 386 932 386 844 c 0
 386 778.693877551 507.949187838 772.69637651 603.882004947 772.69637651 c 0
 625.466888796 772.69637651 645.734693878 773 663 773 c 0
EndSplineSet
EndChar

StartChar: uni0EAB
Encoding: 3755 3755 230
Width: 1854
GlyphClass: 2
Flags: HW
HStem: 0 167<483.614 819.434> 698 145<774.37 889> 698 123<188.083 222> 935 169<1236.67 1484.16> 965 139<186.684 305.42 782.396 878.35>
VStem: 15 167<827.963 962.524> 170 252<225.542 517.125> 605 167<845.441 963.661> 889 268<238.198 711 843.295 883.334> 1521 268<0 895.086>
DStem2: 182 402 432 402 0.264675 0.964338<-1.1167 318.549 434.495 517.863>
LayerCount: 2
Fore
SplineSet
207 698 m 1
 89 698 15 782 15 901 c 0
 15 1049 123 1104 285 1104 c 0
 423 1104 551 1036 551 901 c 0
 551 865 543 823 527 775 c 1
 432 402 l 2
 425 377 422 355 422 334 c 0
 422 216 525 167 652 167 c 0
 822 167 889 244 889 414 c 2
 889 711 l 1
 869 702 843 698 812 698 c 0
 680 698 605 772 605 906 c 0
 605 1045 709 1104 860 1104 c 0
 977 1104 1063 1065 1116 988 c 1
 1205 1048 1282 1104 1391 1104 c 0
 1656 1104 1789 957 1789 662 c 2
 1789 0 l 1
 1521 0 l 1
 1521 658 l 2
 1521 823 1519 935 1358 935 c 0
 1283 935 1219 895 1157 859 c 1
 1157 418 l 2
 1157 112 948 0 626 0 c 0
 402 0 189 97 171 299 c 0
 171 302 171 304 170 305 c 1
 170 320 l 2
 170 345 174 373 182 402 c 2
 267 709 l 1
 245 705 227 702 207 698 c 1
317 902 m 1
 317 939 285 965 246 965 c 0
 205 964 183 940 182 892 c 1
 185 845 215 821 270 821 c 2
 297 821 l 1
 309 875 316 902 317 902 c 1
833 974 m 256
 794 974 773 948 772 910 c 1
 773 865 793 843 832 843 c 0
 857 843 876 846 889 853 c 1
 889 884 l 2
 889 937 879 974 833 974 c 256
EndSplineSet
EndChar

StartChar: uni0EAD
Encoding: 3757 3757 231
Width: 1239
GlyphClass: 2
Flags: HW
HStem: 0 152<372.562 827.911> 178 93<370.04 401.868> 417 137<295.048 402.96> 576 187<366.926 916.758> 935 169<378.664 903.824>
VStem: 86 267<796.542 905.322> 99 182<271.027 399.796> 407 167<280.972 415.422> 945 269<273.375 626 797.884 889.589>
LayerCount: 2
Fore
SplineSet
353 844 m 0
 353 769.754385965 456.553093259 762.590335488 550.131360257 762.590335488 c 0
 572.50877193 762.590335488 594.315789474 763 614 763 c 0
 830 763 939 790 941 844 c 1
 941 926 741 935 614 935 c 0
 492 935 353 931 353 844 c 0
335 554 m 0
 467 554 574 486 574 356 c 0
 574 256 509 181 412 178 c 1
 407 178 l 2
 383 178 371 178 370 179 c 1
 418 161 498 152 609 152 c 0
 918 152 945 308 945 618 c 2
 945 626 l 1
 928 582 694 576 627 576 c 0
 266 576 86 665 86 844 c 0
 86 1017 262 1104 614 1104 c 0
 959 1104 1214 1020 1214 682 c 2
 1214 486 l 2
 1214 162 1024 0 644 0 c 0
 392 0 99 69 99 311 c 0
 99 464 182 554 335 554 c 0
350 417 m 0
 300 417 281 370 281 315 c 0
 281 300 284 285 286 271 c 1
 314 270 l 1
 373 275 404 298 407 338 c 1
 407 391 388 417 350 417 c 0
EndSplineSet
EndChar

StartChar: uni0EAE
Encoding: 3758 3758 232
Width: 1212
GlyphClass: 2
Flags: HW
HStem: 0 152<338.934 812.047> 416 138<278.107 384.763> 809 181<697.966 954.116> 926 178<328.673 578.297>
VStem: 86 182<272.949 410.843> 395 167<283.162 403.837> 884 268<218.403 426.838> 960 192<1003.41 1104>
DStem2: 598 755 506 576 0.951758 -0.306851<-270.036 338.329> 586 1063.5 593 877 0.972473 -0.233016<-151.843 323.086>
LayerCount: 2
Fore
SplineSet
395 338 m 0
 395 382 376 416 334 416 c 0
 290 415 268 377 268 304 c 0
 268 293 269 282 271 272 c 1
 312 272 l 2
 362 272 395 291 395 338 c 0
901 990 m 0
 933 990 960 1009 960 1042 c 2
 960 1104 l 1
 1152 1104 l 1
 1152 1042 l 2
 1152 887 1085 809 951 809 c 0
 797 809 516 926 396 926 c 0
 371 926 352 915 352 892 c 0
 352 824 508 784 598 755 c 2
 781 696 l 2
 960 639 1152 562 1152 339 c 0
 1152 71 907 0 606 0 c 0
 348 0 86 68 86 316 c 0
 86 470 172 554 329 554 c 0
 457 554 562 480 562 353 c 0
 562 248 486 179 381 179 c 1
 337 187 l 1
 395 164 487 152 613 152 c 0
 762 152 878 194 884 321 c 1
 880 475 692 513 562 557 c 2
 506 576 l 2
 332 635 114 680 114 896 c 0
 114 1020 217 1104 342 1104 c 0
 547 1104 715 990 901 990 c 0
EndSplineSet
EndChar

StartChar: uni0EAF
Encoding: 3759 3759 233
Width: 1347
GlyphClass: 2
Flags: HW
HStem: 378 184<363.23 669.587> 670 140<478.594 576.823>
VStem: 45 249<630.156 921.588> 580 156<811.655 944.316>
DStem2: 558 -315 778 -408 0.391894 0.920011<0.655617 1104.16>
LayerCount: 2
Fore
SplineSet
736 922 m 0
 736 790 652 670 520 670 c 0
 420 670 351 729 351 830 c 1
 357 863 362 895 371 947 c 1
 320 921 294 861 294 766 c 0
 294 639 377 562 506 562 c 0
 752 562 934 833 1031 998 c 1
 1078 1079 l 1
 1362 963 l 1
 778 -408 l 1
 558 -315 l 1
 988 702 l 1
 956 652 l 2
 859 500 724 378 501 378 c 0
 250 378 45 503 45 751 c 0
 45 984 212 1153 444 1153 c 0
 599 1153 736 1075 736 922 c 0
471 864 m 2
 471 829 491 810 528 810 c 1
 562 813 579 836 580 879 c 1
 578 926 542 954 473 961 c 1
 472 925 471 904 471 877 c 130
 471 864 l 2
EndSplineSet
EndChar

StartChar: uni0EB1
Encoding: 3761 3761 235
Width: 0
GlyphClass: 2
Flags: HW
HStem: 1176 179<-944.339 -821 -748 -334.924> 1478 148<-955.247 -832.214>
VStem: -1119 152<1366.64 1465.78> -821 110<1355.84 1460.47> -295 201<1395.16 1556>
LayerCount: 2
Fore
SplineSet
-897 1478 m 0
 -938 1478 -967 1458 -967 1418 c 0
 -966 1373 -932 1355 -882 1355 c 2
 -821 1355 l 1
 -821 1417 l 2
 -821 1458 -852 1478 -897 1478 c 0
-900 1626 m 0
 -800 1626 -711 1573 -711 1474 c 0
 -711 1451 -715 1429 -724 1409 c 2
 -748 1355 l 1
 -541 1355 l 2
 -362 1355 -300 1379 -295 1556 c 1
 -94 1556 l 1
 -94 1277 -285 1176 -563 1176 c 2
 -726 1176 l 2
 -921 1176 -1119 1202 -1119 1389 c 0
 -1119 1547 -1046 1626 -900 1626 c 0
EndSplineSet
EndChar

StartChar: uni0EB2
Encoding: 3762 3762 236
Width: 902
GlyphClass: 2
Flags: HW
HStem: 0 21G<555 822> 668 141<232.149 348.919> 963 143<227.955 364>
VStem: 53 166<822.14 951.945> 364 106<837.365 944.768> 364 90<859.232 956> 555 267<0 928.242>
LayerCount: 2
Fore
SplineSet
284 668 m 0
 150 668 53 733 53 866 c 0
 53 1038 190 1106 378 1106 c 0
 660 1106 822 998 822 725 c 2
 822 0 l 1
 555 0 l 1
 555 772 l 2
 555 877 536 935 454 956 c 1
 470 848 l 1
 470 728 408 668 284 668 c 0
298 809 m 0
 348 809 364 860 364 916 c 2
 364 963 l 1
 285 963 219 959 219 884 c 0
 219 835 248 809 298 809 c 0
EndSplineSet
EndChar

StartChar: uni0EB3
Encoding: 3763 3763 237
Width: 961
GlyphClass: 2
Flags: HW
HStem: 0 21G<603 870> 687 143<280.186 397.192> 983 142<272.392 411> 1216 131<-442.061 -300.384> 1522 127<-448.768 -300.464>
VStem: -595 135<1365.9 1510.76> -282 133<1364.03 1503.24> 102 165<842.769 971.529> 412 107<858.365 958.389> 412 90<885.611 975> 603 267<0 948.188>
LayerCount: 2
Fore
SplineSet
333 687 m 0
 198 687 102 751 102 885 c 0
 102 1057 238 1125 426 1125 c 0
 708 1125 870 1018 870 746 c 2
 870 0 l 1
 603 0 l 1
 603 791 l 2
 603 896 584 954 502 975 c 1
 519 869 l 1
 519 748 457 687 333 687 c 0
347 830 m 0
 397 830 410 882 412 936 c 1
 411 983 l 1
 332 983 267 980 267 904 c 0
 267 855 298 830 347 830 c 0
-149 1432 m 0
 -149 1307 -246 1216 -372 1216 c 0
 -496 1216 -595 1308 -595 1432 c 0
 -595 1556 -497 1649 -372 1649 c 256
 -245 1649 -149 1559 -149 1432 c 0
-372 1347 m 0
 -320 1347 -282 1381 -282 1434 c 0
 -282 1484 -321 1522 -372 1522 c 0
 -423 1522 -460 1485 -460 1434 c 0
 -460 1386 -422 1347 -372 1347 c 0
EndSplineSet
Substitution2: "'liga' Standard Ligatures lookup 0 subtable" uni0ECD_uni0EB2
EndChar

StartChar: uni0EB4
Encoding: 3764 3764 238
Width: 0
GlyphClass: 2
Flags: HW
HStem: 1176 149<-831.392 -668 -501 -347.242> 1527 154<-793.43 -378.821>
VStem: -1043 201<1339.98 1488.51> -331 202<1344.99 1491.53>
LayerCount: 2
Fore
SplineSet
-586 1681 m 0
 -368 1681 -129 1619 -129 1409 c 0
 -129 1239 -272 1176 -460 1176 c 2
 -501 1176 l 1
 -501 1325 l 1
 -458 1325 l 1
 -377 1330 -335 1358 -331 1409 c 1
 -331 1518 -454 1527 -586 1527 c 0
 -722 1527 -839 1515 -842 1409 c 1
 -841 1353 -798 1325 -713 1325 c 2
 -668 1325 l 1
 -668 1176 l 1
 -711 1176 l 2
 -889 1176 -1043 1235 -1043 1409 c 0
 -1043 1616 -798 1681 -586 1681 c 0
EndSplineSet
EndChar

StartChar: uni0EB5
Encoding: 3765 3765 239
Width: 0
GlyphClass: 2
Flags: HW
HStem: 1176 149<-983.875 -822 -652 -493.967 -333 -130> 1527 154<-947.108 -521.818>
VStem: -1195 201<1339.98 1490.69> -484 203<1338.75 1486.78>
LayerCount: 2
Fore
SplineSet
-737 1681 m 0
 -525 1681 -284 1618 -281 1418 c 1
 -282 1379 -300 1348 -333 1325 c 1
 -130 1325 l 1
 -130 1176 l 1
 -652 1176 l 1
 -652 1325 l 1
 -610 1325 l 2
 -526 1325 -484 1353 -484 1409 c 0
 -484 1488 -568 1527 -737 1527 c 0
 -872 1527 -994 1517 -994 1409 c 0
 -994 1353 -951 1325 -866 1325 c 2
 -822 1325 l 1
 -822 1176 l 1
 -863 1176 l 2
 -1041 1176 -1195 1235 -1195 1409 c 0
 -1195 1615 -949 1681 -737 1681 c 0
EndSplineSet
EndChar

StartChar: uni0EB6
Encoding: 3766 3766 240
Width: 0
GlyphClass: 2
Flags: HW
HStem: 1176 148<-829.903 -702 -467 -347.242> 1315 144<-644.185 -519.815> 1527 154<-793.43 -379.821>
VStem: -1043 201<1340.05 1488.51> -671 178<1338.2 1437.86> -331 202<1342.29 1491.02>
LayerCount: 2
Fore
SplineSet
-586 1527 m 0
 -722 1527 -839 1515 -842 1409 c 1
 -841 1354 -798 1325 -713 1324 c 1
 -702 1324 l 1
 -702 1176 l 1
 -711 1176 l 2
 -889 1176 -1043 1235 -1043 1409 c 0
 -1043 1616 -798 1681 -586 1681 c 0
 -368 1681 -129 1619 -129 1409 c 0
 -129 1239 -272 1176 -460 1176 c 2
 -467 1176 l 1
 -467 1324 l 1
 -458 1324 l 1
 -376 1328 -334 1356 -331 1409 c 1
 -334 1517 -453 1527 -586 1527 c 0
-582 1315 m 0
 -534 1315 -493 1343 -493 1390 c 0
 -493 1433 -536 1459 -582 1459 c 0
 -628 1459 -671 1435 -671 1390 c 0
 -671 1344 -632 1315 -582 1315 c 0
EndSplineSet
EndChar

StartChar: uni0EB7
Encoding: 3767 3767 241
Width: 0
GlyphClass: 2
Flags: HW
HStem: 1176 149<-983.875 -855 -619 -513.401 -332 -129> 1315 144<-795.732 -675.784> 1527 154<-959.953 -522.654>
VStem: -1195 201<1339.98 1489.8> -824 177<1338.2 1437.34> -484 204<1341.86 1487.08>
LayerCount: 2
Fore
SplineSet
-737 1527 m 0
 -858 1527 -990 1520 -994 1409 c 1
 -994 1353 -951 1325 -866 1325 c 2
 -855 1325 l 1
 -855 1176 l 1
 -863 1176 l 2
 -1041 1176 -1195 1235 -1195 1409 c 0
 -1195 1615 -949 1681 -737 1681 c 0
 -527 1681 -280 1618 -280 1418 c 0
 -280 1377 -297 1345 -332 1324 c 1
 -129 1324 l 1
 -129 1176 l 1
 -619 1176 l 1
 -619 1325 l 1
 -610 1325 l 2
 -533 1325 -484 1342 -484 1409 c 0
 -484 1488 -568 1527 -737 1527 c 0
-736 1315 m 0
 -686 1315 -651 1342 -647 1390 c 1
 -647 1433 -689 1459 -736 1459 c 0
 -785 1459 -820 1436 -824 1390 c 1
 -824 1345 -784 1315 -736 1315 c 0
EndSplineSet
EndChar

StartChar: uni0EB8
Encoding: 3768 3768 242
Width: 0
GlyphClass: 2
Flags: HW
HStem: -372 75<-366.56 -307.422> -182 96<-372.266 -271.065>
VStem: -503 122<-288.466 -190.619> -262 167<-295.81 -190.183>
LayerCount: 2
Fore
SplineSet
-503 -241 m 0
 -503 -133 -423 -86 -307 -86 c 0
 -192 -86 -95 -138 -95 -252 c 0
 -95 -411 -222 -531 -318 -607 c 1
 -425 -513 l 1
 -379 -461 -343 -421 -307 -364 c 1
 -334 -368 l 2
 -349 -370 -360 -372 -372 -372 c 0
 -455 -371 -503 -327 -503 -241 c 0
-381 -241 m 0
 -381 -275 -362 -297 -328 -297 c 2
 -274 -297 l 1
 -266 -275 -262 -254 -262 -234 c 0
 -262 -198 -288 -182 -327 -182 c 0
 -363 -182 -381 -205 -381 -241 c 0
EndSplineSet
EndChar

StartChar: uni0EB9
Encoding: 3769 3769 243
Width: 0
GlyphClass: 2
Flags: HW
HStem: -670 123<-405.736 -259.013> -460 94<-641.373 -556.875> -256 121<-652.307 -537.718>
VStem: -790 128<-356.17 -264.987> -565 144<-529.753 -432.616> -534 147<-365.608 -261.636> -251 152<-543.359 -142>
LayerCount: 2
Fore
SplineSet
-662 -306 m 0
 -662 -344 -632 -366 -594 -366 c 2
 -534 -366 l 1
 -537 -306 l 2
 -538 -279 -573 -261 -597 -256 c 1
 -631 -256 -662 -275 -662 -306 c 0
-335 -670 m 0
 -467 -670 -565 -627 -565 -506 c 0
 -565 -499 -564 -487 -562 -472 c 2
 -556 -432 l 1
 -575 -451 -593 -460 -612 -460 c 0
 -710 -460 -790 -408 -790 -312 c 0
 -790 -199 -711 -135 -598 -135 c 0
 -480 -135 -387 -195 -387 -312 c 0
 -387 -376 -421 -408 -421 -472 c 0
 -421 -520 -384 -541 -339 -547 c 1
 -251.956043956 -547 -250.999516967 -498.217123536 -250.999516967 -410.941919209 c 0
 -250.999516967 -408.980678662 -251 -407 -251 -405 c 2
 -251 -142 l 1
 -99 -142 l 1
 -99 -394 l 2
 -99 -575 -155 -670 -335 -670 c 0
EndSplineSet
EndChar

StartChar: uni0EBB
Encoding: 3771 3771 244
Width: 0
GlyphClass: 2
Flags: HW
HStem: 1176 148<-942.618 -818.769> 1446 162<-948.042 -807 -720 -331.634>
VStem: -1106 153<1335.27 1436.22> -807 114<1340.5 1445.16> -291 200<1176 1405.35>
LayerCount: 2
Fore
SplineSet
-1106 1414 m 0
 -1106 1579 -935 1608 -741 1608 c 2
 -533 1608 l 2
 -220 1608 -94 1487 -91 1176 c 1
 -291 1176 l 1
 -291 1361 -305 1446 -489 1446 c 2
 -720 1446 l 1
 -703 1392 l 2
 -696 1372 -693 1352 -693 1333 c 0
 -693 1234 -785 1176 -886 1176 c 0
 -1035 1176 -1106 1260 -1106 1414 c 0
-953 1384 m 1
 -953 1346 -925 1324 -884 1324 c 0
 -838 1324 -807 1343 -807 1388 c 2
 -807 1446 l 1
 -866 1446 l 1
 -921 1441 -950 1420 -953 1384 c 1
EndSplineSet
EndChar

StartChar: uni0EBC
Encoding: 3772 3772 245
Width: 0
GlyphClass: 2
Flags: HW
HStem: -532 171<-472.376 -324.394>
VStem: -1214 149<-377.562 -249.731> -951 120<-360.496 -234.625> -301 184<-353.26 -78>
LayerCount: 2
Fore
SplineSet
-1015 -379 m 1
 -975 -376 -951 -356 -951 -313 c 2
 -951 -231 l 1
 -1026 -241 -1064 -268 -1065 -312 c 1
 -1061 -355 -1044 -377 -1015 -379 c 1
-1005 -536 m 0
 -1141 -536 -1214 -447 -1214 -306 c 0
 -1214 -146 -1083 -78 -919 -78 c 0
 -718 -78 -561 -260 -430 -345 c 128
 -411 -358 -407 -361 -385 -361 c 0
 -307.635658187 -361 -295.4414305 -289.493902557 -295.4414305 -204.633399106 c 0
 -295.4414305 -165.566254776 -298.025870332 -123.668782877 -298.025870332 -84.614868556 c 0
 -298.025870332 -82.4004251381 -298.017560993 -80.195124159 -298 -78 c 1
 -113 -78 l 1
 -113 -326 -121 -532 -370 -532 c 0
 -598 -532 -694 -298 -861 -233 c 1
 -836 -337 l 2
 -833 -353 -831 -370 -831 -388 c 0
 -831 -485 -904 -536 -1005 -536 c 0
EndSplineSet
EndChar

StartChar: uni0EBD
Encoding: 3773 3773 246
Width: 1192
GlyphClass: 2
Flags: HW
HStem: -378 167<410.325 756.745> 34 113<323 417.073> 272 121<333.175 422.318> 1002 175<778.161 991.745> 1144 191<439.207 609.821>
VStem: 56 267<-122.931 43 147 246.728> 195 221<1000.09 1131> 431 153<155.756 262.623> 834 267<-129.26 581.575> 1012 198<1191.69 1335>
DStem2: 560 1317 501 1144 0.921635 -0.388057<-37.4125 389.218> 896 782 704 646 0.899814 -0.436274<-553.633 24.7959>
LayerCount: 2
Fore
SplineSet
431 208 m 0
 431 246 413 271 379 272 c 1
 331 272 323 227 323 172 c 2
 323 147 l 1
 371 147 l 2
 415 147 431 165 431 208 c 0
195 1071 m 0
 195 1242 309 1335 481 1335 c 0
 627 1335 787 1177 924 1177 c 0
 983 1177 1012 1230 1012 1335 c 1
 1210 1335 l 1
 1210 1121 1138 1002 930 1002 c 0
 781 1002 618 1092 501 1144 c 1
 452 1143 416 1123 416 1075 c 0
 416 1038 444 1005 500 974 c 1
 896 782 l 2
 1032 715 1101 653 1101 452 c 2
 1101 85 l 2
 1101 -244 898 -378 557 -378 c 0
 259 -378 56 -211 56 85 c 0
 56 271 169 393 355 393 c 0
 494 393 584 341 584 207 c 0
 584 91 527 34 407 34 c 0
 388 34 360 37 323 43 c 1
 326 -133 410 -211 588 -211 c 0
 776 -211 834 -117 834 71 c 2
 834 349 l 2
 834 512 812 594 704 646 c 2
 421 785 l 2
 299 844 195 899 195 1071 c 0
EndSplineSet
EndChar

StartChar: uni0EC0
Encoding: 3776 3776 247
Width: 701
GlyphClass: 2
Flags: HW
HStem: 0 121<373.744 465.194> 246 114<364.611 453.012> 922 181<392.04 627.456>
VStem: 96 266<150.397 246 342 896.707> 469 166<123.958 237.589>
LayerCount: 2
Fore
SplineSet
472 360 m 0
 572 360 635 285 635 184 c 0
 635 61 554 0 393 0 c 0
 216 0 96 128 96 305 c 2
 96 615 l 2
 96 907 169 1103 455 1103 c 0
 520 1103 561 1093 629 1080 c 1
 629 900 l 1
 583 908 538 922 486 922 c 0
 363.876923077 922 361.998106509 807.392189349 361.998106509 681.973957214 c 0
 361.998106509 677.992426036 362 674 362 670 c 2
 362 342 l 1
 418 354 455 360 472 360 c 0
363 232 m 2
 363 179 370 121 414 121 c 0
 450 121 468 141 469 182 c 1
 469 226 450 246 408 246 c 2
 363 246 l 1
 363 232 l 2
EndSplineSet
EndChar

StartChar: uni0EC2
Encoding: 3778 3778 249
Width: 769
GlyphClass: 2
Flags: HW
HStem: 0 139<409.317 508.757> 283 124<401.673 501.949> 1650 212<113 264.814>
VStem: -127 229<1501.91 1637.32> 132 267<159.633 283 384 1279.78> 520 182<149.682 271.243>
DStem2: 416.5 1744.5 321 1558 0.730375 -0.683046<-118.272 464.83>
LayerCount: 2
Fore
SplineSet
458 139 m 0
 498 139 520 169 520 212 c 0
 520 256 495 283 450 283 c 2
 399 283 l 1
 399 230 l 2
 399 175 410 139 458 139 c 0
423 0 m 0
 222 0 132 145 132 348 c 2
 132 978 l 2
 132 985.2 132.0032 992.2512 132.0032 999.159424 c 0
 132.0032 1164.9568 130.16 1248.4 38 1330 c 2
 3 1361 l 2
 -72 1427 -127 1467 -127 1601 c 0
 -127 1735 -20 1862 113 1862 c 0
 326 1862 422 1746 538 1635 c 2
 756 1427 l 1
 633 1267 l 1
 503 1396 l 1
 448 1449 388 1501 321 1558 c 1
 282 1596 231 1650 166 1650 c 0
 127 1650 102 1615 102 1573 c 0
 102 1536 144 1503 172 1477 c 1
 246 1414 l 2
 357 1319 399 1229 399 1020 c 2
 399 384 l 1
 456 399 493 407 510 407 c 0
 624 407 702 321 702 207 c 0
 702 59 574 0 423 0 c 0
EndSplineSet
EndChar

StartChar: uni0EC3
Encoding: 3779 3779 250
Width: 884
GlyphClass: 2
Flags: HW
HStem: 0 139<481.071 581.538> 284 122<472.519 572.402> 1260 140<69.7794 295.43> 1745 185<122.644 574.427>
VStem: -178 213<1433.99 1664.71> 202 268<161.179 284 383 973.184> 316 168<1418.56 1598.43> 592 183<150.08 271.613> 666 224<1392.19 1664.65>
DStem2: 331 1125 549 1007.5 0.787945 0.615745<-25.1976 423.575>
LayerCount: 2
Fore
SplineSet
533 139 m 0
 572 139 592 171 592 213 c 0
 592 258 564 284 518 284 c 2
 470 284 l 1
 470 233 l 2
 470 176 482 139 533 139 c 0
316 1492 m 0
 316 1547 269 1621 228 1637 c 1
 408 1637 l 1
 458 1588 483 1539 484 1488 c 1
 484 1336 349 1260 194 1260 c 0
 -4 1260 -178 1358 -178 1555 c 0
 -178 1839 39 1930 348 1930 c 0
 672 1930 890 1836 890 1517 c 0
 890 1245 702 1138 549 1008 c 128
 471 942 470 855 470 705 c 2
 470 383 l 1
 524 398 561 406 582 406 c 0
 694 406 775 319 775 207 c 0
 775 58 646 0 494 0 c 0
 287 0 202 128 202 345 c 2
 202 741 l 2
 202 938 222 1040 331 1125 c 2
 482 1243 l 2
 575 1315 666 1406 666 1542 c 0
 666 1699 524 1745 350 1745 c 0
 174 1745 35 1701 35 1544 c 0
 35 1448 91 1400 204 1400 c 0
 271 1400 316 1427 316 1492 c 0
EndSplineSet
EndChar

StartChar: uni0EC4
Encoding: 3780 3780 251
Width: 827
GlyphClass: 2
Flags: HW
HStem: 0 140<443.833 545.201> 283 124<436.641 538.465> 1415 190<-18.1776 114.701> 1649 209<381.346 544.694>
VStem: -211 182<1621.99 1860> 167 267<159.602 283 380 1168.44> 555 228<1502.48 1637.94> 556 183<151.21 270.582>
DStem2: 109.5 1646.5 222.5 1494 0.816818 0.576895<-83.0789 312.466> 403 1404 603 1320 0.733015 0.680213<-145.192 232.262>
LayerCount: 2
Fore
SplineSet
462 0 m 0
 260 0 167 139 167 343 c 2
 167 916 l 2
 167 1175 265 1279 403 1404 c 2
 481 1475 l 2
 514 1506 555 1528 555 1582 c 0
 555 1622 532 1649 491 1649 c 0
 328 1649 207 1415 56 1415 c 0
 -109 1415 -211 1513 -211 1676 c 2
 -211 1860 l 1
 -29 1860 l 1
 -29 1666 l 2
 -29 1627 0 1606 37 1605 c 1
 204 1605 325 1858 528 1858 c 0
 659 1858 783 1756 783 1626 c 0
 783 1529 757 1467 710 1416 c 1
 603 1320 l 2
 492 1220 434 1126 434 916 c 2
 434 380 l 1
 491 398 526 407 541 407 c 0
 659 407 739 325 739 207 c 0
 739 61 612 0 462 0 c 0
492 140 m 0
 535 140 555 169 556 212 c 0
 556 252 531 283 490 283 c 2
 434 283 l 1
 434 229 l 2
 434 173 444 140 492 140 c 0
EndSplineSet
EndChar

StartChar: uni0EC6
Encoding: 3782 3782 252
Width: 1356
GlyphClass: 2
Flags: HW
HStem: -373 173<544.463 933.263> 384 139<353.564 453.268> 667 123<345.145 458.873> 937 169<355.081 513.628 868.977 1006.29>
VStem: 76 267<542.601 667 770 920.204> 464 168<533.606 662.94> 1024 268<-91.9885 929.262>
LayerCount: 2
Fore
SplineSet
973 1106 m 0
 1230 1106 1292 911 1292 649 c 2
 1292 206 l 2
 1292 -171 1145 -373 771 -373 c 0
 570 -373 447 -294 356 -173 c 1
 421 -104 l 1
 513 -153 636 -200 772 -200 c 0
 996 -200 1024 -38 1024 192 c 2
 1024 734 l 2
 1024 760.036036036 1025.59500041 789.16824933 1025.59500041 817.057089229 c 0
 1025.59500041 880.217109001 1017.41441441 937 964 937 c 0
 837 937 821 768 698 768 c 256
 570 768 543 937 400 937 c 256
 343 937 345 847 343 770 c 1
 389 783 419 790 433 790 c 0
 548 790 632 707 632 591 c 0
 632 443 532 384 373 384 c 0
 191 384 76 503 76 685 c 0
 76 917 173 1106 401 1106 c 0
 538 1106 625 1015 698 946 c 1
 753 1027 843 1106 973 1106 c 0
405 523 m 0
 444 523 464 553 464 595 c 0
 463 643 438 667 389 667 c 2
 343 667 l 1
 343 609 l 2
 343 554 355 523 405 523 c 0
EndSplineSet
EndChar

StartChar: uni0EC8
Encoding: 3784 3784 253
Width: 0
GlyphClass: 2
Flags: HW
HStem: 1245 406<-542 -349>
VStem: -542 193<1245 1651>
LayerCount: 2
Fore
SplineSet
-542 1245 m 1
 -542 1651 l 1
 -349 1651 l 1
 -349 1245 l 1
 -542 1245 l 1
EndSplineSet
EndChar

StartChar: uni0EC9
Encoding: 3785 3785 254
Width: 0
GlyphClass: 2
Flags: HW
HStem: 1217 157<-783 -292.364> 1217 75<-1061 -947.219> 1405 96<-965.152 -851.818> 1609 123<-956.246 -850.136>
VStem: -1095 129<1511.92 1599.69> -839 162<1502.22 1604.5> -252 200<1414.58 1661>
LayerCount: 2
Fore
SplineSet
-894 1609 m 1
 -940 1609 -966 1593 -966 1550 c 1
 -964 1520 -922 1504 -839 1501 c 1
 -839 1513 l 1
 -844 1572 -863 1604 -894 1609 c 1
-1095 1554 m 0
 -1095 1668 -1015 1732 -897 1732 c 0
 -762 1732 -677 1661 -677 1526 c 0
 -677 1451 -707 1420 -757 1388 c 1
 -783 1374 l 1
 -534 1374 l 2
 -289 1374 -255 1417 -249 1661 c 1
 -52 1661 l 1
 -52 1586 l 2
 -52 1268 -215 1217 -536 1217 c 2
 -1061 1217 l 1
 -1061 1292 l 1
 -978 1323 -874 1324 -851 1415 c 1
 -868 1408 -893 1405 -925 1405 c 0
 -1020 1405 -1095 1460 -1095 1554 c 0
EndSplineSet
EndChar

StartChar: uni0ECA
Encoding: 3786 3786 255
Width: 0
GlyphClass: 2
Flags: HW
HStem: 1215 88<-797.181 -718 -532 -453.881 -349 -175> 1462 121<-811.936 -681.087 -556.768 -427.604>
VStem: -952 128<1322.59 1450.53> -425 146<1323.42 1458.94>
LayerCount: 2
Fore
SplineSet
-718 1216 m 1
 -844 1216 -952 1272 -952 1396 c 0
 -952 1503 -895 1583 -788 1583 c 0
 -700 1583 -643 1540 -620 1479 c 1
 -594 1537 -539 1583 -452 1583 c 0
 -354 1583 -279 1520 -279 1423 c 0
 -279 1364 -307 1322 -349 1303 c 1
 -175 1303 l 1
 -175 1215 l 1
 -532 1215 l 1
 -532 1304 l 1
 -468 1305 -425 1332 -425 1395 c 0
 -425 1440 -448 1462 -494 1462 c 0
 -529 1462 -551 1436 -567 1395 c 1
 -672 1395 l 1
 -681 1417 l 1
 -697 1447 -722 1462 -756 1462 c 0
 -794 1462 -824 1434 -824 1395 c 0
 -824 1333 -784 1304 -718 1304 c 1
 -718 1216 l 1
EndSplineSet
EndChar

StartChar: uni0ECB
Encoding: 3787 3787 256
Width: 0
GlyphClass: 2
Flags: HW
HStem: 1374 106<-790 -676 -562 -448>
VStem: -676 114<1262 1374 1480 1593>
LayerCount: 2
Fore
SplineSet
-562 1262 m 1
 -676 1262 l 1
 -676 1374 l 1
 -790 1374 l 1
 -790 1480 l 1
 -676 1480 l 1
 -676 1593 l 1
 -562 1593 l 1
 -562 1480 l 1
 -448 1480 l 1
 -448 1374 l 1
 -562 1374 l 1
 -562 1262 l 1
EndSplineSet
EndChar

StartChar: uni0ECC
Encoding: 3788 3788 257
Width: 0
GlyphClass: 2
Flags: HW
HStem: 1215 101<-623.504 -525.361> 1417 153<-614.977 -517 -455 -303.914>
VStem: -729 97<1323.95 1408.81> -517 83<1329.41 1416.08> -302 139<1572.71 1645>
LayerCount: 2
Fore
SplineSet
-729 1387 m 0
 -729 1517 -638 1570 -500 1570 c 2
 -375 1570 l 2
 -319 1570 -302 1589 -302 1645 c 1
 -163 1645 l 1
 -168 1482 -219 1417 -385 1417 c 2
 -455 1417 l 1
 -438 1358 l 1
 -435 1353 -434 1342 -434 1325 c 0
 -434 1253 -500 1215 -576 1215 c 0
 -681 1215 -729 1279 -729 1387 c 0
-574 1316 m 256
 -540 1316 -517 1332 -517 1365 c 2
 -517 1417 l 1
 -551 1417 l 2
 -603 1417 -632 1410 -632 1365 c 0
 -632 1333 -608 1316 -574 1316 c 256
EndSplineSet
EndChar

StartChar: uni0ECD
Encoding: 3789 3789 258
Width: 0
GlyphClass: 2
Flags: HW
HStem: 1213 133<-668.476 -531.74> 1515 130<-675.558 -524.787>
VStem: -822 136<1364.4 1504.13> -514 137<1362.71 1504.99>
LayerCount: 2
Fore
SplineSet
-599 1346 m 0
 -551 1346 -514 1381 -514 1431 c 0
 -514 1479 -551 1515 -599 1515 c 0
 -648 1515 -686 1479 -686 1431 c 0
 -686 1384 -648 1346 -599 1346 c 0
-377 1428 m 0
 -377 1304 -475 1213 -599 1213 c 256
 -724 1213 -822 1303 -822 1428 c 256
 -822 1553 -724 1645 -599 1645 c 0
 -474 1645 -377 1553 -377 1428 c 0
EndSplineSet
EndChar

StartChar: uni0ED0
Encoding: 3792 3792 259
Width: 1216
GlyphClass: 2
Flags: HW
HStem: -11 191<453.116 762.884> 999 193<448.367 767.633>
VStem: 72 214<372.538 815.623> 930 214<372.538 815.623>
LayerCount: 2
Fore
SplineSet
72 604 m 0
 72 934 276 1192 608 1192 c 256
 940 1192 1144 934 1144 604 c 0
 1144 241 964 -11 608 -11 c 256
 252 -11 72 241 72 604 c 0
286 601 m 0
 286 374 388 180 608 180 c 256
 828 180 930 374 930 601 c 0
 930 817 824 999 608 999 c 256
 392 999 286 817 286 601 c 0
EndSplineSet
EndChar

StartChar: uni0ED1
Encoding: 3793 3793 260
Width: 1304
GlyphClass: 2
Flags: HW
HStem: -31 146<510 691.842> 386 147<591 702.017> 677 125<594.18 709.921> 998 195<444.391 834.1>
VStem: 76 267<605.745 902.412> 450 141<552.493 674.714> 712 167<548.306 675.212> 1012 268<425.398 821.027>
LayerCount: 2
Fore
SplineSet
450 619 m 0
 450 746 535 802 669 802 c 0
 797 802 879 731 879 603 c 0
 879 444 751 386 575 386 c 0
 329 386 76 500 76 740 c 0
 76 1042 319 1193 625 1193 c 0
 998 1193 1280 999 1280 631 c 0
 1280 222 912 -31 510 -31 c 1
 510 115 l 1
 783 131 1012 338 1012 625 c 0
 1012 863 870 998 632 998 c 0
 439 998 343 912 343 740 c 0
 343 647 384 584 465 551 c 1
 455 583 450 606 450 619 c 0
652 677 m 1
 611 677 591 654 591 608 c 2
 591 533 l 1
 672 537 712 563 712 612 c 0
 712 654 692 676 652 677 c 1
EndSplineSet
EndChar

StartChar: uni0ED2
Encoding: 3794 3794 261
Width: 1372
GlyphClass: 2
Flags: HW
HStem: 0 167<478.959 971.074> 285 124<673.912 770.981>
VStem: 86 267<279.664 581.43> 500 169<411.406 528.948> 788 142<426.02 547.859> 923 200<1245.97 1401> 1080 266<257.881 487.657>
DStem2: 368.5 866 546 719.5 0.838166 0.545415<-150.254 643.724>
LayerCount: 2
Fore
SplineSet
788 553 m 1
 718 547 669 538 669 475 c 1
 674 434 693 412 726 409 c 1
 767 409 788 433 788 476 c 2
 788 553 l 1
713 167 m 0
 910 167 1080 208 1080 377 c 0
 1080 477 1005 533 910 550 c 1
 923 504 930 479 930 474 c 0
 930 348 856 285 708 285 c 0
 589 285 500 357 500 476 c 0
 500 644 669 712 842 712 c 0
 1098 712 1346 616 1346 368 c 0
 1346 76 1023 0 689 0 c 0
 387 0 86 115 86 409 c 0
 86 864 619 961 838 1194 c 128
 891 1250 923 1305 923 1401 c 1
 1123 1401 l 1
 1123 930 668 871 436 628 c 128
 386 576 353 523 353 430 c 0
 353 255 473 167 713 167 c 0
EndSplineSet
EndChar

StartChar: uni0ED3
Encoding: 3795 3795 262
Width: 1619
GlyphClass: 2
Flags: HW
HStem: 0 167<892.835 1206.76> 283 124<181.526 286.336> 1588 189<906.116 1079.43>
VStem: 5 167<151.788 272.614> 293 141<166.586 279.82> 541 267<259.789 1104> 683 212<1470.24 1577.86> 1285 261<247.259 989.736>
DStem2: 976 1442.5 813 1314.5 0.844299 -0.535872<-115.09 463.785> 1397 1550 1283 1410 0.803201 -0.595708<-364.404 141.236>
LayerCount: 2
Fore
SplineSet
231 283 m 1
 193 280 172 259 172 218 c 0
 172 175 199 150 252 142 c 1
 293 139 l 1
 293 191 l 2
 293 252 272 283 231 283 c 1
5 215 m 0
 5 341 97 407 225 407 c 0
 353 407 434 351 434 225 c 0
 434 206 428 188 423 166 c 1
 502 213 541 316 541 476 c 2
 541 1104 l 1
 808 1104 l 1
 808 483 l 2
 808 287 860 167 1053 167 c 0
 1229 167 1285 266 1285 447 c 2
 1285 812 l 2
 1285 1153 908 1205 738 1375 c 128
 703 1410 683 1446 683 1510 c 0
 683 1680 791 1777 962 1777 c 0
 1123 1777 1265 1652 1397 1550 c 2
 1513 1460 l 1
 1403 1321 l 1
 1283 1410 l 2
 1181 1485 1070 1588 961 1588 c 0
 927 1588 895 1565 895 1530 c 0
 895 1478 990 1432 1027 1410 c 0
 1243 1279 1546 1160 1546 830 c 2
 1546 469 l 2
 1546 148 1382 0 1056 0 c 0
 873 0 708 83 679 236 c 1
 639 84 477 0 284 0 c 0
 129 0 5 63 5 215 c 0
EndSplineSet
EndChar

StartChar: uni0ED4
Encoding: 3796 3796 263
Width: 1392
GlyphClass: 2
Flags: HW
HStem: -2 169<452.578 1030> 487 125<1027.91 1100.92> 758 137<1010.84 1116.96>
VStem: 86 266<269.422 737.015> 730 268<612.81 737.887> 1120 166<623.443 756.552>
DStem2: 359 1010 517 835 0.906799 0.421563<-90.625 645.187>
LayerCount: 2
Fore
SplineSet
1049 612 m 2
 1096 612 1120 637 1120 685 c 0
 1120 734 1101 758 1064 758 c 0
 1020 758 1000 727 998 684 c 1
 998 679 l 1
 997 678 997 676 997 673 c 256
 997 654 999 637 1001 612 c 1
 1049 612 l 2
1025 895 m 0
 1191 895 1285 839 1286 684 c 0
 1286 572 1205 487 1092 487 c 0
 1068 487 1046 491 1027 500 c 1
 1078 363 1197 262 1356 229 c 1
 1320 -2 l 1
 675 -2 l 2
 338 -2 86 115 86 451 c 0
 86 762 148 912 359 1010 c 2
 772 1202 l 2
 873 1249 935 1330 998 1415 c 1
 1164 1276 l 1
 1095 1176 1022 1070 906 1017 c 1
 517 835 l 1
 375 766 352 665 352 455 c 0
 352 262 438 167 631 167 c 2
 1030 167 l 1
 980 196 l 2
 850 272 730 398 730 598 c 0
 730 775 847 895 1025 895 c 0
EndSplineSet
EndChar

StartChar: uni0ED5
Encoding: 3797 3797 264
Width: 1394
GlyphClass: 2
Flags: HW
HStem: 0 167<458.24 1031> 487 125<1026.94 1099.34> 756 139<1004.49 1110.03> 1217 151<504.096 625.731>
VStem: 86 267<280.777 733.429> 337 156<1111.74 1207.75> 731 267<529.784 752.449> 1121 166<624.138 743.951>
LayerCount: 2
Fore
SplineSet
1121 685 m 0
 1121 727 1105 756 1065 756 c 0
 1020 756 998 725 998 662 c 0
 998 645 999 628 1001 612 c 1
 1034 612 l 2
 1090 612 1121 631 1121 685 c 0
565 1102 m 0
 602 1102 626 1132 626 1168 c 0
 626 1201 607 1217 569 1217 c 0
 525 1217 493 1202 493 1160 c 0
 493 1120 523 1102 565 1102 c 0
337 1175 m 0
 337 1302 444 1368 573 1368 c 0
 705 1368 764 1298 785 1178 c 1
 870 1216 942 1319 996 1389 c 1
 1163 1255 l 1
 1105 1131 1027 1048 906 991 c 1
 858 961 786 959 698 944 c 1
 644 893 589 859 534 840 c 1
 403 778 353 704 353 515 c 0
 353 297 417 167 632 167 c 2
 1031 167 l 1
 982 196 l 2
 852 274 731 397 731 598 c 0
 731 784 848 895 1034 895 c 0
 1203 895 1287 825 1287 685 c 0
 1287 573 1207 487 1095 487 c 0
 1069 487 1046 491 1026 500 c 1
 1074 365 1206 257 1358 229 c 1
 1321 0 l 1
 610 0 l 2
 306 0 86 146 86 447 c 0
 86 775 140 927 368 1014 c 1
 392 1023 l 1
 355 1064 337 1114 337 1175 c 0
EndSplineSet
EndChar

StartChar: uni0ED6
Encoding: 3798 3798 265
Width: 1445
GlyphClass: 2
Flags: HW
HStem: 0 167<401.87 574.467 922.643 1097.69> 698 123<375.961 472.792> 965 140<380.115 485.542> 1495 191<849.113 1031.76>
VStem: 106 268<193.681 719 821 962.5> 496 166<836.629 954.233> 612 217<1365.01 1485.38> 614 267<224.761 557> 1132 267<197.635 909.873>
DStem2: 939 1320 714 1220 0.838036 -0.545615<-157.107 329.345>
LayerCount: 2
Fore
SplineSet
496 896 m 0
 496 938 474 965 432 965 c 1
 393 964 374 933 374 870 c 2
 374 821 l 1
 409 821 l 1
 459 825 496 845 496 896 c 0
397 1105 m 0
 546 1105 662 1042 662 901 c 0
 662 780 589 698 468 698 c 0
 447 698 416 705 374 719 c 1
 374 383 l 2
 374 268 382 167 493 167 c 0
 574 167 614 246 614 405 c 2
 614 557 l 1
 881 557 l 1
 881 382 l 2
 881 269 910 167 1011 167 c 0
 1124.64900662 167 1132.1754309 291.186000614 1132.1754309 416.149565591 c 0
 1132.1754309 435.227972457 1132 454.324503311 1132 473 c 0
 1132 772 1121 943 949 1067 c 128
 817 1161 612 1210 612 1432 c 0
 612 1593 729 1686 891 1686 c 0
 1073 1686 1180 1594 1279 1505 c 1
 1399 1395 l 1
 1279 1280 l 1
 1166 1362 l 2
 1094 1414 1021 1492 920 1492 c 128
 915 1492 909 1493 904 1495 c 1
 863 1494 829 1479 829 1440 c 0
 829 1343 1065 1243 1120 1205 c 128
 1340 1054 1399 869 1399 488 c 2
 1399 462 l 1
 1398 183 1311 0 1048 0 c 0
 875 0 772 71 745 215 c 1
 725 75 625 0 461 0 c 0
 197 0 106 183 106 463 c 2
 106 763 l 2
 106 962 200 1105 397 1105 c 0
EndSplineSet
EndChar

StartChar: uni0ED7
Encoding: 3799 3799 266
Width: 1415
GlyphClass: 2
Flags: HW
HStem: 0 140<248.589 347.891> 283 124<240.279 355.61> 698 128<245.757 358> 935 169<741.072 1031.08> 968 136<243.765 346.007>
VStem: 70 167<151.338 280.014 838.377 958.599> 358 268<162.178 283 384 702> 1077 267<-148.905 883.01> 1125 264<-160 104>
LayerCount: 2
Fore
SplineSet
237 216 m 4
 237 171 254 142 295 140 c 5
 347 140 358 174 358 231 c 6
 358 283 l 5
 307 283 l 6
 260 283 237 261 237 216 c 4
299 968 m 5
 257 968 234 945 234 903 c 4
 234 857 258 826 305 826 c 4
 310 826 327 830 358 837 c 5
 358 876 l 6
 358 927 343 965 299 968 c 5
581 973 m 5
 689 1043 791 1104 934 1104 c 4
 1207 1104 1344 955 1344 657 c 6
 1344 165 l 6
 1344 67 1359 -41 1389 -160 c 5
 1125 -160 l 5
 1093 -61 1077 43 1077 153 c 6
 1077 661 l 6
 1077 822 1063 935 906 935 c 4
 786 935 708 876 624 826 c 5
 625 809 626 796 626 783 c 6
 626 332 l 6
 626 134 522 0 324 0 c 4
 155 0 70 72 70 216 c 4
 70 332 154 407 271 407 c 4
 278 407 307 399 358 384 c 5
 358 702 l 5
 340 699 325 698 306 698 c 4
 171 698 65 768 65 902 c 4
 65 1041 182 1104 324 1104 c 4
 453 1104 524 1056 581 973 c 5
EndSplineSet
EndChar

StartChar: uni0ED8
Encoding: 3800 3800 267
Width: 1469
GlyphClass: 2
Flags: HW
HStem: -617 125<853.546 963.087> -616 182<275.887 467.207> 0 21G<347 448> 283 125<354.992 456.402> 935 169<387.685 582.49 928.708 1114.83>
VStem: 86 267<143.059 283 387 881.876> 88 181<-428.234 -301.271> 476 167<144.668 270.392> 620 267<525 878.783> 973 144<-484.042 -387.606> 1146 268<117 907.452>
DStem2: 390 -93 392 -270 0.963243 0.268633<-183.436 645.123>
LayerCount: 2
Fore
SplineSet
1146 714 m 2
 1146 829 1139 935 1029 935 c 0
 913 935 887 841 887 714 c 2
 887 525 l 1
 620 525 l 1
 620 714 l 2
 620 842 598 935 487 935 c 0
 374 935 353 847 353 722 c 2
 353 387 l 1
 396 401 427 408 447 408 c 0
 562 408 643 320 643 204 c 0
 643 57 540 0 380 0 c 0
 199 0 86 133 86 315 c 2
 86 642 l 2
 86 950 208 1104 453 1104 c 0
 626 1104 727 1032 756 889 c 1
 782 1032 881 1104 1052 1104 c 0
 1318 1104 1414 933 1414 653 c 2
 1414 233 l 2
 1414 16 1350 -87 1215 -168 c 1
 1031 -280 l 1
 1081 -326 1117 -361 1117 -458 c 0
 1117 -558 1019 -617 918 -617 c 0
 811 -617 747 -547 715 -461 c 1
 582 -536 l 2
 505 -579 431 -616 333 -616 c 256
 197 -616 88 -524 88 -389 c 0
 88 -182 223 -140 390 -93 c 2
 1143 117 l 1
 1145 146 1146 183 1146 229 c 2
 1146 714 l 2
476 212 m 1
 476 257 447 283 400 283 c 2
 353 283 l 1
 353 234 l 1
 358 174 378 142 411 139 c 1
 452 145 473 169 476 212 c 1
733 -269 m 1
 755 -245 781 -216 810 -201 c 2
 1004 -106 l 2
 1021 -97 1040 -86 1055 -76 c 2
 1079 -60 l 1
 392 -270 l 2
 338 -286 269 -301 269 -364 c 1
 275 -408 299 -431 342 -434 c 1
 470 -434 629 -315 733 -269 c 1
908 -492 m 0
 943 -492 973 -476 973 -441 c 0
 973 -402 953 -378 914 -378 c 0
 865 -378 852 -398 852 -440 c 0
 852 -466 879 -492 908 -492 c 0
EndSplineSet
EndChar

StartChar: uni0ED9
Encoding: 3801 3801 268
Width: 1503
GlyphClass: 2
Flags: HW
HStem: 0 167<982.282 1158.14> 0 139<364.264 467.116> 283 123<354.499 472.97> 935 169<399.895 631.909>
VStem: 86 267<159.116 283 384 886.004> 477 167<149.349 280.459> 680 267<221.671 884.972> 1190 267<194.055 1104>
LayerCount: 2
Fore
SplineSet
418 139 m 0
 459 139 477 168 477 212 c 0
 477 259 454 283 409 283 c 2
 353 283 l 1
 353 226 l 2
 353 170 367 139 418 139 c 0
947 388 m 2
 947 267 966 167 1069 167 c 0
 1180 167 1190 273 1190 388 c 2
 1190 1104 l 1
 1457 1104 l 1
 1457 428 l 2
 1457 146 1358 0 1079 0 c 0
 814 0 680 110 680 369 c 2
 680 739 l 2
 680 861 630 935 514 935 c 0
 404 935 353 860 353 743 c 2
 353 384 l 1
 385 399 416 406 446 406 c 0
 565 406 644 327 644 207 c 0
 644 57 544 0 382 0 c 0
 187 0 86 136 86 333 c 2
 86 701 l 2
 86 969 254 1104 524 1104 c 0
 805 1104 947 975 947 698 c 2
 947 388 l 2
EndSplineSet
EndChar

StartChar: uni0EDC
Encoding: 3804 3804 269
Width: 2558
GlyphClass: 2
Flags: HW
HStem: 0 167<478.362 809.354 1201 1405.38 1840.5 2177.72> 697 123<192.113 257.096 764.268 883> 936 168<1290.48 1471.5> 965 139<183.997 296.521 764.381 874.029>
VStem: 5 167<832.517 953.96> 166 251<222.677 542.734> 307 225<822.544 954.199> 586 168<831.317 955.308> 883 267<242.539 700 819.831 821> 1507 267<258.237 918.977> 2235 269<227.587 1104>
LayerCount: 2
Fore
SplineSet
307 901 m 0
 307 942 281 965 239 965 c 0
 199 965 172 938 172 897 c 0
 172 849 198 820 246 820 c 2
 290 820 l 1
 301 873 307 900 307 901 c 0
818 965 m 0
 777 965 754 942 754 900 c 0
 754 855 772 818 816 818 c 0
 833 818 856 822 883 830 c 1
 883 857 l 2
 883 929 861 965 818 965 c 0
1123 963 m 1
 1220 1026 1320 1104 1462 1104 c 0
 1713 1104 1774 919 1774 663 c 2
 1774 408 l 2
 1774 238 1841 167 2010 167 c 0
 2183 167 2235 229 2235 402 c 2
 2235 1104 l 1
 2504 1104 l 1
 2504 422 l 2
 2504 141 2337 0 2002 0 c 0
 1809 0 1686 77 1635 230 c 1
 1597 77 1452 0 1201 0 c 1
 1201 168 l 1
 1409 168 1507 238 1507 445 c 2
 1507 658 l 2
 1507 684.453333333 1507.72817778 712.272 1507.72817778 739.669537185 c 0
 1507.72817778 840.697955556 1497.82666667 936 1405 936 c 0
 1317 936 1225 874 1150 821 c 1
 1150 451 l 2
 1150 152 961 0 661 0 c 0
 400 0 166 83 166 338 c 0
 166 372 193 483 246 670 c 1
 249 676 253 689 258 710 c 1
 229 702 207 697 179 697 c 0
 68 697 5 788 5 901 c 0
 5 1041 118 1104 260 1104 c 0
 411 1104 532 1025 532 875 c 0
 532 774 417 460 417 326 c 0
 417 211 527 167 653 167 c 0
 816 167 883 250 883 417 c 2
 883 700 l 1
 858 695 831 692 800 692 c 0
 678 692 586 779 586 901 c 256
 586 1041 708 1104 851 1104 c 0
 980 1104 1077 1050 1123 963 c 1
EndSplineSet
EndChar

StartChar: uni0EDD
Encoding: 3805 3805 270
Width: 2751
GlyphClass: 2
Flags: HW
HStem: 0 167<478.594 811.117 2057.5 2365.97> 0 150<1407.54 1639.73> 200 108<1377.94 1472.53> 435 124<1381.35 1480.91> 692 126<193.66 256.781 772.229 890.187> 935 169<1297.96 1611.14> 965 139<183.552 296.467 771.408 882.632>
VStem: 5 167<833.09 954.076> 166 252<223.601 545.078> 592 169<830.536 955.222> 891 268<249.289 700 819.723 842.172> 1190 184<308 431.873> 1489 158<318.546 426.686> 1714 267<248.957 827.458> 2430 267<234.844 1104>
DStem2: 189 468 451.5 517 0.274196 0.961674<-70.3389 251.645>
LayerCount: 2
Back
SplineSet
1591.90039062 216 m 0
 1591.90039062 171 1608.90039062 142 1649.90039062 140 c 1
 1701.90039062 140 1712.90039062 174 1712.90039062 231 c 2
 1712.90039062 283 l 1
 1661.90039062 283 l 2
 1614.90039062 283 1591.90039062 261 1591.90039062 216 c 0
1653.90039062 968 m 1
 1611.90039062 968 1588.90039062 945 1588.90039062 903 c 0
 1588.90039062 857 1612.90039062 826 1659.90039062 826 c 0
 1664.90039062 826 1681.90039062 830 1712.90039062 837 c 1
 1712.90039062 876 l 2
 1712.90039062 927 1697.90039062 965 1653.90039062 968 c 1
1935.90039062 973 m 1
 2043.90039062 1043 2145.90039062 1104 2288.90039062 1104 c 0
 2561.90039062 1104 2698.90039062 955 2698.90039062 657 c 2
 2698.90039062 165 l 2
 2698.90039062 67 2713.90039062 -41 2743.90039062 -160 c 1
 2479.90039062 -160 l 1
 2447.90039062 -61 2431.90039062 43 2431.90039062 153 c 2
 2431.90039062 661 l 2
 2431.90039062 822 2417.90039062 935 2260.90039062 935 c 0
 2140.90039062 935 2062.90039062 876 1978.90039062 826 c 1
 1979.90039062 809 1980.90039062 796 1980.90039062 783 c 2
 1980.90039062 332 l 2
 1980.90039062 134 1876.90039062 0 1678.90039062 0 c 0
 1509.90039062 0 1424.90039062 72 1424.90039062 216 c 0
 1424.90039062 332 1508.90039062 407 1625.90039062 407 c 0
 1632.90039062 407 1661.90039062 399 1712.90039062 384 c 1
 1712.90039062 702 l 1
 1694.90039062 699 1679.90039062 698 1660.90039062 698 c 0
 1525.90039062 698 1419.90039062 768 1419.90039062 902 c 0
 1419.90039062 1041 1536.90039062 1104 1678.90039062 1104 c 0
 1807.90039062 1104 1878.90039062 1056 1935.90039062 973 c 1
EndSplineSet
Fore
SplineSet
533 875 m 0xbb7e
 533 749 418 485 418 329 c 0
 418 212 525 167 654 167 c 0
 826 167 891 261 891 437 c 2
 891 700 l 1
 864 695 836 692 805 692 c 0
 685 692 592 780 592 900 c 0
 592 1040 704 1104 847 1104 c 0xbafe
 976 1104 1061 1058 1120 981 c 1
 1209.65 1046 1304.73333333 1104 1446 1104 c 0x3cfe
 1693.20359281 1104 1863 937 1863 642 c 2
 1863 271 l 17
 1903.92682937 232.343982515 2013.78889834 167 2099 167 c 256
 2283 167 2316 270 2316 457 c 2
 2316 1104 l 1
 2583 1104 l 1
 2583 459 l 2
 2583 144 2436.08641975 0 2158 0 c 0xbafe
 2000.35197368 0 1888.24671053 54.9183673469 1803 138 c 1
 1771.2331543 25.1667480469 1646.77131323 0 1561.23339844 0 c 0x78fe
 1367.02879459 0 1281.32226562 106.910784079 1281.32226562 211.412109375 c 0
 1281.32226562 336.31101514 1390.87092206 405.053064827 1500.99085497 405.053064827 c 0
 1535.01041564 405.053064827 1569.08449833 398.492397704 1600 385 c 9
 1600 638 l 2
 1600 811 1548.61538462 935 1433 935 c 0
 1320.90909091 935 1240.84415584 870 1159 817 c 1
 1159 466 l 2
 1159 161 968 0 662 0 c 0
 405 0 166 83 166 334 c 0xbcfe
 166 454 213 554 250 682 c 2
 258 710 l 1
 232 701 205 697 178 697 c 0
 71 697 5 787 5 896 c 0
 5 1039 116 1104 261 1104 c 0
 415 1104 533 1027 533 875 c 0xbb7e
826 965 m 0
 783 965 762 941 761 900 c 1
 761 854 779 818 823 818 c 0
 848 818 870 823 891 834 c 1
 891 863 l 2
 891 931 869 965 826 965 c 0
307 901 m 1
 307 942 281 965 239 965 c 0
 199 965 172 938 172 897 c 0x3b7e
 172 847 202 820 252 820 c 2
 293 820 l 1
 302 875 307 901 307 901 c 1
1532.41308594 285.078125 m 0
 1482.79997478 285.078125 1458 255.409981606 1458 216 c 0
 1458 159.428571429 1486.57142857 128 1538 128 c 0
 1589.89990234 128 1599 162.660406872 1599 253 c 2
 1599 272 l 1
 1578.01510112 276.710886051 1555.81802832 285.078125 1532.41308594 285.078125 c 0
EndSplineSet
EndChar

StartChar: endash
Encoding: 8211 8211 274
Width: 1139
GlyphClass: 2
Flags: HW
HStem: 577 219<241 861>
VStem: 241 620<577 796>
LayerCount: 2
Fore
SplineSet
241 796 m 1
 861 796 l 1
 861 577 l 1
 241 577 l 1
 241 796 l 1
EndSplineSet
EndChar

StartChar: emdash
Encoding: 8212 8212 275
Width: 1771
GlyphClass: 2
Flags: HW
HStem: 577 219<147 1587>
LayerCount: 2
Fore
SplineSet
147 796 m 1
 1587 796 l 1
 1587 577 l 1
 147 577 l 1
 147 796 l 1
EndSplineSet
EndChar

StartChar: quoteleft
Encoding: 8216 8216 276
Width: 619
GlyphClass: 2
Flags: HW
HStem: 966 665
VStem: 119 362<966 1338.82> 119 200<1340 1459.03>
LayerCount: 2
Fore
SplineSet
481 966 m 1
 119 966 l 1
 119 1290 l 2
 119 1501 266 1583 429 1631 c 1
 480 1523 l 1
 392 1490 319 1458 319 1340 c 1
 481 1340 l 1
 481 966 l 1
EndSplineSet
EndChar

StartChar: quoteright
Encoding: 8217 8217 277
Width: 538
GlyphClass: 2
Flags: HW
HStem: 942 108<126.23 176.331> 1587 20G<81 444>
VStem: 81 363<1234.73 1607> 244 200<1113.6 1233>
LayerCount: 2
Fore
SplineSet
81 1607 m 1
 444 1607 l 1
 444 1283 l 2
 444 1073 296 989 133 942 c 1
 82 1050 l 1
 171 1082 244 1116 244 1233 c 1
 81 1233 l 1
 81 1607 l 1
EndSplineSet
EndChar

StartChar: quotesinglbase
Encoding: 8218 8218 278
Width: 674
GlyphClass: 2
Flags: HW
HStem: -291 664
VStem: 184 363<1.57874 373> 347 200<-119.748 0>
LayerCount: 2
Fore
SplineSet
184 373 m 1
 547 373 l 1
 547 51 l 2
 547 -162 400 -243 236 -291 c 1
 185 -183 l 1
 274 -151 347 -117 347 0 c 1
 184 0 l 1
 184 373 l 1
EndSplineSet
EndChar

StartChar: quotedblleft
Encoding: 8220 8220 279
Width: 1099
GlyphClass: 2
Flags: HW
HStem: 954 374<318 481 797 960> 1599 20G<398.5 438.259 877.5 917.444>
VStem: 118 363<954 1326.82> 118 200<1328 1447.03> 597 363<954 1326.82> 597 200<1328 1447.03>
LayerCount: 2
Fore
SplineSet
960 954 m 1
 597 954 l 1
 597 1278 l 2
 597 1489 745 1571 908 1619 c 1
 959 1511 l 1
 871 1478 797 1446 797 1328 c 1
 960 1328 l 1
 960 954 l 1
481 954 m 1
 118 954 l 1
 118 1278 l 2
 118 1489 266 1571 429 1619 c 1
 479 1511 l 1
 392 1477 318 1446 318 1328 c 1
 481 1328 l 1
 481 954 l 1
EndSplineSet
EndChar

StartChar: quotedblright
Encoding: 8221 8221 280
Width: 952
GlyphClass: 2
Flags: HW
HStem: 942 108<126.23 176.331 605.363 656.052> 1233 374<81 244 560 723>
VStem: 81 363<1234.73 1607> 244 200<1113.6 1233> 560 363<1234.73 1607> 723 200<1113.39 1233>
LayerCount: 2
Fore
SplineSet
81 1607 m 1
 444 1607 l 1
 444 1283 l 2
 444 1073 296 989 133 942 c 1
 82 1050 l 1
 171 1082 244 1116 244 1233 c 1
 81 1233 l 1
 81 1607 l 1
560 1607 m 1
 923 1607 l 1
 923 1283 l 2
 923 1073 776 989 612 942 c 1
 562 1050 l 1
 650 1082 723 1116 723 1233 c 1
 560 1233 l 1
 560 1607 l 1
EndSplineSet
EndChar

StartChar: quotedblbase
Encoding: 8222 8222 281
Width: 1147
GlyphClass: 2
Flags: HW
HStem: 0 373<195 357 674 836>
VStem: 195 362<1.57874 373> 357 200<-119.748 0> 674 363<1.57874 373> 836 201<-119.748 0>
LayerCount: 2
Fore
SplineSet
195 373 m 1
 557 373 l 1
 557 51 l 2
 557 -162 410 -243 246 -291 c 1
 196 -183 l 1
 285 -151 357 -117 357 0 c 1
 195 0 l 1
 195 373 l 1
674 373 m 1
 1037 373 l 1
 1037 51 l 2
 1037 -162 889 -243 725 -291 c 1
 675 -183 l 1
 764 -151 836 -117 836 0 c 1
 674 0 l 1
 674 373 l 1
EndSplineSet
EndChar

StartChar: dagger
Encoding: 8224 8224 282
Width: 835
GlyphClass: 2
Flags: HW
HStem: 0 21G<448 638> 1020 141<112 447 640 966>
VStem: 448 190<0 1020 1161 1468>
LayerCount: 2
Fore
SplineSet
448 1020 m 1
 112 1020 l 1
 112 1161 l 1
 447 1161 l 1
 447 1468 l 1
 640 1468 l 1
 640 1161 l 1
 966 1161 l 1
 966 1020 l 1
 638 1020 l 1
 638 0 l 1
 448 0 l 1
 448 1020 l 1
EndSplineSet
EndChar

StartChar: daggerdbl
Encoding: 8225 8225 283
Width: 902
GlyphClass: 2
Flags: HW
HStem: 0 21G<537 728> 305 139<202 537 728 1054> 1020 141<202 537 730 1056>
VStem: 537 191<0 305 444 1020 1161 1468>
LayerCount: 2
Fore
SplineSet
202 444 m 1
 537 444 l 1
 537 1020 l 1
 202 1020 l 1
 202 1161 l 1
 537 1161 l 1
 537 1468 l 1
 730 1468 l 1
 730 1161 l 1
 1056 1161 l 1
 1056 1020 l 1
 728 1020 l 1
 728 444 l 1
 1054 444 l 1
 1054 305 l 1
 728 305 l 1
 728 0 l 1
 537 0 l 1
 537 305 l 1
 202 305 l 1
 202 444 l 1
EndSplineSet
EndChar

StartChar: bullet
Encoding: 8226 8226 284
Width: 1296
GlyphClass: 2
Flags: HW
HStem: 339 717<453.397 815.762>
VStem: 254 763<530.553 864.343>
LayerCount: 2
Fore
SplineSet
1017 697 m 0
 1017 487 847 339 637 339 c 256
 425 339 254 485 254 697 c 0
 254 906 423 1056 632 1056 c 0
 844 1056 1017 909 1017 697 c 0
EndSplineSet
EndChar

StartChar: ellipsis
Encoding: 8230 8230 285
Width: 1655
GlyphClass: 2
Flags: HW
HStem: 10 338<173.625 397.578 716.51 941.578 1267.62 1491.58>
VStem: 123 326<61.2441 293.225> 667 326<60.4069 293.225> 1217 326<61.2441 293.225>
LayerCount: 2
Fore
SplineSet
1328 0 m 1
 1257 41 1208 126 1208 237 c 1
 1244 306 1327 357 1432 357 c 1
 1501 315 1553 230 1553 120 c 1
 1517 50 1433 0 1328 0 c 1
777 0 m 1
 706 41 658 126 658 237 c 1
 694 306 777 357 882 357 c 1
 951 315 1003 230 1003 120 c 1
 967 50 882 0 777 0 c 1
234 0 m 1
 163 41 114 126 114 237 c 1
 150 306 233 357 338 357 c 1
 407 315 459 230 459 120 c 1
 423 50 339 0 234 0 c 1
EndSplineSet
EndChar

StartChar: guilsinglleft
Encoding: 8249 8249 287
Width: 1045
GlyphClass: 2
Flags: HW
HStem: 17 269<607 876> 908 269<607 876>
DStem2: 114 706 360 598 0.850622 0.525778<152.469 754.381> 360 598 114 486 0.85162 -0.52416<0 602.974>
LayerCount: 2
Fore
SplineSet
114 706 m 1
 876 1177 l 1
 876 908 l 1
 360 598 l 1
 876 286 l 1
 876 17 l 1
 114 486 l 1
 114 706 l 1
EndSplineSet
EndChar

StartChar: guilsinglright
Encoding: 8250 8250 288
Width: 1009
GlyphClass: 2
Flags: HW
HStem: 17 269<151 420> 908 269<150 419>
DStem2: 150 1177 150 908 0.85093 -0.525279<141.3 738.962> 151 286 151 17 0.85162 0.52416<0 597.864>
LayerCount: 2
Fore
SplineSet
151 17 m 1
 151 286 l 1
 661 598 l 1
 150 908 l 1
 150 1177 l 1
 913 706 l 1
 913 486 l 1
 151 17 l 1
EndSplineSet
EndChar

StartChar: Euro
Encoding: 8364 8364 289
Width: 1259
GlyphClass: 2
Flags: HW
HStem: -35 230<622.658 997.773> 572 165<61 187 467 824> 844 165<49 191 494 887> 1346 225<671.501 1054.31>
VStem: 193 274<380.036 572 737 844>
LayerCount: 2
Fore
SplineSet
827.830966706 -36.9311575477 m 0
 423.003484684 -36.9311575477 225.364680354 195.760590889 193 572 c 1
 61 572 l 1
 61 737 l 1
 187 737 l 1
 188 777 188 810 191 844 c 1
 49 844 l 1
 49 1009 l 1
 214 1009 l 1
 279 1320 462 1571 834 1571 c 0
 985 1571 1114 1531 1201 1469 c 1
 1132 1261 l 1
 1064 1313 943 1346 825 1346 c 0
 630 1346 536 1188 494 1009 c 1
 887 1009 l 1
 887 844 l 1
 464 844 l 1
 461 811 461 774 460 737 c 1
 824 737 l 1
 824 572 l 1
 467 572 l 1
 491.054680751 338.325958421 627.056101785 189.674757564 811.700537457 189.674757564 c 0
 895.717129361 189.674757564 989.804850164 220.451744062 1088 288 c 1
 1149 74 l 1
 1070.55364938 -4.44635061907 951.648193401 -36.9311575477 827.830966706 -36.9311575477 c 0
EndSplineSet
EndChar

StartChar: uni20AD
Encoding: 8365 8365 290
Width: 1125
GlyphClass: 2
Flags: HW
HStem: 0 21G<225 384 827.808 1032> 562 116<93 225 577 996>
VStem: 225 159<0 562 682 1060> 822 206<854 1060> 844 188<0 188>
DStem2: 384 682 577 678 0.763065 0.646321<144.686 578.532> 573 562 389 562 0.632562 -0.77451<0 606.699>
LayerCount: 2
Fore
SplineSet
384 682 m 1
 822 1060 l 1
 1028 1060 l 1
 577 678 l 1
 996 678 l 1
 996 562 l 1
 573 562 l 1
 1032 0 l 1
 844 0 l 1
 389 562 l 1
 384 562 l 1
 384 0 l 1
 225 0 l 1
 225 562 l 1
 93 562 l 1
 93 678 l 1
 225 678 l 1
 225 1060 l 1
 384 1060 l 1
 384 682 l 1
EndSplineSet
EndChar

StartChar: trademark
Encoding: 8482 8482 291
Width: 1945
GlyphClass: 2
Flags: HW
HStem: 1346 141<85 331 530 771>
VStem: 331 199<550 1346> 879 172<550 1243> 1695 172<550 1243>
DStem2: 1142 1487 1051 1243 0.300753 -0.953702<205.335 758.098> 1370 764 1477 550 0.307925 0.951411<0 555.801>
LayerCount: 2
Fore
SplineSet
1051 1243 m 1
 1051 550 l 1
 879 550 l 1
 879 1487 l 1
 1142 1487 l 1
 1370 764 l 1
 1604 1487 l 1
 1867 1487 l 1
 1867 550 l 1
 1695 550 l 1
 1695 1243 l 1
 1477 550 l 1
 1270 550 l 1
 1051 1243 l 1
530 1346 m 1
 530 550 l 1
 331 550 l 1
 331 1346 l 1
 85 1346 l 1
 85 1487 l 1
 771 1487 l 1
 771 1346 l 1
 530 1346 l 1
EndSplineSet
EndChar

StartChar: uni25CC
Encoding: 9676 9676 292
Width: 1170
GlyphClass: 2
Flags: HW
HStem: 1 83<493 677> 904 83<493 677>
VStem: 493 184<1 84 904 987>
DStem2: 88 559 167 533 0.3097 0.950834<0 183.739> 167 455 88 429 0.3097 -0.950834<0.255367 183.995> 221 839 270 771 0.809675 0.586879<0 183.568> 270 216 221 149 0.809675 -0.586879<0 183.215> 800 947 752 880 0.809675 -0.586879<0.456461 184.024> 752 108 800 41 0.809675 0.586879<0 183.215> 1026 734 946 708 0.3097 -0.950834<0 183.739> 946 280 1026 254 0.3097 0.950834<0.0543334 183.794>
LayerCount: 2
Fore
SplineSet
800 947 m 1
 949 839 l 1
 900 771 l 1
 752 880 l 1
 800 947 l 1
270 216 m 1
 418 108 l 1
 370 41 l 1
 221 149 l 1
 270 216 l 1
1026 734 m 1
 1082 559 l 1
 1003 533 l 1
 946 708 l 1
 1026 734 l 1
167 455 m 1
 224 280 l 1
 144 254 l 1
 88 429 l 1
 167 455 l 1
1082 429 m 1
 1026 254 l 1
 946 280 l 1
 1003 455 l 1
 1082 429 l 1
224 708 m 1
 167 533 l 1
 88 559 l 1
 144 734 l 1
 224 708 l 1
949 149 m 1
 800 41 l 1
 752 108 l 1
 900 216 l 1
 949 149 l 1
418 880 m 1
 270 771 l 1
 221 839 l 1
 370 947 l 1
 418 880 l 1
677 1 m 1
 493 1 l 1
 493 84 l 1
 677 84 l 1
 677 1 l 1
677 904 m 1
 493 904 l 1
 493 987 l 1
 677 987 l 1
 677 904 l 1
EndSplineSet
EndChar

StartChar: uniFB00
Encoding: 64256 64256 294
Width: 1632
GlyphClass: 2
Flags: HW
HStem: 0 21G<239 532 988 1280> 1053 132<20 239 532 988 1281 1593> 1453 208<688.2 841.723 1437.2 1590.72> 1494 217<575.783 839.094 1324.78 1588.09>
VStem: 239 293<0 1053 1185 1449.73> 988 292<0 1053 1185 1449.73>
LayerCount: 2
Fore
SplineSet
1589 1453 m 1
 1542 1471 1486 1494 1424 1494 c 0
 1283.76315789 1494 1280.99532548 1349.15010388 1280.99532548 1203.01340848 c 0
 1280.99532548 1197.00779086 1281 1191 1281 1185 c 1
 1593 1185 l 1
 1593 1053 l 1
 1280 1053 l 1
 1280 0 l 1
 988 0 l 1
 988 1053 l 1
 532 1053 l 1
 532 0 l 1
 239 0 l 1
 239 1053 l 1
 20 1053 l 1
 20 1185 l 1
 239 1185 l 1
 239 1501 325 1711 617 1711 c 0
 716 1711 788 1678 865 1661 c 1
 840 1453 l 1
 793 1471 737 1494 676 1494 c 0
 534.764705882 1494 531.99538639 1349.99538639 531.99538639 1203.00425176 c 0
 531.99538639 1197.00461361 532 1191 532 1185 c 1
 988 1185 l 1
 988 1501 1074 1711 1366 1711 c 0
 1465 1711 1537 1678 1614 1661 c 1
 1589 1453 l 1
EndSplineSet
EndChar

StartChar: uniFB01
Encoding: 64257 64257 295
Width: 1488
GlyphClass: 2
Flags: HW
HStem: 0 21G<239 532 1013 1302> 1053 132<20 239 532 1013> 1412 332<1045.9 1271.22> 1494 217<576.586 837.125>
VStem: 239 293<0 1053 1185 1450.38> 995 328<1463.34 1691.94> 1013 289<0 1053>
LayerCount: 2
Fore
SplineSet
1158 1412 m 0
 1062 1412 995 1482 995 1578 c 256
 995 1673 1063 1744 1158 1744 c 0
 1253 1744 1323 1673 1323 1578 c 0
 1323 1482 1254 1412 1158 1412 c 0
673 1494 m 0
 549 1494 532 1374 532 1244 c 2
 532 1185 l 1
 1302 1185 l 1
 1302 0 l 1
 1013 0 l 1
 1013 1053 l 1
 532 1053 l 1
 532 0 l 1
 239 0 l 1
 239 1053 l 1
 20 1053 l 1
 20 1185 l 1
 239 1185 l 1
 239 1504 330 1711 624 1711 c 0
 720 1711 789 1677 864 1660 c 1
 838 1452 l 1
 791 1470 736 1494 673 1494 c 0
EndSplineSet
EndChar

StartChar: uniFB02
Encoding: 64258 64258 296
Width: 1411
GlyphClass: 2
Flags: HW
HStem: 0 21G<239 532 953 1246> 1053 132<20 239 532 844> 1509 202<547.828 939.11>
VStem: 239 293<0 1053 1185 1477.55> 953 293<0 1487.3>
LayerCount: 2
Fore
SplineSet
528 1389 m 0
 528 1350 532 1309 532 1265 c 2
 532 1185 l 1
 844 1185 l 1
 844 1053 l 1
 532 1053 l 1
 532 0 l 1
 239 0 l 1
 239 1053 l 1
 20 1053 l 1
 20 1185 l 1
 239 1185 l 1
 239 1552 381 1711 750 1711 c 0
 1147 1711 1246 1531 1246 1136 c 2
 1246 0 l 1
 953 0 l 1
 953 1207 l 2
 953 1258 957 1314 957 1363 c 0
 957 1502 892 1509 750 1509 c 0
 626 1509 528 1508 528 1389 c 0
EndSplineSet
EndChar

StartChar: uniFB03
Encoding: 64259 64259 297
Width: 2253
GlyphClass: 2
Flags: HW
HStem: 0 21G<239 532 1002 1294 1779 2068> 1053 132<20 239 532 1002 1295 1779> 1412 332<1811.9 2037.94> 1453 208<688.2 841.723 1451.2 1604.72> 1494 217<575.783 839.094 1338.78 1602.09>
VStem: 239 293<0 1053 1185 1450.38> 1002 292<0 1053 1185 1450.38> 1761 328<1463.34 1692.66> 1779 289<0 1053>
LayerCount: 2
Fore
SplineSet
1924 1412 m 0
 1828 1412 1761 1482 1761 1578 c 256
 1761 1673 1829 1744 1924 1744 c 256
 2020 1744 2089 1674 2089 1578 c 0
 2089 1482 2020 1412 1924 1412 c 0
1603 1453 m 1
 1556 1471 1500 1494 1439 1494 c 0
 1297.76470588 1494 1294.99538639 1349.99538639 1294.99538639 1203.00425176 c 0
 1294.99538639 1197.00461361 1295 1191 1295 1185 c 1
 2068 1185 l 1
 2068 0 l 1
 1779 0 l 1
 1779 1053 l 1
 1294 1053 l 1
 1294 0 l 1
 1002 0 l 1
 1002 1053 l 1
 532 1053 l 1
 532 0 l 1
 239 0 l 1
 239 1053 l 1
 20 1053 l 1
 20 1185 l 1
 239 1185 l 1
 239 1502 325 1711 617 1711 c 0
 716 1711 788 1678 865 1661 c 1
 840 1453 l 1
 793 1471 737 1494 676 1494 c 0
 534.764705882 1494 531.99538639 1349.99538639 531.99538639 1203.00425176 c 0
 531.99538639 1197.00461361 532 1191 532 1185 c 1
 1002 1185 l 1
 1002 1502 1088 1711 1380 1711 c 0
 1479 1711 1551 1678 1628 1661 c 1
 1603 1453 l 1
EndSplineSet
EndChar

StartChar: uniFB04
Encoding: 64260 64260 298
Width: 2103
GlyphClass: 2
Flags: HW
HStem: 0 21G<239 532 931 1224 1645 1939> 1053 132<20 239 532 931 1225 1512> 1494 217<575.783 816.219> 1509 202<1239.88 1630.78>
VStem: 239 293<0 1053 1185 1449.73> 931 293<0 1053 1185 1477.55> 1645 294<0 1487.73>
LayerCount: 2
Fore
SplineSet
931 1185 m 1
 931 1552 1073 1711 1442 1711 c 0
 1809 1711 1939 1561 1939 1196 c 2
 1939 0 l 1
 1645 0 l 1
 1645 1214 l 2
 1645 1266 1649 1320 1649 1369 c 0
 1649 1503 1578 1509 1442 1509 c 0
 1315 1509 1220 1508 1220 1385 c 0
 1220 1338 1225 1288 1225 1235 c 2
 1225 1185 l 1
 1512 1185 l 1
 1512 1053 l 1
 1224 1053 l 1
 1224 0 l 1
 931 0 l 1
 931 1053 l 1
 532 1053 l 1
 532 0 l 1
 239 0 l 1
 239 1053 l 1
 20 1053 l 1
 20 1185 l 1
 239 1185 l 1
 239 1501 325 1711 617 1711 c 0
 708 1711 775 1680 842 1661 c 1
 817 1453 l 1
 777 1470 729 1494 676 1494 c 0
 534.764705882 1494 531.99538639 1349.99538639 531.99538639 1203.00425176 c 0
 531.99538639 1197.00461361 532 1191 532 1185 c 1
 931 1185 l 1
EndSplineSet
EndChar

StartChar: macron
Encoding: 65574 -1 334
Width: 979
GlyphClass: 2
Flags: HW
HStem: 448 124<192 783>
VStem: 192 591<448 572>
LayerCount: 2
Fore
SplineSet
192 448 m 1
 192 572 l 1
 783 572 l 1
 783 448 l 1
 192 448 l 1
EndSplineSet
EndChar

StartChar: asciicircum.001
Encoding: 65575 -1 335
Width: 1428
GlyphClass: 2
Flags: HW
HStem: 809 202<565 863>
VStem: 374 680
DStem2: 374 510 502 432 0.503549 0.863966<0 429.533> 762 1011 714 809 0.503549 -0.863966<150.351 579.884>
LayerCount: 2
Fore
SplineSet
666 1011 m 1
 762 1011 l 1
 1054 510 l 1
 926 432 l 1
 714 809 l 1
 502 432 l 1
 374 510 l 1
 666 1011 l 1
EndSplineSet
EndChar

StartChar: t_t
Encoding: 65576 -1 336
Width: 1740
GlyphClass: 2
Flags: HW
HStem: -24 201<558.976 779.746 1360.85 1580.66> 1054 131<16 239 530 1039 1331 1666> 1647 20G<451.714 530 1252.43 1331>
VStem: 239 291<228.575 1054> 256 274<1185 1597> 1039 292<228.575 1054> 1056 275<1185 1597>
LayerCount: 2
Fore
SplineSet
1709 72 m 1
 1625 19 1512 -24 1373 -24 c 0
 1100 -24 1039 182 1039 460 c 2
 1039 1054 l 1
 530 1054 l 1
 530 377 l 2
 530 264 546 177 648 177 c 0
 717 177 778 219 832 251 c 1
 909 72 l 1
 825 19 712 -24 573 -24 c 0
 300 -24 239 182 239 460 c 2
 239 1054 l 1
 16 1054 l 1
 16 1185 l 1
 256 1185 l 1
 256 1597 l 1
 530 1667 l 1
 530 1185 l 1
 1056 1185 l 1
 1056 1597 l 1
 1331 1667 l 1
 1331 1185 l 1
 1666 1185 l 1
 1666 1054 l 1
 1331 1054 l 1
 1331 377 l 2
 1331 265 1347 177 1448 177 c 0
 1517 177 1579 219 1631 251 c 1
 1709 72 l 1
EndSplineSet
EndChar

StartChar: f_j
Encoding: 65577 -1 337
Width: 1463
GlyphClass: 2
Flags: HW
HStem: 0 21G<239 532> 1053 132<24 239 532 1013> 1410 332<1047.7 1270.99> 1494 217<575.783 838.905>
VStem: 239 293<0 1053 1185 1450.38> 998 322<1459.91 1692.79> 1013 294<-18.8906 1053>
LayerCount: 2
Fore
SplineSet
1159 1410 m 256
 1064 1410 998 1481 998 1576 c 0
 998 1672 1063 1742 1159 1742 c 256
 1254 1742 1320 1671 1320 1576 c 0
 1320 1480 1256 1410 1159 1410 c 256
840 1453 m 1
 796 1474 740 1494 676 1494 c 0
 534.764705882 1494 531.99538639 1349.99538639 531.99538639 1203.00425176 c 0
 531.99538639 1197.00461361 532 1191 532 1185 c 1
 1307 1185 l 1
 1307 187 l 2
 1307 -109 1136 -309 896 -364 c 1
 809 -173 l 1
 939 -95 1013 0 1013 208 c 2
 1013 1053 l 1
 532 1053 l 1
 532 0 l 1
 239 0 l 1
 239 1053 l 1
 24 1053 l 1
 24 1185 l 1
 239 1185 l 1
 239 1502 325 1711 617 1711 c 0
 711 1711 793 1690 865 1661 c 1
 840 1453 l 1
EndSplineSet
EndChar

StartChar: uni0ECD_uni0EB2
Encoding: 65578 -1 338
Width: 902
GlyphClass: 2
Flags: HW
HStem: 0 21G<555 822> 668 141<232.149 348.919> 963 143<227.955 364> 1480 133<-384.476 -247.74> 1782 130<-391.558 -240.787>
VStem: -538 136<1631.4 1771.13> -230 137<1629.71 1771.99> 53 166<822.14 951.945> 364 106<837.365 944.768> 364 90<859.232 956> 555 267<0 928.242>
LayerCount: 2
Fore
SplineSet
-315 1613 m 0
 -267 1613 -230 1648 -230 1698 c 0
 -230 1746 -267 1782 -315 1782 c 0
 -364 1782 -402 1746 -402 1698 c 0
 -402 1651 -364 1613 -315 1613 c 0
-93 1695 m 0
 -93 1571 -191 1480 -315 1480 c 256
 -440 1480 -538 1570 -538 1695 c 256
 -538 1820 -440 1912 -315 1912 c 0
 -190 1912 -93 1820 -93 1695 c 0
284 668 m 0
 150 668 53 733 53 866 c 0
 53 1038 190 1106 378 1106 c 0
 660 1106 822 998 822 725 c 2
 822 0 l 1
 555 0 l 1
 555 772 l 2
 555 877 536 935 454 956 c 1
 470 848 l 1
 470 728 408 668 284 668 c 0
298 809 m 0
 348 809 364 860 364 916 c 2
 364 963 l 1
 285 963 219 959 219 884 c 0
 219 835 248 809 298 809 c 0
EndSplineSet
EndChar
